M48
; DRILL file {KiCad 9.0.2} date 2025-06-18T17:23:40-0400
; FORMAT={-:-/ absolute / metric / decimal}
; #@! TF.CreationDate,2025-06-18T17:23:40-04:00
; #@! TF.GenerationSoftware,Kicad,Pcbnew,9.0.2
; #@! TF.FileFunction,Plated,1,2,PTH
FMAT,2
METRIC
; #@! TA.AperFunction,Plated,PTH,ViaDrill
T1C0.350
; #@! TA.AperFunction,Plated,PTH,ComponentDrill
T2C0.800
; #@! TA.AperFunction,Plated,PTH,ComponentDrill
T3C0.900
; #@! TA.AperFunction,Plated,PTH,ComponentDrill
T4C1.000
; #@! TA.AperFunction,Plated,PTH,ComponentDrill
T5C1.100
; #@! TA.AperFunction,Plated,PTH,ComponentDrill
T6C1.470
%
G90
G05
T1
X143.51Y-95.495
X143.51Y-109.26
X162.36Y-90.51
X162.485Y-93.985
X162.885Y-107.005
X162.885Y-110.205
X185.585Y-107.005
X185.585Y-120.705
X186.49Y-91.04
T2
X159.15Y-86.1
X159.52Y-109.98
X159.52Y-117.6
X166.77Y-86.1
X170.42Y-86.1
X178.04Y-86.1
T3
X126.59Y-101.965
X126.59Y-104.505
X131.905Y-96.57
X131.905Y-99.11
X131.905Y-101.65
X131.905Y-104.19
X131.905Y-106.73
X131.905Y-109.27
X131.905Y-111.81
X131.905Y-114.35
X154.765Y-96.57
X154.765Y-99.11
X154.765Y-101.65
X154.765Y-104.19
X154.765Y-106.73
X154.765Y-109.27
X154.765Y-111.81
X154.765Y-114.35
T4
X125.91Y-90.08
X125.91Y-92.08
X125.91Y-94.08
X158.42Y-102.7
X160.96Y-102.7
X163.5Y-102.7
X166.04Y-102.7
X168.58Y-102.7
X171.12Y-102.7
X173.66Y-102.7
X176.2Y-102.7
X178.74Y-102.7
X181.28Y-102.7
T5
X124.91Y-109.28
X124.91Y-119.44
X128.3Y-109.28
X128.3Y-119.44
X131.57Y-86.2
X141.73Y-86.2
X144.99Y-86.21
X155.15Y-86.21
T6
G00X126.41Y-87.93
M15
G01X125.41Y-87.93
M16
G05
G00X126.41Y-96.23
M15
G01X125.41Y-96.23
M16
G05
M30
