%TF.GenerationSoftware,KiCad,Pcbnew,9.0.2*%
%TF.CreationDate,2025-06-18T17:22:37-04:00*%
%TF.ProjectId,CVISS_IMU_Tracker_Board,43564953-535f-4494-9d55-5f547261636b,rev?*%
%TF.SameCoordinates,Original*%
%TF.FileFunction,Legend,Top*%
%TF.FilePolarity,Positive*%
%FSLAX46Y46*%
G04 Gerber Fmt 4.6, Leading zero omitted, Abs format (unit mm)*
G04 Created by KiCad (PCBNEW 9.0.2) date 2025-06-18 17:22:37*
%MOMM*%
%LPD*%
G01*
G04 APERTURE LIST*
%ADD10C,0.100000*%
%ADD11C,0.200000*%
%ADD12C,0.150000*%
%ADD13C,0.120000*%
G04 APERTURE END LIST*
D10*
X142698095Y-102587419D02*
X142698095Y-103396942D01*
X142698095Y-103396942D02*
X142745714Y-103492180D01*
X142745714Y-103492180D02*
X142793333Y-103539800D01*
X142793333Y-103539800D02*
X142888571Y-103587419D01*
X142888571Y-103587419D02*
X143079047Y-103587419D01*
X143079047Y-103587419D02*
X143174285Y-103539800D01*
X143174285Y-103539800D02*
X143221904Y-103492180D01*
X143221904Y-103492180D02*
X143269523Y-103396942D01*
X143269523Y-103396942D02*
X143269523Y-102587419D01*
X144269523Y-103587419D02*
X143698095Y-103587419D01*
X143983809Y-103587419D02*
X143983809Y-102587419D01*
X143983809Y-102587419D02*
X143888571Y-102730276D01*
X143888571Y-102730276D02*
X143793333Y-102825514D01*
X143793333Y-102825514D02*
X143698095Y-102873133D01*
X140953884Y-101822419D02*
X140953884Y-100822419D01*
X140953884Y-100822419D02*
X141191979Y-100822419D01*
X141191979Y-100822419D02*
X141334836Y-100870038D01*
X141334836Y-100870038D02*
X141430074Y-100965276D01*
X141430074Y-100965276D02*
X141477693Y-101060514D01*
X141477693Y-101060514D02*
X141525312Y-101250990D01*
X141525312Y-101250990D02*
X141525312Y-101393847D01*
X141525312Y-101393847D02*
X141477693Y-101584323D01*
X141477693Y-101584323D02*
X141430074Y-101679561D01*
X141430074Y-101679561D02*
X141334836Y-101774800D01*
X141334836Y-101774800D02*
X141191979Y-101822419D01*
X141191979Y-101822419D02*
X140953884Y-101822419D01*
X142477693Y-101822419D02*
X141906265Y-101822419D01*
X142191979Y-101822419D02*
X142191979Y-100822419D01*
X142191979Y-100822419D02*
X142096741Y-100965276D01*
X142096741Y-100965276D02*
X142001503Y-101060514D01*
X142001503Y-101060514D02*
X141906265Y-101108133D01*
X143668170Y-101822419D02*
X143668170Y-100822419D01*
X143668170Y-100822419D02*
X144001503Y-101536704D01*
X144001503Y-101536704D02*
X144334836Y-100822419D01*
X144334836Y-100822419D02*
X144334836Y-101822419D01*
X144811027Y-101822419D02*
X144811027Y-101155752D01*
X144811027Y-100822419D02*
X144763408Y-100870038D01*
X144763408Y-100870038D02*
X144811027Y-100917657D01*
X144811027Y-100917657D02*
X144858646Y-100870038D01*
X144858646Y-100870038D02*
X144811027Y-100822419D01*
X144811027Y-100822419D02*
X144811027Y-100917657D01*
X145287217Y-101155752D02*
X145287217Y-101822419D01*
X145287217Y-101250990D02*
X145334836Y-101203371D01*
X145334836Y-101203371D02*
X145430074Y-101155752D01*
X145430074Y-101155752D02*
X145572931Y-101155752D01*
X145572931Y-101155752D02*
X145668169Y-101203371D01*
X145668169Y-101203371D02*
X145715788Y-101298609D01*
X145715788Y-101298609D02*
X145715788Y-101822419D01*
X146191979Y-101822419D02*
X146191979Y-101155752D01*
X146191979Y-100822419D02*
X146144360Y-100870038D01*
X146144360Y-100870038D02*
X146191979Y-100917657D01*
X146191979Y-100917657D02*
X146239598Y-100870038D01*
X146239598Y-100870038D02*
X146191979Y-100822419D01*
X146191979Y-100822419D02*
X146191979Y-100917657D01*
D11*
G36*
X185910000Y-102711123D02*
G01*
X185218304Y-102971425D01*
X185218304Y-104025638D01*
X185910000Y-104282093D01*
X185910000Y-104816985D01*
X183166664Y-103728333D01*
X183166664Y-103496608D01*
X183823189Y-103496608D01*
X183823189Y-103508332D01*
X184545476Y-103763504D01*
X184796252Y-103869017D01*
X184796252Y-103130427D01*
X184546575Y-103237039D01*
X183823189Y-103496608D01*
X183166664Y-103496608D01*
X183166664Y-103268913D01*
X185910000Y-102180261D01*
X185910000Y-102711123D01*
G37*
G36*
X185910000Y-101793747D02*
G01*
X183166664Y-101793747D01*
X183166664Y-101289630D01*
X185910000Y-101289630D01*
X185910000Y-101793747D01*
G37*
G36*
X184655568Y-100718285D02*
G01*
X184655568Y-99814647D01*
X185101067Y-99814647D01*
X185101067Y-100718285D01*
X184655568Y-100718285D01*
G37*
G36*
X185173974Y-97830052D02*
G01*
X184845384Y-97731290D01*
X184478981Y-97606386D01*
X183166664Y-97132677D01*
X183166664Y-96427243D01*
X185910000Y-96427243D01*
X185910000Y-96931360D01*
X184520013Y-96931360D01*
X183810549Y-96906631D01*
X183810549Y-96925132D01*
X184073049Y-97007015D01*
X184360095Y-97105383D01*
X185910000Y-97672149D01*
X185910000Y-97996015D01*
X184360095Y-98562780D01*
X184073049Y-98661149D01*
X183810549Y-98743032D01*
X183810549Y-98761350D01*
X184183845Y-98742706D01*
X184517815Y-98736803D01*
X185910000Y-98736803D01*
X185910000Y-99240921D01*
X183166664Y-99240921D01*
X183166664Y-98539516D01*
X184472752Y-98065807D01*
X184805744Y-97952199D01*
X185173974Y-97842325D01*
X185173974Y-97830052D01*
G37*
G36*
X185956894Y-94636821D02*
G01*
X185945877Y-94846547D01*
X185914945Y-95025167D01*
X185862679Y-95190257D01*
X185794228Y-95329249D01*
X185706084Y-95451645D01*
X185601704Y-95553281D01*
X185481463Y-95635967D01*
X185344883Y-95701109D01*
X185226168Y-95739407D01*
X185090992Y-95765956D01*
X184947729Y-95780256D01*
X184779766Y-95785373D01*
X183166664Y-95785373D01*
X183166664Y-95281256D01*
X184735802Y-95281256D01*
X184930294Y-95272065D01*
X185078953Y-95247532D01*
X185190643Y-95211463D01*
X185303970Y-95149409D01*
X185390459Y-95073678D01*
X185454059Y-94983585D01*
X185513741Y-94824323D01*
X185534842Y-94630593D01*
X185513741Y-94436863D01*
X185454059Y-94277601D01*
X185390459Y-94187507D01*
X185303970Y-94111776D01*
X185190643Y-94049722D01*
X185078953Y-94013653D01*
X184930294Y-93989121D01*
X184735802Y-93979930D01*
X183166664Y-93979930D01*
X183166664Y-93475812D01*
X184779766Y-93475812D01*
X184947725Y-93480978D01*
X185090992Y-93495413D01*
X185226164Y-93521822D01*
X185344883Y-93560076D01*
X185481377Y-93625492D01*
X185601704Y-93709187D01*
X185705926Y-93812090D01*
X185794228Y-93937248D01*
X185862714Y-94079028D01*
X185914945Y-94246460D01*
X185945904Y-94426717D01*
X185956894Y-94636821D01*
G37*
D10*
X187112419Y-95289925D02*
X187112419Y-95766115D01*
X187112419Y-95766115D02*
X186112419Y-95766115D01*
X186826704Y-95004210D02*
X186826704Y-94528020D01*
X187112419Y-95099448D02*
X186112419Y-94766115D01*
X186112419Y-94766115D02*
X187112419Y-94432782D01*
X186588609Y-93766115D02*
X186636228Y-93623258D01*
X186636228Y-93623258D02*
X186683847Y-93575639D01*
X186683847Y-93575639D02*
X186779085Y-93528020D01*
X186779085Y-93528020D02*
X186921942Y-93528020D01*
X186921942Y-93528020D02*
X187017180Y-93575639D01*
X187017180Y-93575639D02*
X187064800Y-93623258D01*
X187064800Y-93623258D02*
X187112419Y-93718496D01*
X187112419Y-93718496D02*
X187112419Y-94099448D01*
X187112419Y-94099448D02*
X186112419Y-94099448D01*
X186112419Y-94099448D02*
X186112419Y-93766115D01*
X186112419Y-93766115D02*
X186160038Y-93670877D01*
X186160038Y-93670877D02*
X186207657Y-93623258D01*
X186207657Y-93623258D02*
X186302895Y-93575639D01*
X186302895Y-93575639D02*
X186398133Y-93575639D01*
X186398133Y-93575639D02*
X186493371Y-93623258D01*
X186493371Y-93623258D02*
X186540990Y-93670877D01*
X186540990Y-93670877D02*
X186588609Y-93766115D01*
X186588609Y-93766115D02*
X186588609Y-94099448D01*
X169218095Y-96527419D02*
X169218095Y-97336942D01*
X169218095Y-97336942D02*
X169265714Y-97432180D01*
X169265714Y-97432180D02*
X169313333Y-97479800D01*
X169313333Y-97479800D02*
X169408571Y-97527419D01*
X169408571Y-97527419D02*
X169599047Y-97527419D01*
X169599047Y-97527419D02*
X169694285Y-97479800D01*
X169694285Y-97479800D02*
X169741904Y-97432180D01*
X169741904Y-97432180D02*
X169789523Y-97336942D01*
X169789523Y-97336942D02*
X169789523Y-96527419D01*
X170218095Y-96622657D02*
X170265714Y-96575038D01*
X170265714Y-96575038D02*
X170360952Y-96527419D01*
X170360952Y-96527419D02*
X170599047Y-96527419D01*
X170599047Y-96527419D02*
X170694285Y-96575038D01*
X170694285Y-96575038D02*
X170741904Y-96622657D01*
X170741904Y-96622657D02*
X170789523Y-96717895D01*
X170789523Y-96717895D02*
X170789523Y-96813133D01*
X170789523Y-96813133D02*
X170741904Y-96955990D01*
X170741904Y-96955990D02*
X170170476Y-97527419D01*
X170170476Y-97527419D02*
X170789523Y-97527419D01*
X167537217Y-95008609D02*
X167680074Y-95056228D01*
X167680074Y-95056228D02*
X167727693Y-95103847D01*
X167727693Y-95103847D02*
X167775312Y-95199085D01*
X167775312Y-95199085D02*
X167775312Y-95341942D01*
X167775312Y-95341942D02*
X167727693Y-95437180D01*
X167727693Y-95437180D02*
X167680074Y-95484800D01*
X167680074Y-95484800D02*
X167584836Y-95532419D01*
X167584836Y-95532419D02*
X167203884Y-95532419D01*
X167203884Y-95532419D02*
X167203884Y-94532419D01*
X167203884Y-94532419D02*
X167537217Y-94532419D01*
X167537217Y-94532419D02*
X167632455Y-94580038D01*
X167632455Y-94580038D02*
X167680074Y-94627657D01*
X167680074Y-94627657D02*
X167727693Y-94722895D01*
X167727693Y-94722895D02*
X167727693Y-94818133D01*
X167727693Y-94818133D02*
X167680074Y-94913371D01*
X167680074Y-94913371D02*
X167632455Y-94960990D01*
X167632455Y-94960990D02*
X167537217Y-95008609D01*
X167537217Y-95008609D02*
X167203884Y-95008609D01*
X168203884Y-95532419D02*
X168203884Y-94532419D01*
X168203884Y-94532419D02*
X168775312Y-95532419D01*
X168775312Y-95532419D02*
X168775312Y-94532419D01*
X169441979Y-94532419D02*
X169632455Y-94532419D01*
X169632455Y-94532419D02*
X169727693Y-94580038D01*
X169727693Y-94580038D02*
X169822931Y-94675276D01*
X169822931Y-94675276D02*
X169870550Y-94865752D01*
X169870550Y-94865752D02*
X169870550Y-95199085D01*
X169870550Y-95199085D02*
X169822931Y-95389561D01*
X169822931Y-95389561D02*
X169727693Y-95484800D01*
X169727693Y-95484800D02*
X169632455Y-95532419D01*
X169632455Y-95532419D02*
X169441979Y-95532419D01*
X169441979Y-95532419D02*
X169346741Y-95484800D01*
X169346741Y-95484800D02*
X169251503Y-95389561D01*
X169251503Y-95389561D02*
X169203884Y-95199085D01*
X169203884Y-95199085D02*
X169203884Y-94865752D01*
X169203884Y-94865752D02*
X169251503Y-94675276D01*
X169251503Y-94675276D02*
X169346741Y-94580038D01*
X169346741Y-94580038D02*
X169441979Y-94532419D01*
X170489598Y-94532419D02*
X170584836Y-94532419D01*
X170584836Y-94532419D02*
X170680074Y-94580038D01*
X170680074Y-94580038D02*
X170727693Y-94627657D01*
X170727693Y-94627657D02*
X170775312Y-94722895D01*
X170775312Y-94722895D02*
X170822931Y-94913371D01*
X170822931Y-94913371D02*
X170822931Y-95151466D01*
X170822931Y-95151466D02*
X170775312Y-95341942D01*
X170775312Y-95341942D02*
X170727693Y-95437180D01*
X170727693Y-95437180D02*
X170680074Y-95484800D01*
X170680074Y-95484800D02*
X170584836Y-95532419D01*
X170584836Y-95532419D02*
X170489598Y-95532419D01*
X170489598Y-95532419D02*
X170394360Y-95484800D01*
X170394360Y-95484800D02*
X170346741Y-95437180D01*
X170346741Y-95437180D02*
X170299122Y-95341942D01*
X170299122Y-95341942D02*
X170251503Y-95151466D01*
X170251503Y-95151466D02*
X170251503Y-94913371D01*
X170251503Y-94913371D02*
X170299122Y-94722895D01*
X170299122Y-94722895D02*
X170346741Y-94627657D01*
X170346741Y-94627657D02*
X170394360Y-94580038D01*
X170394360Y-94580038D02*
X170489598Y-94532419D01*
X171394360Y-94960990D02*
X171299122Y-94913371D01*
X171299122Y-94913371D02*
X171251503Y-94865752D01*
X171251503Y-94865752D02*
X171203884Y-94770514D01*
X171203884Y-94770514D02*
X171203884Y-94722895D01*
X171203884Y-94722895D02*
X171251503Y-94627657D01*
X171251503Y-94627657D02*
X171299122Y-94580038D01*
X171299122Y-94580038D02*
X171394360Y-94532419D01*
X171394360Y-94532419D02*
X171584836Y-94532419D01*
X171584836Y-94532419D02*
X171680074Y-94580038D01*
X171680074Y-94580038D02*
X171727693Y-94627657D01*
X171727693Y-94627657D02*
X171775312Y-94722895D01*
X171775312Y-94722895D02*
X171775312Y-94770514D01*
X171775312Y-94770514D02*
X171727693Y-94865752D01*
X171727693Y-94865752D02*
X171680074Y-94913371D01*
X171680074Y-94913371D02*
X171584836Y-94960990D01*
X171584836Y-94960990D02*
X171394360Y-94960990D01*
X171394360Y-94960990D02*
X171299122Y-95008609D01*
X171299122Y-95008609D02*
X171251503Y-95056228D01*
X171251503Y-95056228D02*
X171203884Y-95151466D01*
X171203884Y-95151466D02*
X171203884Y-95341942D01*
X171203884Y-95341942D02*
X171251503Y-95437180D01*
X171251503Y-95437180D02*
X171299122Y-95484800D01*
X171299122Y-95484800D02*
X171394360Y-95532419D01*
X171394360Y-95532419D02*
X171584836Y-95532419D01*
X171584836Y-95532419D02*
X171680074Y-95484800D01*
X171680074Y-95484800D02*
X171727693Y-95437180D01*
X171727693Y-95437180D02*
X171775312Y-95341942D01*
X171775312Y-95341942D02*
X171775312Y-95151466D01*
X171775312Y-95151466D02*
X171727693Y-95056228D01*
X171727693Y-95056228D02*
X171680074Y-95008609D01*
X171680074Y-95008609D02*
X171584836Y-94960990D01*
X172108646Y-95532419D02*
X172632455Y-94865752D01*
X172108646Y-94865752D02*
X172632455Y-95532419D01*
X173508095Y-114627419D02*
X173508095Y-115436942D01*
X173508095Y-115436942D02*
X173555714Y-115532180D01*
X173555714Y-115532180D02*
X173603333Y-115579800D01*
X173603333Y-115579800D02*
X173698571Y-115627419D01*
X173698571Y-115627419D02*
X173889047Y-115627419D01*
X173889047Y-115627419D02*
X173984285Y-115579800D01*
X173984285Y-115579800D02*
X174031904Y-115532180D01*
X174031904Y-115532180D02*
X174079523Y-115436942D01*
X174079523Y-115436942D02*
X174079523Y-114627419D01*
X174460476Y-114627419D02*
X175079523Y-114627419D01*
X175079523Y-114627419D02*
X174746190Y-115008371D01*
X174746190Y-115008371D02*
X174889047Y-115008371D01*
X174889047Y-115008371D02*
X174984285Y-115055990D01*
X174984285Y-115055990D02*
X175031904Y-115103609D01*
X175031904Y-115103609D02*
X175079523Y-115198847D01*
X175079523Y-115198847D02*
X175079523Y-115436942D01*
X175079523Y-115436942D02*
X175031904Y-115532180D01*
X175031904Y-115532180D02*
X174984285Y-115579800D01*
X174984285Y-115579800D02*
X174889047Y-115627419D01*
X174889047Y-115627419D02*
X174603333Y-115627419D01*
X174603333Y-115627419D02*
X174508095Y-115579800D01*
X174508095Y-115579800D02*
X174460476Y-115532180D01*
X171726027Y-112807419D02*
X172297455Y-112807419D01*
X172011741Y-113807419D02*
X172011741Y-112807419D01*
X172630789Y-113807419D02*
X172630789Y-112807419D01*
X172630789Y-112807419D02*
X173011741Y-112807419D01*
X173011741Y-112807419D02*
X173106979Y-112855038D01*
X173106979Y-112855038D02*
X173154598Y-112902657D01*
X173154598Y-112902657D02*
X173202217Y-112997895D01*
X173202217Y-112997895D02*
X173202217Y-113140752D01*
X173202217Y-113140752D02*
X173154598Y-113235990D01*
X173154598Y-113235990D02*
X173106979Y-113283609D01*
X173106979Y-113283609D02*
X173011741Y-113331228D01*
X173011741Y-113331228D02*
X172630789Y-113331228D01*
X174059360Y-113140752D02*
X174059360Y-113807419D01*
X173821265Y-112759800D02*
X173583170Y-113474085D01*
X173583170Y-113474085D02*
X174202217Y-113474085D01*
X174773646Y-112807419D02*
X174868884Y-112807419D01*
X174868884Y-112807419D02*
X174964122Y-112855038D01*
X174964122Y-112855038D02*
X175011741Y-112902657D01*
X175011741Y-112902657D02*
X175059360Y-112997895D01*
X175059360Y-112997895D02*
X175106979Y-113188371D01*
X175106979Y-113188371D02*
X175106979Y-113426466D01*
X175106979Y-113426466D02*
X175059360Y-113616942D01*
X175059360Y-113616942D02*
X175011741Y-113712180D01*
X175011741Y-113712180D02*
X174964122Y-113759800D01*
X174964122Y-113759800D02*
X174868884Y-113807419D01*
X174868884Y-113807419D02*
X174773646Y-113807419D01*
X174773646Y-113807419D02*
X174678408Y-113759800D01*
X174678408Y-113759800D02*
X174630789Y-113712180D01*
X174630789Y-113712180D02*
X174583170Y-113616942D01*
X174583170Y-113616942D02*
X174535551Y-113426466D01*
X174535551Y-113426466D02*
X174535551Y-113188371D01*
X174535551Y-113188371D02*
X174583170Y-112997895D01*
X174583170Y-112997895D02*
X174630789Y-112902657D01*
X174630789Y-112902657D02*
X174678408Y-112855038D01*
X174678408Y-112855038D02*
X174773646Y-112807419D01*
X176011741Y-112807419D02*
X175535551Y-112807419D01*
X175535551Y-112807419D02*
X175487932Y-113283609D01*
X175487932Y-113283609D02*
X175535551Y-113235990D01*
X175535551Y-113235990D02*
X175630789Y-113188371D01*
X175630789Y-113188371D02*
X175868884Y-113188371D01*
X175868884Y-113188371D02*
X175964122Y-113235990D01*
X175964122Y-113235990D02*
X176011741Y-113283609D01*
X176011741Y-113283609D02*
X176059360Y-113378847D01*
X176059360Y-113378847D02*
X176059360Y-113616942D01*
X176059360Y-113616942D02*
X176011741Y-113712180D01*
X176011741Y-113712180D02*
X175964122Y-113759800D01*
X175964122Y-113759800D02*
X175868884Y-113807419D01*
X175868884Y-113807419D02*
X175630789Y-113807419D01*
X175630789Y-113807419D02*
X175535551Y-113759800D01*
X175535551Y-113759800D02*
X175487932Y-113712180D01*
X176916503Y-112807419D02*
X176726027Y-112807419D01*
X176726027Y-112807419D02*
X176630789Y-112855038D01*
X176630789Y-112855038D02*
X176583170Y-112902657D01*
X176583170Y-112902657D02*
X176487932Y-113045514D01*
X176487932Y-113045514D02*
X176440313Y-113235990D01*
X176440313Y-113235990D02*
X176440313Y-113616942D01*
X176440313Y-113616942D02*
X176487932Y-113712180D01*
X176487932Y-113712180D02*
X176535551Y-113759800D01*
X176535551Y-113759800D02*
X176630789Y-113807419D01*
X176630789Y-113807419D02*
X176821265Y-113807419D01*
X176821265Y-113807419D02*
X176916503Y-113759800D01*
X176916503Y-113759800D02*
X176964122Y-113712180D01*
X176964122Y-113712180D02*
X177011741Y-113616942D01*
X177011741Y-113616942D02*
X177011741Y-113378847D01*
X177011741Y-113378847D02*
X176964122Y-113283609D01*
X176964122Y-113283609D02*
X176916503Y-113235990D01*
X176916503Y-113235990D02*
X176821265Y-113188371D01*
X176821265Y-113188371D02*
X176630789Y-113188371D01*
X176630789Y-113188371D02*
X176535551Y-113235990D01*
X176535551Y-113235990D02*
X176487932Y-113283609D01*
X176487932Y-113283609D02*
X176440313Y-113378847D01*
X126985200Y-89896265D02*
X126937580Y-90039122D01*
X126937580Y-90039122D02*
X126937580Y-90277217D01*
X126937580Y-90277217D02*
X126985200Y-90372455D01*
X126985200Y-90372455D02*
X127032819Y-90420074D01*
X127032819Y-90420074D02*
X127128057Y-90467693D01*
X127128057Y-90467693D02*
X127223295Y-90467693D01*
X127223295Y-90467693D02*
X127318533Y-90420074D01*
X127318533Y-90420074D02*
X127366152Y-90372455D01*
X127366152Y-90372455D02*
X127413771Y-90277217D01*
X127413771Y-90277217D02*
X127461390Y-90086741D01*
X127461390Y-90086741D02*
X127509009Y-89991503D01*
X127509009Y-89991503D02*
X127556628Y-89943884D01*
X127556628Y-89943884D02*
X127651866Y-89896265D01*
X127651866Y-89896265D02*
X127747104Y-89896265D01*
X127747104Y-89896265D02*
X127842342Y-89943884D01*
X127842342Y-89943884D02*
X127889961Y-89991503D01*
X127889961Y-89991503D02*
X127937580Y-90086741D01*
X127937580Y-90086741D02*
X127937580Y-90324836D01*
X127937580Y-90324836D02*
X127889961Y-90467693D01*
X127604247Y-90801027D02*
X126937580Y-90991503D01*
X126937580Y-90991503D02*
X127413771Y-91181979D01*
X127413771Y-91181979D02*
X126937580Y-91372455D01*
X126937580Y-91372455D02*
X127604247Y-91562931D01*
X126937580Y-91943884D02*
X127604247Y-91943884D01*
X127937580Y-91943884D02*
X127889961Y-91896265D01*
X127889961Y-91896265D02*
X127842342Y-91943884D01*
X127842342Y-91943884D02*
X127889961Y-91991503D01*
X127889961Y-91991503D02*
X127937580Y-91943884D01*
X127937580Y-91943884D02*
X127842342Y-91943884D01*
X127604247Y-92277217D02*
X127604247Y-92658169D01*
X127937580Y-92420074D02*
X127080438Y-92420074D01*
X127080438Y-92420074D02*
X126985200Y-92467693D01*
X126985200Y-92467693D02*
X126937580Y-92562931D01*
X126937580Y-92562931D02*
X126937580Y-92658169D01*
X126985200Y-93420074D02*
X126937580Y-93324836D01*
X126937580Y-93324836D02*
X126937580Y-93134360D01*
X126937580Y-93134360D02*
X126985200Y-93039122D01*
X126985200Y-93039122D02*
X127032819Y-92991503D01*
X127032819Y-92991503D02*
X127128057Y-92943884D01*
X127128057Y-92943884D02*
X127413771Y-92943884D01*
X127413771Y-92943884D02*
X127509009Y-92991503D01*
X127509009Y-92991503D02*
X127556628Y-93039122D01*
X127556628Y-93039122D02*
X127604247Y-93134360D01*
X127604247Y-93134360D02*
X127604247Y-93324836D01*
X127604247Y-93324836D02*
X127556628Y-93420074D01*
X126937580Y-93848646D02*
X127937580Y-93848646D01*
X126937580Y-94277217D02*
X127461390Y-94277217D01*
X127461390Y-94277217D02*
X127556628Y-94229598D01*
X127556628Y-94229598D02*
X127604247Y-94134360D01*
X127604247Y-94134360D02*
X127604247Y-93991503D01*
X127604247Y-93991503D02*
X127556628Y-93896265D01*
X127556628Y-93896265D02*
X127509009Y-93848646D01*
D12*
X136071905Y-86684819D02*
X136071905Y-85684819D01*
X136071905Y-85684819D02*
X136310000Y-85684819D01*
X136310000Y-85684819D02*
X136452857Y-85732438D01*
X136452857Y-85732438D02*
X136548095Y-85827676D01*
X136548095Y-85827676D02*
X136595714Y-85922914D01*
X136595714Y-85922914D02*
X136643333Y-86113390D01*
X136643333Y-86113390D02*
X136643333Y-86256247D01*
X136643333Y-86256247D02*
X136595714Y-86446723D01*
X136595714Y-86446723D02*
X136548095Y-86541961D01*
X136548095Y-86541961D02*
X136452857Y-86637200D01*
X136452857Y-86637200D02*
X136310000Y-86684819D01*
X136310000Y-86684819D02*
X136071905Y-86684819D01*
X137214762Y-86113390D02*
X137119524Y-86065771D01*
X137119524Y-86065771D02*
X137071905Y-86018152D01*
X137071905Y-86018152D02*
X137024286Y-85922914D01*
X137024286Y-85922914D02*
X137024286Y-85875295D01*
X137024286Y-85875295D02*
X137071905Y-85780057D01*
X137071905Y-85780057D02*
X137119524Y-85732438D01*
X137119524Y-85732438D02*
X137214762Y-85684819D01*
X137214762Y-85684819D02*
X137405238Y-85684819D01*
X137405238Y-85684819D02*
X137500476Y-85732438D01*
X137500476Y-85732438D02*
X137548095Y-85780057D01*
X137548095Y-85780057D02*
X137595714Y-85875295D01*
X137595714Y-85875295D02*
X137595714Y-85922914D01*
X137595714Y-85922914D02*
X137548095Y-86018152D01*
X137548095Y-86018152D02*
X137500476Y-86065771D01*
X137500476Y-86065771D02*
X137405238Y-86113390D01*
X137405238Y-86113390D02*
X137214762Y-86113390D01*
X137214762Y-86113390D02*
X137119524Y-86161009D01*
X137119524Y-86161009D02*
X137071905Y-86208628D01*
X137071905Y-86208628D02*
X137024286Y-86303866D01*
X137024286Y-86303866D02*
X137024286Y-86494342D01*
X137024286Y-86494342D02*
X137071905Y-86589580D01*
X137071905Y-86589580D02*
X137119524Y-86637200D01*
X137119524Y-86637200D02*
X137214762Y-86684819D01*
X137214762Y-86684819D02*
X137405238Y-86684819D01*
X137405238Y-86684819D02*
X137500476Y-86637200D01*
X137500476Y-86637200D02*
X137548095Y-86589580D01*
X137548095Y-86589580D02*
X137595714Y-86494342D01*
X137595714Y-86494342D02*
X137595714Y-86303866D01*
X137595714Y-86303866D02*
X137548095Y-86208628D01*
X137548095Y-86208628D02*
X137500476Y-86161009D01*
X137500476Y-86161009D02*
X137405238Y-86113390D01*
X162793333Y-86524819D02*
X162460000Y-86048628D01*
X162221905Y-86524819D02*
X162221905Y-85524819D01*
X162221905Y-85524819D02*
X162602857Y-85524819D01*
X162602857Y-85524819D02*
X162698095Y-85572438D01*
X162698095Y-85572438D02*
X162745714Y-85620057D01*
X162745714Y-85620057D02*
X162793333Y-85715295D01*
X162793333Y-85715295D02*
X162793333Y-85858152D01*
X162793333Y-85858152D02*
X162745714Y-85953390D01*
X162745714Y-85953390D02*
X162698095Y-86001009D01*
X162698095Y-86001009D02*
X162602857Y-86048628D01*
X162602857Y-86048628D02*
X162221905Y-86048628D01*
X163174286Y-85620057D02*
X163221905Y-85572438D01*
X163221905Y-85572438D02*
X163317143Y-85524819D01*
X163317143Y-85524819D02*
X163555238Y-85524819D01*
X163555238Y-85524819D02*
X163650476Y-85572438D01*
X163650476Y-85572438D02*
X163698095Y-85620057D01*
X163698095Y-85620057D02*
X163745714Y-85715295D01*
X163745714Y-85715295D02*
X163745714Y-85810533D01*
X163745714Y-85810533D02*
X163698095Y-85953390D01*
X163698095Y-85953390D02*
X163126667Y-86524819D01*
X163126667Y-86524819D02*
X163745714Y-86524819D01*
X127671905Y-115264819D02*
X127671905Y-114264819D01*
X127671905Y-114264819D02*
X127910000Y-114264819D01*
X127910000Y-114264819D02*
X128052857Y-114312438D01*
X128052857Y-114312438D02*
X128148095Y-114407676D01*
X128148095Y-114407676D02*
X128195714Y-114502914D01*
X128195714Y-114502914D02*
X128243333Y-114693390D01*
X128243333Y-114693390D02*
X128243333Y-114836247D01*
X128243333Y-114836247D02*
X128195714Y-115026723D01*
X128195714Y-115026723D02*
X128148095Y-115121961D01*
X128148095Y-115121961D02*
X128052857Y-115217200D01*
X128052857Y-115217200D02*
X127910000Y-115264819D01*
X127910000Y-115264819D02*
X127671905Y-115264819D01*
X128576667Y-114264819D02*
X129243333Y-114264819D01*
X129243333Y-114264819D02*
X128814762Y-115264819D01*
X159373333Y-114104819D02*
X159040000Y-113628628D01*
X158801905Y-114104819D02*
X158801905Y-113104819D01*
X158801905Y-113104819D02*
X159182857Y-113104819D01*
X159182857Y-113104819D02*
X159278095Y-113152438D01*
X159278095Y-113152438D02*
X159325714Y-113200057D01*
X159325714Y-113200057D02*
X159373333Y-113295295D01*
X159373333Y-113295295D02*
X159373333Y-113438152D01*
X159373333Y-113438152D02*
X159325714Y-113533390D01*
X159325714Y-113533390D02*
X159278095Y-113581009D01*
X159278095Y-113581009D02*
X159182857Y-113628628D01*
X159182857Y-113628628D02*
X158801905Y-113628628D01*
X160230476Y-113438152D02*
X160230476Y-114104819D01*
X159992381Y-113057200D02*
X159754286Y-113771485D01*
X159754286Y-113771485D02*
X160373333Y-113771485D01*
X149741905Y-86664819D02*
X149741905Y-85664819D01*
X149741905Y-85664819D02*
X149980000Y-85664819D01*
X149980000Y-85664819D02*
X150122857Y-85712438D01*
X150122857Y-85712438D02*
X150218095Y-85807676D01*
X150218095Y-85807676D02*
X150265714Y-85902914D01*
X150265714Y-85902914D02*
X150313333Y-86093390D01*
X150313333Y-86093390D02*
X150313333Y-86236247D01*
X150313333Y-86236247D02*
X150265714Y-86426723D01*
X150265714Y-86426723D02*
X150218095Y-86521961D01*
X150218095Y-86521961D02*
X150122857Y-86617200D01*
X150122857Y-86617200D02*
X149980000Y-86664819D01*
X149980000Y-86664819D02*
X149741905Y-86664819D01*
X151265714Y-86664819D02*
X150694286Y-86664819D01*
X150980000Y-86664819D02*
X150980000Y-85664819D01*
X150980000Y-85664819D02*
X150884762Y-85807676D01*
X150884762Y-85807676D02*
X150789524Y-85902914D01*
X150789524Y-85902914D02*
X150694286Y-85950533D01*
X124331905Y-115164819D02*
X124331905Y-114164819D01*
X124331905Y-114164819D02*
X124570000Y-114164819D01*
X124570000Y-114164819D02*
X124712857Y-114212438D01*
X124712857Y-114212438D02*
X124808095Y-114307676D01*
X124808095Y-114307676D02*
X124855714Y-114402914D01*
X124855714Y-114402914D02*
X124903333Y-114593390D01*
X124903333Y-114593390D02*
X124903333Y-114736247D01*
X124903333Y-114736247D02*
X124855714Y-114926723D01*
X124855714Y-114926723D02*
X124808095Y-115021961D01*
X124808095Y-115021961D02*
X124712857Y-115117200D01*
X124712857Y-115117200D02*
X124570000Y-115164819D01*
X124570000Y-115164819D02*
X124331905Y-115164819D01*
X125760476Y-114164819D02*
X125570000Y-114164819D01*
X125570000Y-114164819D02*
X125474762Y-114212438D01*
X125474762Y-114212438D02*
X125427143Y-114260057D01*
X125427143Y-114260057D02*
X125331905Y-114402914D01*
X125331905Y-114402914D02*
X125284286Y-114593390D01*
X125284286Y-114593390D02*
X125284286Y-114974342D01*
X125284286Y-114974342D02*
X125331905Y-115069580D01*
X125331905Y-115069580D02*
X125379524Y-115117200D01*
X125379524Y-115117200D02*
X125474762Y-115164819D01*
X125474762Y-115164819D02*
X125665238Y-115164819D01*
X125665238Y-115164819D02*
X125760476Y-115117200D01*
X125760476Y-115117200D02*
X125808095Y-115069580D01*
X125808095Y-115069580D02*
X125855714Y-114974342D01*
X125855714Y-114974342D02*
X125855714Y-114736247D01*
X125855714Y-114736247D02*
X125808095Y-114641009D01*
X125808095Y-114641009D02*
X125760476Y-114593390D01*
X125760476Y-114593390D02*
X125665238Y-114545771D01*
X125665238Y-114545771D02*
X125474762Y-114545771D01*
X125474762Y-114545771D02*
X125379524Y-114593390D01*
X125379524Y-114593390D02*
X125331905Y-114641009D01*
X125331905Y-114641009D02*
X125284286Y-114736247D01*
X174003333Y-86574819D02*
X173670000Y-86098628D01*
X173431905Y-86574819D02*
X173431905Y-85574819D01*
X173431905Y-85574819D02*
X173812857Y-85574819D01*
X173812857Y-85574819D02*
X173908095Y-85622438D01*
X173908095Y-85622438D02*
X173955714Y-85670057D01*
X173955714Y-85670057D02*
X174003333Y-85765295D01*
X174003333Y-85765295D02*
X174003333Y-85908152D01*
X174003333Y-85908152D02*
X173955714Y-86003390D01*
X173955714Y-86003390D02*
X173908095Y-86051009D01*
X173908095Y-86051009D02*
X173812857Y-86098628D01*
X173812857Y-86098628D02*
X173431905Y-86098628D01*
X174955714Y-86574819D02*
X174384286Y-86574819D01*
X174670000Y-86574819D02*
X174670000Y-85574819D01*
X174670000Y-85574819D02*
X174574762Y-85717676D01*
X174574762Y-85717676D02*
X174479524Y-85812914D01*
X174479524Y-85812914D02*
X174384286Y-85860533D01*
X125981905Y-107404819D02*
X125981905Y-106404819D01*
X125981905Y-106404819D02*
X126220000Y-106404819D01*
X126220000Y-106404819D02*
X126362857Y-106452438D01*
X126362857Y-106452438D02*
X126458095Y-106547676D01*
X126458095Y-106547676D02*
X126505714Y-106642914D01*
X126505714Y-106642914D02*
X126553333Y-106833390D01*
X126553333Y-106833390D02*
X126553333Y-106976247D01*
X126553333Y-106976247D02*
X126505714Y-107166723D01*
X126505714Y-107166723D02*
X126458095Y-107261961D01*
X126458095Y-107261961D02*
X126362857Y-107357200D01*
X126362857Y-107357200D02*
X126220000Y-107404819D01*
X126220000Y-107404819D02*
X125981905Y-107404819D01*
X127029524Y-107404819D02*
X127220000Y-107404819D01*
X127220000Y-107404819D02*
X127315238Y-107357200D01*
X127315238Y-107357200D02*
X127362857Y-107309580D01*
X127362857Y-107309580D02*
X127458095Y-107166723D01*
X127458095Y-107166723D02*
X127505714Y-106976247D01*
X127505714Y-106976247D02*
X127505714Y-106595295D01*
X127505714Y-106595295D02*
X127458095Y-106500057D01*
X127458095Y-106500057D02*
X127410476Y-106452438D01*
X127410476Y-106452438D02*
X127315238Y-106404819D01*
X127315238Y-106404819D02*
X127124762Y-106404819D01*
X127124762Y-106404819D02*
X127029524Y-106452438D01*
X127029524Y-106452438D02*
X126981905Y-106500057D01*
X126981905Y-106500057D02*
X126934286Y-106595295D01*
X126934286Y-106595295D02*
X126934286Y-106833390D01*
X126934286Y-106833390D02*
X126981905Y-106928628D01*
X126981905Y-106928628D02*
X127029524Y-106976247D01*
X127029524Y-106976247D02*
X127124762Y-107023866D01*
X127124762Y-107023866D02*
X127315238Y-107023866D01*
X127315238Y-107023866D02*
X127410476Y-106976247D01*
X127410476Y-106976247D02*
X127458095Y-106928628D01*
X127458095Y-106928628D02*
X127505714Y-106833390D01*
%TO.C,U2*%
D10*
X157030000Y-103830000D02*
X182630000Y-103830000D01*
X182630000Y-88130000D01*
X157030000Y-88130000D01*
X157030000Y-103830000D01*
%TO.C,U3*%
X187395000Y-105175000D02*
X187395000Y-122445000D01*
X161225000Y-119245000D02*
X159445000Y-119945000D01*
X161225000Y-108375000D02*
X161225000Y-119245000D01*
X159445000Y-122445000D02*
X187395000Y-122445000D01*
X159445000Y-119945000D02*
X159445000Y-122445000D01*
X159445000Y-107675000D02*
X161225000Y-108375000D01*
X159445000Y-105175000D02*
X187395000Y-105175000D01*
X159445000Y-105175000D02*
X159445000Y-107675000D01*
%TO.C,SW1*%
X128190000Y-98160000D02*
X123560000Y-98160000D01*
X123560000Y-86050000D01*
X128190000Y-86050000D01*
X128190000Y-98160000D01*
%TO.C,D8*%
D13*
X133930000Y-84730000D02*
X139370000Y-84730000D01*
X139370000Y-87670000D01*
X133930000Y-87670000D01*
X133930000Y-84730000D01*
X140390000Y-86200000D02*
X139370000Y-86200000D01*
X134950000Y-84730000D02*
X134950000Y-87670000D01*
X134830000Y-84730000D02*
X134830000Y-87670000D01*
X134710000Y-84730000D02*
X134710000Y-87670000D01*
X132910000Y-86200000D02*
X133930000Y-86200000D01*
%TO.C,R2*%
X166230000Y-87470000D02*
X159690000Y-87470000D01*
X166230000Y-87140000D02*
X166230000Y-87470000D01*
X166230000Y-85060000D02*
X166230000Y-84730000D01*
X166230000Y-84730000D02*
X159690000Y-84730000D01*
X159690000Y-87470000D02*
X159690000Y-87140000D01*
X159690000Y-84730000D02*
X159690000Y-85060000D01*
%TO.C,D7*%
X128300000Y-110620000D02*
X128300000Y-111640000D01*
X128300000Y-118100000D02*
X128300000Y-117080000D01*
X129770000Y-112420000D02*
X126830000Y-112420000D01*
X129770000Y-112540000D02*
X126830000Y-112540000D01*
X129770000Y-112660000D02*
X126830000Y-112660000D01*
X129770000Y-111640000D02*
X126830000Y-111640000D01*
X126830000Y-117080000D01*
X129770000Y-117080000D01*
X129770000Y-111640000D01*
%TO.C,U1*%
X130405000Y-115790000D02*
X130405000Y-90360000D01*
X130405000Y-115790000D02*
X132945000Y-115790000D01*
X132945000Y-115790000D02*
X132945000Y-122690000D01*
X132945000Y-122690000D02*
X156265000Y-122690000D01*
X154145000Y-88230000D02*
X132535000Y-88230000D01*
X156265000Y-122690000D02*
X156265000Y-90360000D01*
X130405000Y-90360000D02*
G75*
G02*
X132535000Y-88230000I2130002J-2D01*
G01*
X154135000Y-88230000D02*
G75*
G02*
X156265000Y-90360000I0J-2130000D01*
G01*
D12*
X130000000Y-96570000D02*
X129365000Y-97205000D01*
X129365000Y-95935000D01*
X130000000Y-96570000D01*
G36*
X130000000Y-96570000D02*
G01*
X129365000Y-97205000D01*
X129365000Y-95935000D01*
X130000000Y-96570000D01*
G37*
D13*
%TO.C,R4*%
X158150000Y-110520000D02*
X158480000Y-110520000D01*
X158150000Y-117060000D02*
X158150000Y-110520000D01*
X158480000Y-117060000D02*
X158150000Y-117060000D01*
X160560000Y-117060000D02*
X160890000Y-117060000D01*
X160890000Y-110520000D02*
X160560000Y-110520000D01*
X160890000Y-117060000D02*
X160890000Y-110520000D01*
%TO.C,D1*%
X146330000Y-86210000D02*
X147350000Y-86210000D01*
X148130000Y-84740000D02*
X148130000Y-87680000D01*
X148250000Y-84740000D02*
X148250000Y-87680000D01*
X148370000Y-84740000D02*
X148370000Y-87680000D01*
X153810000Y-86210000D02*
X152790000Y-86210000D01*
X147350000Y-84740000D02*
X152790000Y-84740000D01*
X152790000Y-87680000D01*
X147350000Y-87680000D01*
X147350000Y-84740000D01*
%TO.C,D6*%
X124910000Y-110620000D02*
X124910000Y-111640000D01*
X124910000Y-118100000D02*
X124910000Y-117080000D01*
X126380000Y-112420000D02*
X123440000Y-112420000D01*
X126380000Y-112540000D02*
X123440000Y-112540000D01*
X126380000Y-112660000D02*
X123440000Y-112660000D01*
X126380000Y-111640000D02*
X123440000Y-111640000D01*
X123440000Y-117080000D01*
X126380000Y-117080000D01*
X126380000Y-111640000D01*
%TO.C,R1*%
X170960000Y-84730000D02*
X177500000Y-84730000D01*
X170960000Y-85060000D02*
X170960000Y-84730000D01*
X170960000Y-87140000D02*
X170960000Y-87470000D01*
X170960000Y-87470000D02*
X177500000Y-87470000D01*
X177500000Y-84730000D02*
X177500000Y-85060000D01*
X177500000Y-87470000D02*
X177500000Y-87140000D01*
%TO.C,D9*%
X125045000Y-105795000D02*
X128135000Y-105795000D01*
X125045170Y-105795000D02*
G75*
G02*
X126590000Y-100245000I1544830J2560000D01*
G01*
X126590000Y-100245000D02*
G75*
G02*
X128134830Y-105795000I0J-2990000D01*
G01*
X129090000Y-103235000D02*
G75*
G02*
X124090000Y-103235000I-2500000J0D01*
G01*
X124090000Y-103235000D02*
G75*
G02*
X129090000Y-103235000I2500000J0D01*
G01*
%TD*%
M02*
