%TF.GenerationSoftware,KiCad,Pcbnew,9.0.2*%
%TF.CreationDate,2025-06-18T17:22:37-04:00*%
%TF.ProjectId,CVISS_IMU_Tracker_Board,43564953-535f-4494-9d55-5f547261636b,rev?*%
%TF.SameCoordinates,Original*%
%TF.FileFunction,Legend,Bot*%
%TF.FilePolarity,Positive*%
%FSLAX46Y46*%
G04 Gerber Fmt 4.6, Leading zero omitted, Abs format (unit mm)*
G04 Created by KiCad (PCBNEW 9.0.2) date 2025-06-18 17:22:37*
%MOMM*%
%LPD*%
G01*
G04 APERTURE LIST*
%ADD10C,0.100000*%
%ADD11C,2.000000*%
G04 APERTURE END LIST*
D10*
X183916115Y-121122419D02*
X183916115Y-120122419D01*
X183916115Y-120122419D02*
X183344687Y-121122419D01*
X183344687Y-121122419D02*
X183344687Y-120122419D01*
X182725639Y-121122419D02*
X182820877Y-121074800D01*
X182820877Y-121074800D02*
X182868496Y-121027180D01*
X182868496Y-121027180D02*
X182916115Y-120931942D01*
X182916115Y-120931942D02*
X182916115Y-120646228D01*
X182916115Y-120646228D02*
X182868496Y-120550990D01*
X182868496Y-120550990D02*
X182820877Y-120503371D01*
X182820877Y-120503371D02*
X182725639Y-120455752D01*
X182725639Y-120455752D02*
X182582782Y-120455752D01*
X182582782Y-120455752D02*
X182487544Y-120503371D01*
X182487544Y-120503371D02*
X182439925Y-120550990D01*
X182439925Y-120550990D02*
X182392306Y-120646228D01*
X182392306Y-120646228D02*
X182392306Y-120931942D01*
X182392306Y-120931942D02*
X182439925Y-121027180D01*
X182439925Y-121027180D02*
X182487544Y-121074800D01*
X182487544Y-121074800D02*
X182582782Y-121122419D01*
X182582782Y-121122419D02*
X182725639Y-121122419D01*
X181535163Y-121122419D02*
X181535163Y-120598609D01*
X181535163Y-120598609D02*
X181582782Y-120503371D01*
X181582782Y-120503371D02*
X181678020Y-120455752D01*
X181678020Y-120455752D02*
X181868496Y-120455752D01*
X181868496Y-120455752D02*
X181963734Y-120503371D01*
X181535163Y-121074800D02*
X181630401Y-121122419D01*
X181630401Y-121122419D02*
X181868496Y-121122419D01*
X181868496Y-121122419D02*
X181963734Y-121074800D01*
X181963734Y-121074800D02*
X182011353Y-120979561D01*
X182011353Y-120979561D02*
X182011353Y-120884323D01*
X182011353Y-120884323D02*
X181963734Y-120789085D01*
X181963734Y-120789085D02*
X181868496Y-120741466D01*
X181868496Y-120741466D02*
X181630401Y-120741466D01*
X181630401Y-120741466D02*
X181535163Y-120693847D01*
X181058972Y-121122419D02*
X181058972Y-120122419D01*
X180630401Y-121122419D02*
X180630401Y-120598609D01*
X180630401Y-120598609D02*
X180678020Y-120503371D01*
X180678020Y-120503371D02*
X180773258Y-120455752D01*
X180773258Y-120455752D02*
X180916115Y-120455752D01*
X180916115Y-120455752D02*
X181011353Y-120503371D01*
X181011353Y-120503371D02*
X181058972Y-120550990D01*
X179201829Y-120646228D02*
X179201829Y-121122419D01*
X179535162Y-120122419D02*
X179201829Y-120646228D01*
X179201829Y-120646228D02*
X178868496Y-120122419D01*
X178106591Y-121122419D02*
X178106591Y-120598609D01*
X178106591Y-120598609D02*
X178154210Y-120503371D01*
X178154210Y-120503371D02*
X178249448Y-120455752D01*
X178249448Y-120455752D02*
X178439924Y-120455752D01*
X178439924Y-120455752D02*
X178535162Y-120503371D01*
X178106591Y-121074800D02*
X178201829Y-121122419D01*
X178201829Y-121122419D02*
X178439924Y-121122419D01*
X178439924Y-121122419D02*
X178535162Y-121074800D01*
X178535162Y-121074800D02*
X178582781Y-120979561D01*
X178582781Y-120979561D02*
X178582781Y-120884323D01*
X178582781Y-120884323D02*
X178535162Y-120789085D01*
X178535162Y-120789085D02*
X178439924Y-120741466D01*
X178439924Y-120741466D02*
X178201829Y-120741466D01*
X178201829Y-120741466D02*
X178106591Y-120693847D01*
X177201829Y-121074800D02*
X177297067Y-121122419D01*
X177297067Y-121122419D02*
X177487543Y-121122419D01*
X177487543Y-121122419D02*
X177582781Y-121074800D01*
X177582781Y-121074800D02*
X177630400Y-121027180D01*
X177630400Y-121027180D02*
X177678019Y-120931942D01*
X177678019Y-120931942D02*
X177678019Y-120646228D01*
X177678019Y-120646228D02*
X177630400Y-120550990D01*
X177630400Y-120550990D02*
X177582781Y-120503371D01*
X177582781Y-120503371D02*
X177487543Y-120455752D01*
X177487543Y-120455752D02*
X177297067Y-120455752D01*
X177297067Y-120455752D02*
X177201829Y-120503371D01*
X176630400Y-121122419D02*
X176725638Y-121074800D01*
X176725638Y-121074800D02*
X176773257Y-121027180D01*
X176773257Y-121027180D02*
X176820876Y-120931942D01*
X176820876Y-120931942D02*
X176820876Y-120646228D01*
X176820876Y-120646228D02*
X176773257Y-120550990D01*
X176773257Y-120550990D02*
X176725638Y-120503371D01*
X176725638Y-120503371D02*
X176630400Y-120455752D01*
X176630400Y-120455752D02*
X176487543Y-120455752D01*
X176487543Y-120455752D02*
X176392305Y-120503371D01*
X176392305Y-120503371D02*
X176344686Y-120550990D01*
X176344686Y-120550990D02*
X176297067Y-120646228D01*
X176297067Y-120646228D02*
X176297067Y-120931942D01*
X176297067Y-120931942D02*
X176344686Y-121027180D01*
X176344686Y-121027180D02*
X176392305Y-121074800D01*
X176392305Y-121074800D02*
X176487543Y-121122419D01*
X176487543Y-121122419D02*
X176630400Y-121122419D01*
X175963733Y-120455752D02*
X175773257Y-121122419D01*
X175773257Y-121122419D02*
X175582781Y-120646228D01*
X175582781Y-120646228D02*
X175392305Y-121122419D01*
X175392305Y-121122419D02*
X175201829Y-120455752D01*
X174392305Y-121122419D02*
X174392305Y-120598609D01*
X174392305Y-120598609D02*
X174439924Y-120503371D01*
X174439924Y-120503371D02*
X174535162Y-120455752D01*
X174535162Y-120455752D02*
X174725638Y-120455752D01*
X174725638Y-120455752D02*
X174820876Y-120503371D01*
X174392305Y-121074800D02*
X174487543Y-121122419D01*
X174487543Y-121122419D02*
X174725638Y-121122419D01*
X174725638Y-121122419D02*
X174820876Y-121074800D01*
X174820876Y-121074800D02*
X174868495Y-120979561D01*
X174868495Y-120979561D02*
X174868495Y-120884323D01*
X174868495Y-120884323D02*
X174820876Y-120789085D01*
X174820876Y-120789085D02*
X174725638Y-120741466D01*
X174725638Y-120741466D02*
X174487543Y-120741466D01*
X174487543Y-120741466D02*
X174392305Y-120693847D01*
X173916114Y-121122419D02*
X173916114Y-120455752D01*
X173916114Y-120646228D02*
X173868495Y-120550990D01*
X173868495Y-120550990D02*
X173820876Y-120503371D01*
X173820876Y-120503371D02*
X173725638Y-120455752D01*
X173725638Y-120455752D02*
X173630400Y-120455752D01*
X172535161Y-120741466D02*
X171773257Y-120741466D01*
X170678018Y-120122419D02*
X170106590Y-120122419D01*
X170392304Y-121122419D02*
X170392304Y-120122419D01*
X169773256Y-121122419D02*
X169773256Y-120122419D01*
X169344685Y-121122419D02*
X169344685Y-120598609D01*
X169344685Y-120598609D02*
X169392304Y-120503371D01*
X169392304Y-120503371D02*
X169487542Y-120455752D01*
X169487542Y-120455752D02*
X169630399Y-120455752D01*
X169630399Y-120455752D02*
X169725637Y-120503371D01*
X169725637Y-120503371D02*
X169773256Y-120550990D01*
X168487542Y-121074800D02*
X168582780Y-121122419D01*
X168582780Y-121122419D02*
X168773256Y-121122419D01*
X168773256Y-121122419D02*
X168868494Y-121074800D01*
X168868494Y-121074800D02*
X168916113Y-120979561D01*
X168916113Y-120979561D02*
X168916113Y-120598609D01*
X168916113Y-120598609D02*
X168868494Y-120503371D01*
X168868494Y-120503371D02*
X168773256Y-120455752D01*
X168773256Y-120455752D02*
X168582780Y-120455752D01*
X168582780Y-120455752D02*
X168487542Y-120503371D01*
X168487542Y-120503371D02*
X168439923Y-120598609D01*
X168439923Y-120598609D02*
X168439923Y-120693847D01*
X168439923Y-120693847D02*
X168916113Y-120789085D01*
X166820875Y-120455752D02*
X166820875Y-121265276D01*
X166820875Y-121265276D02*
X166868494Y-121360514D01*
X166868494Y-121360514D02*
X166916113Y-121408133D01*
X166916113Y-121408133D02*
X167011351Y-121455752D01*
X167011351Y-121455752D02*
X167154208Y-121455752D01*
X167154208Y-121455752D02*
X167249446Y-121408133D01*
X166820875Y-121074800D02*
X166916113Y-121122419D01*
X166916113Y-121122419D02*
X167106589Y-121122419D01*
X167106589Y-121122419D02*
X167201827Y-121074800D01*
X167201827Y-121074800D02*
X167249446Y-121027180D01*
X167249446Y-121027180D02*
X167297065Y-120931942D01*
X167297065Y-120931942D02*
X167297065Y-120646228D01*
X167297065Y-120646228D02*
X167249446Y-120550990D01*
X167249446Y-120550990D02*
X167201827Y-120503371D01*
X167201827Y-120503371D02*
X167106589Y-120455752D01*
X167106589Y-120455752D02*
X166916113Y-120455752D01*
X166916113Y-120455752D02*
X166820875Y-120503371D01*
X165916113Y-120455752D02*
X165916113Y-121122419D01*
X166344684Y-120455752D02*
X166344684Y-120979561D01*
X166344684Y-120979561D02*
X166297065Y-121074800D01*
X166297065Y-121074800D02*
X166201827Y-121122419D01*
X166201827Y-121122419D02*
X166058970Y-121122419D01*
X166058970Y-121122419D02*
X165963732Y-121074800D01*
X165963732Y-121074800D02*
X165916113Y-121027180D01*
X165535160Y-120455752D02*
X165297065Y-121122419D01*
X165058970Y-120455752D02*
X165297065Y-121122419D01*
X165297065Y-121122419D02*
X165392303Y-121360514D01*
X165392303Y-121360514D02*
X165439922Y-121408133D01*
X165439922Y-121408133D02*
X165535160Y-121455752D01*
X163773255Y-121122419D02*
X163868493Y-121074800D01*
X163868493Y-121074800D02*
X163916112Y-121027180D01*
X163916112Y-121027180D02*
X163963731Y-120931942D01*
X163963731Y-120931942D02*
X163963731Y-120646228D01*
X163963731Y-120646228D02*
X163916112Y-120550990D01*
X163916112Y-120550990D02*
X163868493Y-120503371D01*
X163868493Y-120503371D02*
X163773255Y-120455752D01*
X163773255Y-120455752D02*
X163630398Y-120455752D01*
X163630398Y-120455752D02*
X163535160Y-120503371D01*
X163535160Y-120503371D02*
X163487541Y-120550990D01*
X163487541Y-120550990D02*
X163439922Y-120646228D01*
X163439922Y-120646228D02*
X163439922Y-120931942D01*
X163439922Y-120931942D02*
X163487541Y-121027180D01*
X163487541Y-121027180D02*
X163535160Y-121074800D01*
X163535160Y-121074800D02*
X163630398Y-121122419D01*
X163630398Y-121122419D02*
X163773255Y-121122419D01*
X163154207Y-120455752D02*
X162773255Y-120455752D01*
X163011350Y-121122419D02*
X163011350Y-120265276D01*
X163011350Y-120265276D02*
X162963731Y-120170038D01*
X162963731Y-120170038D02*
X162868493Y-120122419D01*
X162868493Y-120122419D02*
X162773255Y-120122419D01*
X161249445Y-121122419D02*
X161249445Y-120598609D01*
X161249445Y-120598609D02*
X161297064Y-120503371D01*
X161297064Y-120503371D02*
X161392302Y-120455752D01*
X161392302Y-120455752D02*
X161582778Y-120455752D01*
X161582778Y-120455752D02*
X161678016Y-120503371D01*
X161249445Y-121074800D02*
X161344683Y-121122419D01*
X161344683Y-121122419D02*
X161582778Y-121122419D01*
X161582778Y-121122419D02*
X161678016Y-121074800D01*
X161678016Y-121074800D02*
X161725635Y-120979561D01*
X161725635Y-120979561D02*
X161725635Y-120884323D01*
X161725635Y-120884323D02*
X161678016Y-120789085D01*
X161678016Y-120789085D02*
X161582778Y-120741466D01*
X161582778Y-120741466D02*
X161344683Y-120741466D01*
X161344683Y-120741466D02*
X161249445Y-120693847D01*
X160630397Y-121122419D02*
X160725635Y-121074800D01*
X160725635Y-121074800D02*
X160773254Y-120979561D01*
X160773254Y-120979561D02*
X160773254Y-120122419D01*
X160106587Y-121122419D02*
X160201825Y-121074800D01*
X160201825Y-121074800D02*
X160249444Y-120979561D01*
X160249444Y-120979561D02*
X160249444Y-120122419D01*
X159106586Y-120455752D02*
X158725634Y-120455752D01*
X158963729Y-120122419D02*
X158963729Y-120979561D01*
X158963729Y-120979561D02*
X158916110Y-121074800D01*
X158916110Y-121074800D02*
X158820872Y-121122419D01*
X158820872Y-121122419D02*
X158725634Y-121122419D01*
X158392300Y-121122419D02*
X158392300Y-120455752D01*
X158392300Y-120122419D02*
X158439919Y-120170038D01*
X158439919Y-120170038D02*
X158392300Y-120217657D01*
X158392300Y-120217657D02*
X158344681Y-120170038D01*
X158344681Y-120170038D02*
X158392300Y-120122419D01*
X158392300Y-120122419D02*
X158392300Y-120217657D01*
X157916110Y-121122419D02*
X157916110Y-120455752D01*
X157916110Y-120550990D02*
X157868491Y-120503371D01*
X157868491Y-120503371D02*
X157773253Y-120455752D01*
X157773253Y-120455752D02*
X157630396Y-120455752D01*
X157630396Y-120455752D02*
X157535158Y-120503371D01*
X157535158Y-120503371D02*
X157487539Y-120598609D01*
X157487539Y-120598609D02*
X157487539Y-121122419D01*
X157487539Y-120598609D02*
X157439920Y-120503371D01*
X157439920Y-120503371D02*
X157344682Y-120455752D01*
X157344682Y-120455752D02*
X157201825Y-120455752D01*
X157201825Y-120455752D02*
X157106586Y-120503371D01*
X157106586Y-120503371D02*
X157058967Y-120598609D01*
X157058967Y-120598609D02*
X157058967Y-121122419D01*
X156201825Y-121074800D02*
X156297063Y-121122419D01*
X156297063Y-121122419D02*
X156487539Y-121122419D01*
X156487539Y-121122419D02*
X156582777Y-121074800D01*
X156582777Y-121074800D02*
X156630396Y-120979561D01*
X156630396Y-120979561D02*
X156630396Y-120598609D01*
X156630396Y-120598609D02*
X156582777Y-120503371D01*
X156582777Y-120503371D02*
X156487539Y-120455752D01*
X156487539Y-120455752D02*
X156297063Y-120455752D01*
X156297063Y-120455752D02*
X156201825Y-120503371D01*
X156201825Y-120503371D02*
X156154206Y-120598609D01*
X156154206Y-120598609D02*
X156154206Y-120693847D01*
X156154206Y-120693847D02*
X156630396Y-120789085D01*
X139561353Y-106697657D02*
X140989925Y-106697657D01*
X140989925Y-106697657D02*
X140989925Y-103697657D01*
X138704211Y-105840514D02*
X137275640Y-105840514D01*
X138989925Y-106697657D02*
X137989925Y-103697657D01*
X137989925Y-103697657D02*
X136989925Y-106697657D01*
X134989925Y-105126228D02*
X134561353Y-105269085D01*
X134561353Y-105269085D02*
X134418496Y-105411942D01*
X134418496Y-105411942D02*
X134275639Y-105697657D01*
X134275639Y-105697657D02*
X134275639Y-106126228D01*
X134275639Y-106126228D02*
X134418496Y-106411942D01*
X134418496Y-106411942D02*
X134561353Y-106554800D01*
X134561353Y-106554800D02*
X134847068Y-106697657D01*
X134847068Y-106697657D02*
X135989925Y-106697657D01*
X135989925Y-106697657D02*
X135989925Y-103697657D01*
X135989925Y-103697657D02*
X134989925Y-103697657D01*
X134989925Y-103697657D02*
X134704211Y-103840514D01*
X134704211Y-103840514D02*
X134561353Y-103983371D01*
X134561353Y-103983371D02*
X134418496Y-104269085D01*
X134418496Y-104269085D02*
X134418496Y-104554800D01*
X134418496Y-104554800D02*
X134561353Y-104840514D01*
X134561353Y-104840514D02*
X134704211Y-104983371D01*
X134704211Y-104983371D02*
X134989925Y-105126228D01*
X134989925Y-105126228D02*
X135989925Y-105126228D01*
D11*
G36*
X177249951Y-101610000D02*
G01*
X175466978Y-101610000D01*
X174612128Y-99304347D01*
X171098084Y-99304347D01*
X170230411Y-101610000D01*
X168460872Y-101610000D01*
X169934118Y-97897508D01*
X171628091Y-97897508D01*
X174090059Y-97897508D01*
X173738349Y-97061587D01*
X172887773Y-94653963D01*
X172848695Y-94653963D01*
X171983464Y-97065251D01*
X171628091Y-97897508D01*
X169934118Y-97897508D01*
X172089710Y-92465547D01*
X173621113Y-92465547D01*
X177249951Y-101610000D01*
G37*
G36*
X167172491Y-101610000D02*
G01*
X167172491Y-92465547D01*
X165492100Y-92465547D01*
X165492100Y-101610000D01*
X167172491Y-101610000D01*
G37*
G36*
X160705551Y-97428562D02*
G01*
X157693426Y-97428562D01*
X157693426Y-98913558D01*
X160705551Y-98913558D01*
X160705551Y-97428562D01*
G37*
G36*
X148196043Y-99156580D02*
G01*
X147866836Y-98061281D01*
X147450491Y-96839937D01*
X145871461Y-92465547D01*
X143520013Y-92465547D01*
X143520013Y-101610000D01*
X145200404Y-101610000D01*
X145200404Y-96976713D01*
X145117972Y-94611831D01*
X145179644Y-94611831D01*
X145452585Y-95486831D01*
X145780481Y-96443653D01*
X147669699Y-101610000D01*
X148749253Y-101610000D01*
X150638471Y-96443653D01*
X150966367Y-95486831D01*
X151239309Y-94611831D01*
X151300369Y-94611831D01*
X151238224Y-95856151D01*
X151218548Y-96969385D01*
X151218548Y-101610000D01*
X152898939Y-101610000D01*
X152898939Y-92465547D01*
X150560924Y-92465547D01*
X148981894Y-96819176D01*
X148603202Y-97929149D01*
X148236953Y-99156580D01*
X148196043Y-99156580D01*
G37*
G36*
X137551939Y-101766315D02*
G01*
X138251028Y-101729592D01*
X138846427Y-101626486D01*
X139396726Y-101452266D01*
X139860034Y-101224096D01*
X140268020Y-100930280D01*
X140606807Y-100582348D01*
X140882428Y-100181544D01*
X141099567Y-99726277D01*
X141227226Y-99330561D01*
X141315722Y-98879975D01*
X141363389Y-98402430D01*
X141380446Y-97842554D01*
X141380446Y-92465547D01*
X139700055Y-92465547D01*
X139700055Y-97696008D01*
X139669419Y-98344314D01*
X139587645Y-98839844D01*
X139467414Y-99212145D01*
X139260568Y-99589900D01*
X139008131Y-99878198D01*
X138707819Y-100090198D01*
X138176946Y-100289138D01*
X137531179Y-100359476D01*
X136885412Y-100289138D01*
X136354539Y-100090198D01*
X136054227Y-99878198D01*
X135801790Y-99589900D01*
X135594944Y-99212145D01*
X135474713Y-98839844D01*
X135392939Y-98344314D01*
X135362302Y-97696008D01*
X135362302Y-92465547D01*
X133681912Y-92465547D01*
X133681912Y-97842554D01*
X133699129Y-98402418D01*
X133747247Y-98879975D01*
X133835277Y-99330549D01*
X133962791Y-99726277D01*
X134180844Y-100181257D01*
X134459825Y-100582348D01*
X134802838Y-100929754D01*
X135220031Y-101224096D01*
X135692629Y-101452380D01*
X136250736Y-101626486D01*
X136851594Y-101729681D01*
X137551939Y-101766315D01*
G37*
M02*
