%TF.GenerationSoftware,KiCad,Pcbnew,9.0.2*%
%TF.CreationDate,2025-06-18T17:22:37-04:00*%
%TF.ProjectId,CVISS_IMU_Tracker_Board,43564953-535f-4494-9d55-5f547261636b,rev?*%
%TF.SameCoordinates,Original*%
%TF.FileFunction,Soldermask,Bot*%
%TF.FilePolarity,Negative*%
%FSLAX46Y46*%
G04 Gerber Fmt 4.6, Leading zero omitted, Abs format (unit mm)*
G04 Created by KiCad (PCBNEW 9.0.2) date 2025-06-18 17:22:37*
%MOMM*%
%LPD*%
G01*
G04 APERTURE LIST*
G04 Aperture macros list*
%AMRoundRect*
0 Rectangle with rounded corners*
0 $1 Rounding radius*
0 $2 $3 $4 $5 $6 $7 $8 $9 X,Y pos of 4 corners*
0 Add a 4 corners polygon primitive as box body*
4,1,4,$2,$3,$4,$5,$6,$7,$8,$9,$2,$3,0*
0 Add four circle primitives for the rounded corners*
1,1,$1+$1,$2,$3*
1,1,$1+$1,$4,$5*
1,1,$1+$1,$6,$7*
1,1,$1+$1,$8,$9*
0 Add four rect primitives between the rounded corners*
20,1,$1+$1,$2,$3,$4,$5,0*
20,1,$1+$1,$4,$5,$6,$7,0*
20,1,$1+$1,$6,$7,$8,$9,0*
20,1,$1+$1,$8,$9,$2,$3,0*%
G04 Aperture macros list end*
%ADD10C,1.530000*%
%ADD11O,3.000000X2.000000*%
%ADD12C,2.200000*%
%ADD13RoundRect,0.249999X-0.850001X-0.850001X0.850001X-0.850001X0.850001X0.850001X-0.850001X0.850001X0*%
%ADD14C,1.600000*%
%ADD15RoundRect,0.249999X-0.850001X0.850001X-0.850001X-0.850001X0.850001X-0.850001X0.850001X0.850001X0*%
%ADD16R,2.000000X2.000000*%
%ADD17O,2.000000X1.600000*%
%ADD18R,1.800000X1.800000*%
%ADD19C,1.800000*%
G04 APERTURE END LIST*
D10*
%TO.C,U2*%
X181280000Y-102700000D03*
X178740000Y-102700000D03*
X176200000Y-102700000D03*
X173660000Y-102700000D03*
X171120000Y-102700000D03*
X168580000Y-102700000D03*
X166040000Y-102700000D03*
X163500000Y-102700000D03*
X160960000Y-102700000D03*
X158420000Y-102700000D03*
%TD*%
D11*
%TO.C,SW1*%
X125910000Y-87930000D03*
D10*
X125910000Y-90080000D03*
D11*
X125910000Y-96230000D03*
D10*
X125910000Y-94080000D03*
X125910000Y-92080000D03*
%TD*%
D12*
%TO.C,D8*%
X141730000Y-86200000D03*
D13*
X131570000Y-86200000D03*
%TD*%
D14*
%TO.C,R2*%
X159150000Y-86100000D03*
X166770000Y-86100000D03*
%TD*%
D15*
%TO.C,D7*%
X128300000Y-109280000D03*
D12*
X128300000Y-119440000D03*
%TD*%
D16*
%TO.C,U1*%
X131905000Y-96570000D03*
D17*
X131905000Y-99110000D03*
X131905000Y-101650000D03*
X131905000Y-104190000D03*
X131905000Y-106730000D03*
X131905000Y-109270000D03*
X131905000Y-111810000D03*
X131905000Y-114350000D03*
X154765000Y-114350000D03*
X154765000Y-111810000D03*
X154765000Y-109270000D03*
X154765000Y-106730000D03*
X154765000Y-104190000D03*
X154765000Y-101650000D03*
X154765000Y-99110000D03*
X154765000Y-96570000D03*
%TD*%
D14*
%TO.C,R4*%
X159520000Y-117600000D03*
X159520000Y-109980000D03*
%TD*%
D13*
%TO.C,D1*%
X144990000Y-86210000D03*
D12*
X155150000Y-86210000D03*
%TD*%
D15*
%TO.C,D6*%
X124910000Y-109280000D03*
D12*
X124910000Y-119440000D03*
%TD*%
D14*
%TO.C,R1*%
X170420000Y-86100000D03*
X178040000Y-86100000D03*
%TD*%
D18*
%TO.C,D9*%
X126590000Y-104505000D03*
D19*
X126590000Y-101965000D03*
%TD*%
M02*
