%TF.GenerationSoftware,KiCad,Pcbnew,9.0.2*%
%TF.CreationDate,2025-06-18T17:22:37-04:00*%
%TF.ProjectId,CVISS_IMU_Tracker_Board,43564953-535f-4494-9d55-5f547261636b,rev?*%
%TF.SameCoordinates,Original*%
%TF.FileFunction,Copper,L2,Bot*%
%TF.FilePolarity,Positive*%
%FSLAX46Y46*%
G04 Gerber Fmt 4.6, Leading zero omitted, Abs format (unit mm)*
G04 Created by KiCad (PCBNEW 9.0.2) date 2025-06-18 17:22:37*
%MOMM*%
%LPD*%
G01*
G04 APERTURE LIST*
G04 Aperture macros list*
%AMRoundRect*
0 Rectangle with rounded corners*
0 $1 Rounding radius*
0 $2 $3 $4 $5 $6 $7 $8 $9 X,Y pos of 4 corners*
0 Add a 4 corners polygon primitive as box body*
4,1,4,$2,$3,$4,$5,$6,$7,$8,$9,$2,$3,0*
0 Add four circle primitives for the rounded corners*
1,1,$1+$1,$2,$3*
1,1,$1+$1,$4,$5*
1,1,$1+$1,$6,$7*
1,1,$1+$1,$8,$9*
0 Add four rect primitives between the rounded corners*
20,1,$1+$1,$2,$3,$4,$5,0*
20,1,$1+$1,$4,$5,$6,$7,0*
20,1,$1+$1,$6,$7,$8,$9,0*
20,1,$1+$1,$8,$9,$2,$3,0*%
G04 Aperture macros list end*
%TA.AperFunction,ComponentPad*%
%ADD10C,1.530000*%
%TD*%
%TA.AperFunction,ComponentPad*%
%ADD11O,3.000000X2.000000*%
%TD*%
%TA.AperFunction,ComponentPad*%
%ADD12C,2.200000*%
%TD*%
%TA.AperFunction,ComponentPad*%
%ADD13RoundRect,0.249999X-0.850001X-0.850001X0.850001X-0.850001X0.850001X0.850001X-0.850001X0.850001X0*%
%TD*%
%TA.AperFunction,ComponentPad*%
%ADD14C,1.600000*%
%TD*%
%TA.AperFunction,ComponentPad*%
%ADD15RoundRect,0.249999X-0.850001X0.850001X-0.850001X-0.850001X0.850001X-0.850001X0.850001X0.850001X0*%
%TD*%
%TA.AperFunction,ComponentPad*%
%ADD16R,2.000000X2.000000*%
%TD*%
%TA.AperFunction,ComponentPad*%
%ADD17O,2.000000X1.600000*%
%TD*%
%TA.AperFunction,ComponentPad*%
%ADD18R,1.800000X1.800000*%
%TD*%
%TA.AperFunction,ComponentPad*%
%ADD19C,1.800000*%
%TD*%
%TA.AperFunction,ViaPad*%
%ADD20C,1.000000*%
%TD*%
%TA.AperFunction,ViaPad*%
%ADD21C,0.650000*%
%TD*%
%TA.AperFunction,Conductor*%
%ADD22C,0.250000*%
%TD*%
%TA.AperFunction,Conductor*%
%ADD23C,0.600000*%
%TD*%
G04 APERTURE END LIST*
D10*
%TO.P,U2,10,PS0*%
%TO.N,unconnected-(U2-PS0-Pad10)*%
X181280000Y-102700000D03*
%TO.P,U2,9,PS1*%
%TO.N,unconnected-(U2-PS1-Pad9)*%
X178740000Y-102700000D03*
%TO.P,U2,8,RST*%
%TO.N,unconnected-(U2-RST-Pad8)*%
X176200000Y-102700000D03*
%TO.P,U2,7,INT*%
%TO.N,/INT*%
X173660000Y-102700000D03*
%TO.P,U2,6,CS*%
%TO.N,unconnected-(U2-CS-Pad6)*%
X171120000Y-102700000D03*
%TO.P,U2,5,ADO*%
%TO.N,/SW_GND*%
X168580000Y-102700000D03*
%TO.P,U2,4,SDA*%
%TO.N,/SDA*%
X166040000Y-102700000D03*
%TO.P,U2,3,SCL*%
%TO.N,/SCL*%
X163500000Y-102700000D03*
%TO.P,U2,2,GND*%
%TO.N,/SW_GND*%
X160960000Y-102700000D03*
%TO.P,U2,1,VCC*%
%TO.N,+3.3V*%
X158420000Y-102700000D03*
%TD*%
D11*
%TO.P,SW1,5*%
%TO.N,N/C*%
X125910000Y-87930000D03*
D10*
%TO.P,SW1,4*%
X125910000Y-90080000D03*
D11*
%TO.P,SW1,3*%
X125910000Y-96230000D03*
D10*
%TO.P,SW1,2,B*%
%TO.N,/SW_GND*%
X125910000Y-94080000D03*
%TO.P,SW1,1,A*%
%TO.N,GND*%
X125910000Y-92080000D03*
%TD*%
D12*
%TO.P,D8,2,A*%
%TO.N,/PWR_LED*%
X141730000Y-86200000D03*
D13*
%TO.P,D8,1,K*%
%TO.N,/GP_LED*%
X131570000Y-86200000D03*
%TD*%
D14*
%TO.P,R2,2*%
%TO.N,Net-(D1-A)*%
X159150000Y-86100000D03*
%TO.P,R2,1*%
%TO.N,Net-(U1-MOSI{slash}D7)*%
X166770000Y-86100000D03*
%TD*%
D15*
%TO.P,D7,1,K*%
%TO.N,+5V*%
X128300000Y-109280000D03*
D12*
%TO.P,D7,2,A*%
%TO.N,/OUT+*%
X128300000Y-119440000D03*
%TD*%
D16*
%TO.P,U1,1,~{RST}*%
%TO.N,unconnected-(U1-~{RST}-Pad1)*%
X131905000Y-96570000D03*
D17*
%TO.P,U1,2,A0*%
%TO.N,Net-(U1-A0)*%
X131905000Y-99110000D03*
%TO.P,U1,3,D0*%
%TO.N,unconnected-(U1-D0-Pad3)*%
X131905000Y-101650000D03*
%TO.P,U1,4,SCK/D5*%
%TO.N,unconnected-(U1-SCK{slash}D5-Pad4)*%
X131905000Y-104190000D03*
%TO.P,U1,5,MISO/D6*%
%TO.N,/INT*%
X131905000Y-106730000D03*
%TO.P,U1,6,MOSI/D7*%
%TO.N,Net-(U1-MOSI{slash}D7)*%
X131905000Y-109270000D03*
%TO.P,U1,7,CS/D8*%
%TO.N,unconnected-(U1-CS{slash}D8-Pad7)*%
X131905000Y-111810000D03*
%TO.P,U1,8,3V3*%
%TO.N,+3.3V*%
X131905000Y-114350000D03*
%TO.P,U1,9,5V*%
%TO.N,+5V*%
X154765000Y-114350000D03*
%TO.P,U1,10,GND*%
%TO.N,/SW_GND*%
X154765000Y-111810000D03*
%TO.P,U1,11,D4*%
%TO.N,unconnected-(U1-D4-Pad11)*%
X154765000Y-109270000D03*
%TO.P,U1,12,D3*%
%TO.N,unconnected-(U1-D3-Pad12)*%
X154765000Y-106730000D03*
%TO.P,U1,13,SDA/D2*%
%TO.N,/SDA*%
X154765000Y-104190000D03*
%TO.P,U1,14,SCL/D1*%
%TO.N,/SCL*%
X154765000Y-101650000D03*
%TO.P,U1,15,RX*%
%TO.N,unconnected-(U1-RX-Pad15)*%
X154765000Y-99110000D03*
%TO.P,U1,16,TX*%
%TO.N,unconnected-(U1-TX-Pad16)*%
X154765000Y-96570000D03*
%TD*%
D14*
%TO.P,R4,1*%
%TO.N,/IN+*%
X159520000Y-117600000D03*
%TO.P,R4,2*%
%TO.N,/PWR_LED*%
X159520000Y-109980000D03*
%TD*%
D13*
%TO.P,D1,1,K*%
%TO.N,/GP_LED*%
X144990000Y-86210000D03*
D12*
%TO.P,D1,2,A*%
%TO.N,Net-(D1-A)*%
X155150000Y-86210000D03*
%TD*%
D15*
%TO.P,D6,1,K*%
%TO.N,+5V*%
X124910000Y-109280000D03*
D12*
%TO.P,D6,2,A*%
%TO.N,/IN+*%
X124910000Y-119440000D03*
%TD*%
D14*
%TO.P,R1,1*%
%TO.N,Net-(U1-A0)*%
X170420000Y-86100000D03*
%TO.P,R1,2*%
%TO.N,/B+*%
X178040000Y-86100000D03*
%TD*%
D18*
%TO.P,D9,1,K*%
%TO.N,GND*%
X126590000Y-104505000D03*
D19*
%TO.P,D9,2,A*%
%TO.N,/GP_LED*%
X126590000Y-101965000D03*
%TD*%
D20*
%TO.N,GND*%
X185585000Y-107005000D03*
D21*
%TO.N,Net-(U1-A0)*%
X162485000Y-93985000D03*
%TO.N,Net-(U1-MOSI{slash}D7)*%
X162360000Y-90510000D03*
X143510000Y-109260000D03*
X143510000Y-95495000D03*
%TO.N,/B+*%
X186490000Y-91040000D03*
D20*
%TO.N,GND*%
X162885000Y-107005000D03*
X162885000Y-110205000D03*
%TO.N,/IN+*%
X185585000Y-120705000D03*
%TD*%
D22*
%TO.N,/GP_LED*%
X129230000Y-99325000D02*
X126590000Y-101965000D01*
X129690000Y-86200000D02*
X129230000Y-86660000D01*
X131570000Y-86200000D02*
X129690000Y-86200000D01*
X129230000Y-86660000D02*
X129230000Y-99325000D01*
X143606000Y-84756000D02*
X133014000Y-84756000D01*
X145000000Y-86150000D02*
X143606000Y-84756000D01*
X133014000Y-84756000D02*
X131570000Y-86200000D01*
%TO.N,Net-(D1-A)*%
X155210000Y-86100000D02*
X155160000Y-86150000D01*
X159150000Y-86100000D02*
X155210000Y-86100000D01*
D23*
%TO.N,+5V*%
X128300000Y-114270000D02*
X128300000Y-109280000D01*
X131910000Y-117880000D02*
X128300000Y-114270000D01*
X151170000Y-117880000D02*
X131910000Y-117880000D01*
X154700000Y-114350000D02*
X151170000Y-117880000D01*
D22*
%TO.N,Net-(U1-MOSI{slash}D7)*%
X143510000Y-95390000D02*
X143510000Y-95495000D01*
X157480000Y-95390000D02*
X143510000Y-95390000D01*
X162360000Y-90510000D02*
X157480000Y-95390000D01*
%TO.N,Net-(U1-A0)*%
X133031000Y-100236000D02*
X131905000Y-99110000D01*
X156284000Y-100236000D02*
X133031000Y-100236000D01*
X162485000Y-93985000D02*
X162485000Y-94035000D01*
X162485000Y-94035000D02*
X156284000Y-100236000D01*
%TO.N,Net-(U1-MOSI{slash}D7)*%
X143500000Y-109270000D02*
X131905000Y-109270000D01*
X143510000Y-109260000D02*
X143500000Y-109270000D01*
%TO.N,/INT*%
X133195000Y-105440000D02*
X131905000Y-106730000D01*
X170920000Y-105440000D02*
X133195000Y-105440000D01*
X173660000Y-102700000D02*
X170920000Y-105440000D01*
%TO.N,/SDA*%
X166040000Y-102700000D02*
X164550000Y-104190000D01*
X164550000Y-104190000D02*
X154765000Y-104190000D01*
%TO.N,/SCL*%
X154955000Y-101460000D02*
X154765000Y-101650000D01*
X162577810Y-101460000D02*
X154955000Y-101460000D01*
X163500000Y-102382190D02*
X162577810Y-101460000D01*
X163500000Y-102700000D02*
X163500000Y-102382190D01*
%TO.N,/B+*%
X186490000Y-91040000D02*
X182980000Y-91040000D01*
X182980000Y-91040000D02*
X178040000Y-86100000D01*
D23*
%TO.N,/IN+*%
X124920000Y-119430000D02*
X124910000Y-119440000D01*
D22*
%TO.N,+5V*%
X154765000Y-114350000D02*
X154700000Y-114350000D01*
D23*
%TO.N,/IN+*%
X159480000Y-121980000D02*
X185560000Y-121980000D01*
D22*
X159520000Y-121940000D02*
X159480000Y-121980000D01*
X159520000Y-117600000D02*
X159520000Y-121940000D01*
D23*
X185585000Y-121955000D02*
X185585000Y-120705000D01*
X158760000Y-121980000D02*
X159480000Y-121980000D01*
X185560000Y-121980000D02*
X185585000Y-121955000D01*
X125020000Y-121980000D02*
X124910000Y-121870000D01*
X124910000Y-121870000D02*
X124910000Y-119440000D01*
X158760000Y-121980000D02*
X125020000Y-121980000D01*
%TD*%
%TA.AperFunction,Conductor*%
%TO.N,GND*%
G36*
X130145809Y-84650185D02*
G01*
X130191564Y-84702989D01*
X130201508Y-84772147D01*
X130172483Y-84835703D01*
X130166451Y-84842181D01*
X130127289Y-84881342D01*
X130035187Y-85030662D01*
X130035185Y-85030667D01*
X130031372Y-85042175D01*
X129980001Y-85197202D01*
X129980001Y-85197203D01*
X129980000Y-85197203D01*
X129969500Y-85299982D01*
X129969500Y-85450500D01*
X129949815Y-85517539D01*
X129897011Y-85563294D01*
X129845500Y-85574500D01*
X129751607Y-85574500D01*
X129628393Y-85574500D01*
X129600438Y-85580060D01*
X129572482Y-85585621D01*
X129572481Y-85585620D01*
X129507554Y-85598535D01*
X129507545Y-85598538D01*
X129393716Y-85645687D01*
X129393707Y-85645692D01*
X129291268Y-85714140D01*
X129247705Y-85757703D01*
X129204142Y-85801267D01*
X128744141Y-86261267D01*
X128732904Y-86278085D01*
X128732899Y-86278092D01*
X128729987Y-86282452D01*
X128675688Y-86363714D01*
X128648439Y-86429500D01*
X128645787Y-86435901D01*
X128645785Y-86435906D01*
X128628538Y-86477544D01*
X128628535Y-86477556D01*
X128604500Y-86598389D01*
X128604500Y-99014547D01*
X128584815Y-99081586D01*
X128568181Y-99102228D01*
X127087518Y-100582890D01*
X127026195Y-100616375D01*
X126961521Y-100613141D01*
X126917950Y-100598984D01*
X126734706Y-100569961D01*
X126700222Y-100564500D01*
X126479778Y-100564500D01*
X126407201Y-100575995D01*
X126262047Y-100598985D01*
X126052396Y-100667103D01*
X126052393Y-100667104D01*
X125855974Y-100767187D01*
X125677641Y-100896752D01*
X125677636Y-100896756D01*
X125521756Y-101052636D01*
X125521752Y-101052641D01*
X125392187Y-101230974D01*
X125292104Y-101427393D01*
X125292103Y-101427396D01*
X125223985Y-101637047D01*
X125208513Y-101734733D01*
X125189500Y-101854778D01*
X125189500Y-102075222D01*
X125201220Y-102149219D01*
X125223985Y-102292952D01*
X125292103Y-102502603D01*
X125292104Y-102502606D01*
X125392187Y-102699025D01*
X125521752Y-102877358D01*
X125521756Y-102877363D01*
X125572316Y-102927923D01*
X125605801Y-102989246D01*
X125600817Y-103058938D01*
X125558945Y-103114871D01*
X125527969Y-103131785D01*
X125447918Y-103161643D01*
X125447906Y-103161649D01*
X125332812Y-103247809D01*
X125332809Y-103247812D01*
X125246649Y-103362906D01*
X125246645Y-103362913D01*
X125196403Y-103497620D01*
X125196401Y-103497627D01*
X125190000Y-103557155D01*
X125190000Y-104255000D01*
X126214722Y-104255000D01*
X126170667Y-104331306D01*
X126140000Y-104445756D01*
X126140000Y-104564244D01*
X126170667Y-104678694D01*
X126214722Y-104755000D01*
X125190000Y-104755000D01*
X125190000Y-105452844D01*
X125196401Y-105512372D01*
X125196403Y-105512379D01*
X125246645Y-105647086D01*
X125246649Y-105647093D01*
X125332809Y-105762187D01*
X125332812Y-105762190D01*
X125447906Y-105848350D01*
X125447913Y-105848354D01*
X125582620Y-105898596D01*
X125582627Y-105898598D01*
X125642155Y-105904999D01*
X125642172Y-105905000D01*
X126340000Y-105905000D01*
X126340000Y-104880277D01*
X126416306Y-104924333D01*
X126530756Y-104955000D01*
X126649244Y-104955000D01*
X126763694Y-104924333D01*
X126840000Y-104880277D01*
X126840000Y-105905000D01*
X127537828Y-105905000D01*
X127537844Y-105904999D01*
X127597372Y-105898598D01*
X127597379Y-105898596D01*
X127732086Y-105848354D01*
X127732093Y-105848350D01*
X127847187Y-105762190D01*
X127847190Y-105762187D01*
X127933350Y-105647093D01*
X127933354Y-105647086D01*
X127983596Y-105512379D01*
X127983598Y-105512372D01*
X127989999Y-105452844D01*
X127990000Y-105452827D01*
X127990000Y-104755000D01*
X126965278Y-104755000D01*
X127009333Y-104678694D01*
X127040000Y-104564244D01*
X127040000Y-104445756D01*
X127009333Y-104331306D01*
X126965278Y-104255000D01*
X127990000Y-104255000D01*
X127990000Y-103557172D01*
X127989999Y-103557155D01*
X127983598Y-103497627D01*
X127983596Y-103497620D01*
X127933354Y-103362913D01*
X127933350Y-103362906D01*
X127847190Y-103247812D01*
X127847187Y-103247809D01*
X127732093Y-103161649D01*
X127732087Y-103161646D01*
X127652030Y-103131786D01*
X127596097Y-103089914D01*
X127571680Y-103024450D01*
X127586532Y-102956177D01*
X127607681Y-102927925D01*
X127658242Y-102877365D01*
X127787815Y-102699022D01*
X127887895Y-102502606D01*
X127956015Y-102292951D01*
X127990500Y-102075222D01*
X127990500Y-101854778D01*
X127956015Y-101637049D01*
X127941857Y-101593478D01*
X127939863Y-101523638D01*
X127972106Y-101467482D01*
X129628729Y-99810860D01*
X129628733Y-99810858D01*
X129715858Y-99723733D01*
X129784311Y-99621286D01*
X129784312Y-99621285D01*
X129784313Y-99621282D01*
X129784315Y-99621279D01*
X129796933Y-99590815D01*
X129831463Y-99507451D01*
X129855500Y-99386607D01*
X129855500Y-99263393D01*
X129855500Y-87515255D01*
X129875185Y-87448216D01*
X129927989Y-87402461D01*
X129997147Y-87392517D01*
X130060703Y-87421542D01*
X130085037Y-87450157D01*
X130127288Y-87518656D01*
X130251344Y-87642712D01*
X130400665Y-87734814D01*
X130567202Y-87789999D01*
X130669990Y-87800500D01*
X130669995Y-87800500D01*
X132470005Y-87800500D01*
X132470010Y-87800500D01*
X132572798Y-87789999D01*
X132739335Y-87734814D01*
X132888656Y-87642712D01*
X133012712Y-87518656D01*
X133104814Y-87369335D01*
X133159999Y-87202798D01*
X133170500Y-87100010D01*
X133170500Y-85535453D01*
X133179145Y-85506010D01*
X133185669Y-85476024D01*
X133189422Y-85471009D01*
X133190185Y-85468414D01*
X133206820Y-85447770D01*
X133236774Y-85417817D01*
X133298098Y-85384333D01*
X133324454Y-85381500D01*
X140148414Y-85381500D01*
X140215453Y-85401185D01*
X140261208Y-85453989D01*
X140271152Y-85523147D01*
X140258898Y-85561795D01*
X140246762Y-85585611D01*
X140205001Y-85714140D01*
X140168910Y-85825215D01*
X140129500Y-86074038D01*
X140129500Y-86325962D01*
X140151431Y-86464426D01*
X140168910Y-86574785D01*
X140246760Y-86814383D01*
X140361132Y-87038848D01*
X140509201Y-87242649D01*
X140509205Y-87242654D01*
X140687345Y-87420794D01*
X140687350Y-87420798D01*
X140835805Y-87528656D01*
X140891155Y-87568870D01*
X141034184Y-87641747D01*
X141115616Y-87683239D01*
X141115618Y-87683239D01*
X141115621Y-87683241D01*
X141355215Y-87761090D01*
X141604038Y-87800500D01*
X141604039Y-87800500D01*
X141855961Y-87800500D01*
X141855962Y-87800500D01*
X142104785Y-87761090D01*
X142344379Y-87683241D01*
X142568845Y-87568870D01*
X142772656Y-87420793D01*
X142950793Y-87242656D01*
X143098870Y-87038845D01*
X143155015Y-86928653D01*
X143202990Y-86877858D01*
X143270811Y-86861063D01*
X143336945Y-86883600D01*
X143380397Y-86938315D01*
X143389500Y-86984949D01*
X143389500Y-87110017D01*
X143400000Y-87212796D01*
X143455185Y-87379332D01*
X143455187Y-87379337D01*
X143486926Y-87430793D01*
X143547288Y-87528656D01*
X143671344Y-87652712D01*
X143820665Y-87744814D01*
X143987202Y-87799999D01*
X144089990Y-87810500D01*
X144089995Y-87810500D01*
X145890005Y-87810500D01*
X145890010Y-87810500D01*
X145992798Y-87799999D01*
X146159335Y-87744814D01*
X146308656Y-87652712D01*
X146432712Y-87528656D01*
X146524814Y-87379335D01*
X146579999Y-87212798D01*
X146590500Y-87110010D01*
X146590500Y-85309990D01*
X146579999Y-85207202D01*
X146524814Y-85040665D01*
X146432712Y-84891344D01*
X146383549Y-84842181D01*
X146350064Y-84780858D01*
X146355048Y-84711166D01*
X146396920Y-84655233D01*
X146462384Y-84630816D01*
X146471230Y-84630500D01*
X154219429Y-84630500D01*
X154286468Y-84650185D01*
X154332223Y-84702989D01*
X154342167Y-84772147D01*
X154313142Y-84835703D01*
X154292314Y-84854818D01*
X154107350Y-84989201D01*
X154107345Y-84989205D01*
X153929205Y-85167345D01*
X153929201Y-85167350D01*
X153781132Y-85371151D01*
X153666760Y-85595616D01*
X153592159Y-85825215D01*
X153588910Y-85835215D01*
X153549500Y-86084038D01*
X153549500Y-86335962D01*
X153578273Y-86517628D01*
X153588910Y-86584785D01*
X153666760Y-86824383D01*
X153724812Y-86938315D01*
X153776036Y-87038848D01*
X153781132Y-87048848D01*
X153929201Y-87252649D01*
X153929205Y-87252654D01*
X154107345Y-87430794D01*
X154107350Y-87430798D01*
X154285117Y-87559952D01*
X154311155Y-87578870D01*
X154436448Y-87642710D01*
X154535616Y-87693239D01*
X154535618Y-87693239D01*
X154535621Y-87693241D01*
X154775215Y-87771090D01*
X155024038Y-87810500D01*
X155024039Y-87810500D01*
X155275961Y-87810500D01*
X155275962Y-87810500D01*
X155524785Y-87771090D01*
X155764379Y-87693241D01*
X155988845Y-87578870D01*
X156192656Y-87430793D01*
X156370793Y-87252656D01*
X156518870Y-87048845D01*
X156633241Y-86824379D01*
X156637530Y-86811180D01*
X156676968Y-86753505D01*
X156741327Y-86726308D01*
X156755460Y-86725500D01*
X157933885Y-86725500D01*
X158000924Y-86745185D01*
X158033606Y-86778571D01*
X158034849Y-86777669D01*
X158158028Y-86947213D01*
X158302786Y-87091971D01*
X158455327Y-87202796D01*
X158468390Y-87212287D01*
X158547605Y-87252649D01*
X158650776Y-87305218D01*
X158650778Y-87305218D01*
X158650781Y-87305220D01*
X158755137Y-87339127D01*
X158845465Y-87368477D01*
X158914032Y-87379337D01*
X159047648Y-87400500D01*
X159047649Y-87400500D01*
X159252351Y-87400500D01*
X159252352Y-87400500D01*
X159454534Y-87368477D01*
X159649219Y-87305220D01*
X159831610Y-87212287D01*
X159972374Y-87110017D01*
X159997213Y-87091971D01*
X159997215Y-87091968D01*
X159997219Y-87091966D01*
X160141966Y-86947219D01*
X160141968Y-86947215D01*
X160141971Y-86947213D01*
X160230399Y-86825500D01*
X160262287Y-86781610D01*
X160355220Y-86599219D01*
X160418477Y-86404534D01*
X160450500Y-86202352D01*
X160450500Y-85997648D01*
X160418477Y-85795466D01*
X160355220Y-85600781D01*
X160355218Y-85600778D01*
X160355218Y-85600776D01*
X160312806Y-85517539D01*
X160262287Y-85418390D01*
X160249787Y-85401185D01*
X160141971Y-85252786D01*
X159997213Y-85108028D01*
X159831613Y-84987715D01*
X159831612Y-84987714D01*
X159831610Y-84987713D01*
X159774653Y-84958691D01*
X159649223Y-84894781D01*
X159607861Y-84881342D01*
X159580434Y-84872430D01*
X159522760Y-84832993D01*
X159495562Y-84768634D01*
X159507477Y-84699788D01*
X159554721Y-84648312D01*
X159618754Y-84630500D01*
X166301246Y-84630500D01*
X166368285Y-84650185D01*
X166414040Y-84702989D01*
X166423984Y-84772147D01*
X166394959Y-84835703D01*
X166339565Y-84872430D01*
X166318296Y-84879341D01*
X166270776Y-84894781D01*
X166088386Y-84987715D01*
X165922786Y-85108028D01*
X165778028Y-85252786D01*
X165657715Y-85418386D01*
X165564781Y-85600776D01*
X165501522Y-85795465D01*
X165469500Y-85997648D01*
X165469500Y-86202351D01*
X165501522Y-86404534D01*
X165564781Y-86599223D01*
X165657715Y-86781613D01*
X165778028Y-86947213D01*
X165922786Y-87091971D01*
X166075327Y-87202796D01*
X166088390Y-87212287D01*
X166167605Y-87252649D01*
X166270776Y-87305218D01*
X166270778Y-87305218D01*
X166270781Y-87305220D01*
X166375137Y-87339127D01*
X166465465Y-87368477D01*
X166534032Y-87379337D01*
X166667648Y-87400500D01*
X166667649Y-87400500D01*
X166872351Y-87400500D01*
X166872352Y-87400500D01*
X167074534Y-87368477D01*
X167269219Y-87305220D01*
X167451610Y-87212287D01*
X167592374Y-87110017D01*
X167617213Y-87091971D01*
X167617215Y-87091968D01*
X167617219Y-87091966D01*
X167761966Y-86947219D01*
X167761968Y-86947215D01*
X167761971Y-86947213D01*
X167850399Y-86825500D01*
X167882287Y-86781610D01*
X167975220Y-86599219D01*
X168038477Y-86404534D01*
X168070500Y-86202352D01*
X168070500Y-85997648D01*
X168038477Y-85795466D01*
X167975220Y-85600781D01*
X167975218Y-85600778D01*
X167975218Y-85600776D01*
X167932806Y-85517539D01*
X167882287Y-85418390D01*
X167869787Y-85401185D01*
X167761971Y-85252786D01*
X167617213Y-85108028D01*
X167451613Y-84987715D01*
X167451612Y-84987714D01*
X167451610Y-84987713D01*
X167394653Y-84958691D01*
X167269223Y-84894781D01*
X167227861Y-84881342D01*
X167200434Y-84872430D01*
X167142760Y-84832993D01*
X167115562Y-84768634D01*
X167127477Y-84699788D01*
X167174721Y-84648312D01*
X167238754Y-84630500D01*
X169951246Y-84630500D01*
X170018285Y-84650185D01*
X170064040Y-84702989D01*
X170073984Y-84772147D01*
X170044959Y-84835703D01*
X169989565Y-84872430D01*
X169968296Y-84879341D01*
X169920776Y-84894781D01*
X169738386Y-84987715D01*
X169572786Y-85108028D01*
X169428028Y-85252786D01*
X169307715Y-85418386D01*
X169214781Y-85600776D01*
X169151522Y-85795465D01*
X169119500Y-85997648D01*
X169119500Y-86202351D01*
X169151522Y-86404534D01*
X169214781Y-86599223D01*
X169307715Y-86781613D01*
X169428028Y-86947213D01*
X169572786Y-87091971D01*
X169725327Y-87202796D01*
X169738390Y-87212287D01*
X169817605Y-87252649D01*
X169920776Y-87305218D01*
X169920778Y-87305218D01*
X169920781Y-87305220D01*
X170025137Y-87339127D01*
X170115465Y-87368477D01*
X170184032Y-87379337D01*
X170317648Y-87400500D01*
X170317649Y-87400500D01*
X170522351Y-87400500D01*
X170522352Y-87400500D01*
X170724534Y-87368477D01*
X170919219Y-87305220D01*
X171101610Y-87212287D01*
X171242374Y-87110017D01*
X171267213Y-87091971D01*
X171267215Y-87091968D01*
X171267219Y-87091966D01*
X171411966Y-86947219D01*
X171411968Y-86947215D01*
X171411971Y-86947213D01*
X171500399Y-86825500D01*
X171532287Y-86781610D01*
X171625220Y-86599219D01*
X171688477Y-86404534D01*
X171720500Y-86202352D01*
X171720500Y-85997648D01*
X171688477Y-85795466D01*
X171625220Y-85600781D01*
X171625218Y-85600778D01*
X171625218Y-85600776D01*
X171582806Y-85517539D01*
X171532287Y-85418390D01*
X171519787Y-85401185D01*
X171411971Y-85252786D01*
X171267213Y-85108028D01*
X171101613Y-84987715D01*
X171101612Y-84987714D01*
X171101610Y-84987713D01*
X171044653Y-84958691D01*
X170919223Y-84894781D01*
X170877861Y-84881342D01*
X170850434Y-84872430D01*
X170792760Y-84832993D01*
X170765562Y-84768634D01*
X170777477Y-84699788D01*
X170824721Y-84648312D01*
X170888754Y-84630500D01*
X177571246Y-84630500D01*
X177638285Y-84650185D01*
X177684040Y-84702989D01*
X177693984Y-84772147D01*
X177664959Y-84835703D01*
X177609565Y-84872430D01*
X177588296Y-84879341D01*
X177540776Y-84894781D01*
X177358386Y-84987715D01*
X177192786Y-85108028D01*
X177048028Y-85252786D01*
X176927715Y-85418386D01*
X176834781Y-85600776D01*
X176771522Y-85795465D01*
X176739500Y-85997648D01*
X176739500Y-86202351D01*
X176771522Y-86404534D01*
X176834781Y-86599223D01*
X176927715Y-86781613D01*
X177048028Y-86947213D01*
X177192786Y-87091971D01*
X177345327Y-87202796D01*
X177358390Y-87212287D01*
X177437605Y-87252649D01*
X177540776Y-87305218D01*
X177540778Y-87305218D01*
X177540781Y-87305220D01*
X177645137Y-87339127D01*
X177735465Y-87368477D01*
X177804032Y-87379337D01*
X177937648Y-87400500D01*
X177937649Y-87400500D01*
X178142351Y-87400500D01*
X178142352Y-87400500D01*
X178211371Y-87389568D01*
X178349347Y-87367715D01*
X178349672Y-87369767D01*
X178410743Y-87372802D01*
X178457628Y-87402218D01*
X182494139Y-91438729D01*
X182494142Y-91438733D01*
X182581267Y-91525858D01*
X182632490Y-91560084D01*
X182683714Y-91594312D01*
X182683715Y-91594312D01*
X182683716Y-91594313D01*
X182757390Y-91624829D01*
X182757394Y-91624830D01*
X182764207Y-91627652D01*
X182797548Y-91641463D01*
X182857971Y-91653481D01*
X182918393Y-91665500D01*
X182918394Y-91665500D01*
X185902651Y-91665500D01*
X185969690Y-91685185D01*
X185971541Y-91686398D01*
X186098976Y-91771547D01*
X186098980Y-91771549D01*
X186249206Y-91833774D01*
X186249211Y-91833776D01*
X186249215Y-91833776D01*
X186249216Y-91833777D01*
X186408692Y-91865500D01*
X186408695Y-91865500D01*
X186571307Y-91865500D01*
X186678598Y-91844157D01*
X186730789Y-91833776D01*
X186851498Y-91783777D01*
X186881019Y-91771549D01*
X186881023Y-91771547D01*
X186990420Y-91698450D01*
X187016225Y-91681208D01*
X187043952Y-91653481D01*
X187077819Y-91619615D01*
X187139142Y-91586130D01*
X187208834Y-91591114D01*
X187264767Y-91632986D01*
X187289184Y-91698450D01*
X187289500Y-91707296D01*
X187289500Y-121943038D01*
X187288720Y-121956921D01*
X187288720Y-121956923D01*
X187277788Y-122053939D01*
X187271609Y-122081009D01*
X187241675Y-122166555D01*
X187229628Y-122191571D01*
X187181411Y-122268309D01*
X187164098Y-122290019D01*
X187100019Y-122354098D01*
X187078309Y-122371411D01*
X187001571Y-122419628D01*
X186976555Y-122431675D01*
X186891009Y-122461609D01*
X186863939Y-122467788D01*
X186787566Y-122476393D01*
X186766921Y-122478720D01*
X186753039Y-122479500D01*
X186419779Y-122479500D01*
X186352740Y-122459815D01*
X186306985Y-122407011D01*
X186297041Y-122337853D01*
X186305218Y-122308048D01*
X186354736Y-122188499D01*
X186354739Y-122188490D01*
X186367875Y-122122452D01*
X186376118Y-122081009D01*
X186385500Y-122033843D01*
X186385500Y-121876158D01*
X186385500Y-121345434D01*
X186405185Y-121278395D01*
X186406398Y-121276543D01*
X186471240Y-121179500D01*
X186471632Y-121178914D01*
X186547051Y-120996835D01*
X186585500Y-120803541D01*
X186585500Y-120606459D01*
X186585500Y-120606456D01*
X186547052Y-120413170D01*
X186547051Y-120413169D01*
X186547051Y-120413165D01*
X186491416Y-120278848D01*
X186471635Y-120231092D01*
X186471628Y-120231079D01*
X186362139Y-120067218D01*
X186362136Y-120067214D01*
X186222785Y-119927863D01*
X186222781Y-119927860D01*
X186058920Y-119818371D01*
X186058907Y-119818364D01*
X185876839Y-119742950D01*
X185876829Y-119742947D01*
X185683543Y-119704500D01*
X185683541Y-119704500D01*
X185486459Y-119704500D01*
X185486457Y-119704500D01*
X185293170Y-119742947D01*
X185293160Y-119742950D01*
X185111092Y-119818364D01*
X185111079Y-119818371D01*
X184947218Y-119927860D01*
X184947214Y-119927863D01*
X184807863Y-120067214D01*
X184807860Y-120067218D01*
X184698371Y-120231079D01*
X184698364Y-120231092D01*
X184622950Y-120413160D01*
X184622947Y-120413170D01*
X184584500Y-120606456D01*
X184584500Y-120606459D01*
X184584500Y-120803541D01*
X184584500Y-120803543D01*
X184584499Y-120803543D01*
X184622947Y-120996829D01*
X184622949Y-120996835D01*
X184627594Y-121008049D01*
X184635061Y-121077519D01*
X184603785Y-121139997D01*
X184543696Y-121175649D01*
X184513032Y-121179500D01*
X160269500Y-121179500D01*
X160202461Y-121159815D01*
X160156706Y-121107011D01*
X160145500Y-121055500D01*
X160145500Y-118816114D01*
X160165185Y-118749075D01*
X160198575Y-118716398D01*
X160197668Y-118715150D01*
X160201605Y-118712289D01*
X160201610Y-118712287D01*
X160367219Y-118591966D01*
X160511966Y-118447219D01*
X160511968Y-118447215D01*
X160511971Y-118447213D01*
X160603669Y-118320999D01*
X160632287Y-118281610D01*
X160725220Y-118099219D01*
X160788477Y-117904534D01*
X160820500Y-117702352D01*
X160820500Y-117497648D01*
X160788477Y-117295466D01*
X160725220Y-117100781D01*
X160725218Y-117100778D01*
X160725218Y-117100776D01*
X160691503Y-117034607D01*
X160632287Y-116918390D01*
X160624556Y-116907749D01*
X160511971Y-116752786D01*
X160367213Y-116608028D01*
X160201613Y-116487715D01*
X160201612Y-116487714D01*
X160201610Y-116487713D01*
X160144653Y-116458691D01*
X160019223Y-116394781D01*
X159824534Y-116331522D01*
X159649995Y-116303878D01*
X159622352Y-116299500D01*
X159417648Y-116299500D01*
X159393329Y-116303351D01*
X159215465Y-116331522D01*
X159020776Y-116394781D01*
X158838386Y-116487715D01*
X158672786Y-116608028D01*
X158528028Y-116752786D01*
X158407715Y-116918386D01*
X158314781Y-117100776D01*
X158251522Y-117295465D01*
X158219500Y-117497648D01*
X158219500Y-117702351D01*
X158251522Y-117904534D01*
X158314781Y-118099223D01*
X158407715Y-118281613D01*
X158528028Y-118447213D01*
X158528034Y-118447219D01*
X158672781Y-118591966D01*
X158838390Y-118712287D01*
X158838394Y-118712289D01*
X158842332Y-118715150D01*
X158841111Y-118716829D01*
X158882155Y-118762177D01*
X158894500Y-118816114D01*
X158894500Y-121055500D01*
X158874815Y-121122539D01*
X158822011Y-121168294D01*
X158770500Y-121179500D01*
X128908600Y-121179500D01*
X128841561Y-121159815D01*
X128795806Y-121107011D01*
X128785862Y-121037853D01*
X128814887Y-120974297D01*
X128870279Y-120937569D01*
X128914379Y-120923241D01*
X129138845Y-120808870D01*
X129342656Y-120660793D01*
X129520793Y-120482656D01*
X129668870Y-120278845D01*
X129783241Y-120054379D01*
X129861090Y-119814785D01*
X129900500Y-119565962D01*
X129900500Y-119314038D01*
X129861090Y-119065215D01*
X129783241Y-118825621D01*
X129783239Y-118825618D01*
X129783239Y-118825616D01*
X129726953Y-118715150D01*
X129668870Y-118601155D01*
X129649952Y-118575117D01*
X129520798Y-118397350D01*
X129520794Y-118397345D01*
X129342654Y-118219205D01*
X129342649Y-118219201D01*
X129138848Y-118071132D01*
X129138847Y-118071131D01*
X129138845Y-118071130D01*
X129068747Y-118035413D01*
X128914383Y-117956760D01*
X128674785Y-117878910D01*
X128425962Y-117839500D01*
X128174038Y-117839500D01*
X128049626Y-117859205D01*
X127925214Y-117878910D01*
X127685616Y-117956760D01*
X127461151Y-118071132D01*
X127257350Y-118219201D01*
X127257345Y-118219205D01*
X127079205Y-118397345D01*
X127079201Y-118397350D01*
X126931132Y-118601151D01*
X126816760Y-118825616D01*
X126738909Y-119065214D01*
X126727473Y-119137424D01*
X126697544Y-119200559D01*
X126638232Y-119237490D01*
X126568370Y-119236492D01*
X126510137Y-119197882D01*
X126482527Y-119137424D01*
X126471090Y-119065214D01*
X126393239Y-118825616D01*
X126336953Y-118715150D01*
X126278870Y-118601155D01*
X126259952Y-118575117D01*
X126130798Y-118397350D01*
X126130794Y-118397345D01*
X125952654Y-118219205D01*
X125952649Y-118219201D01*
X125748848Y-118071132D01*
X125748847Y-118071131D01*
X125748845Y-118071130D01*
X125678747Y-118035413D01*
X125524383Y-117956760D01*
X125284785Y-117878910D01*
X125035962Y-117839500D01*
X124784038Y-117839500D01*
X124659626Y-117859205D01*
X124535214Y-117878910D01*
X124295616Y-117956760D01*
X124071151Y-118071132D01*
X123867350Y-118219201D01*
X123867345Y-118219205D01*
X123752181Y-118334370D01*
X123690858Y-118367855D01*
X123621166Y-118362871D01*
X123565233Y-118320999D01*
X123540816Y-118255535D01*
X123540500Y-118246689D01*
X123540500Y-110913525D01*
X123560185Y-110846486D01*
X123612989Y-110800731D01*
X123682147Y-110790787D01*
X123729595Y-110807986D01*
X123740665Y-110814814D01*
X123907202Y-110869999D01*
X124009990Y-110880500D01*
X124009995Y-110880500D01*
X125810005Y-110880500D01*
X125810010Y-110880500D01*
X125912798Y-110869999D01*
X126079335Y-110814814D01*
X126228656Y-110722712D01*
X126352712Y-110598656D01*
X126444814Y-110449335D01*
X126487295Y-110321135D01*
X126527066Y-110263692D01*
X126591582Y-110236869D01*
X126660358Y-110249184D01*
X126711558Y-110296727D01*
X126722703Y-110321131D01*
X126765186Y-110449335D01*
X126857288Y-110598656D01*
X126981344Y-110722712D01*
X127130665Y-110814814D01*
X127297202Y-110869999D01*
X127388103Y-110879285D01*
X127452794Y-110905681D01*
X127492945Y-110962861D01*
X127499500Y-111002643D01*
X127499500Y-114348846D01*
X127530261Y-114503489D01*
X127530264Y-114503501D01*
X127590602Y-114649172D01*
X127590609Y-114649185D01*
X127678210Y-114780288D01*
X127678213Y-114780292D01*
X131288211Y-118390289D01*
X131345135Y-118447213D01*
X131399712Y-118501790D01*
X131530814Y-118589390D01*
X131530827Y-118589397D01*
X131676498Y-118649735D01*
X131676503Y-118649737D01*
X131831153Y-118680499D01*
X131831156Y-118680500D01*
X131831158Y-118680500D01*
X151248844Y-118680500D01*
X151248845Y-118680499D01*
X151403497Y-118649737D01*
X151549179Y-118589394D01*
X151680289Y-118501789D01*
X154495259Y-115686819D01*
X154556582Y-115653334D01*
X154582940Y-115650500D01*
X155067351Y-115650500D01*
X155067352Y-115650500D01*
X155269534Y-115618477D01*
X155464219Y-115555220D01*
X155646610Y-115462287D01*
X155739590Y-115394732D01*
X155812213Y-115341971D01*
X155812215Y-115341968D01*
X155812219Y-115341966D01*
X155956966Y-115197219D01*
X155956968Y-115197215D01*
X155956971Y-115197213D01*
X156009732Y-115124590D01*
X156077287Y-115031610D01*
X156170220Y-114849219D01*
X156233477Y-114654534D01*
X156265500Y-114452352D01*
X156265500Y-114247648D01*
X156233477Y-114045466D01*
X156170220Y-113850781D01*
X156170218Y-113850778D01*
X156170218Y-113850776D01*
X156136503Y-113784607D01*
X156077287Y-113668390D01*
X156069556Y-113657749D01*
X155956971Y-113502786D01*
X155812213Y-113358028D01*
X155646614Y-113237715D01*
X155640006Y-113234348D01*
X155553917Y-113190483D01*
X155503123Y-113142511D01*
X155486328Y-113074690D01*
X155508865Y-113008555D01*
X155553917Y-112969516D01*
X155646610Y-112922287D01*
X155667770Y-112906913D01*
X155812213Y-112801971D01*
X155812215Y-112801968D01*
X155812219Y-112801966D01*
X155956966Y-112657219D01*
X155956968Y-112657215D01*
X155956971Y-112657213D01*
X156009732Y-112584590D01*
X156077287Y-112491610D01*
X156170220Y-112309219D01*
X156233477Y-112114534D01*
X156265500Y-111912352D01*
X156265500Y-111707648D01*
X156233477Y-111505466D01*
X156170220Y-111310781D01*
X156170218Y-111310778D01*
X156170218Y-111310776D01*
X156106242Y-111185218D01*
X156077287Y-111128390D01*
X156051055Y-111092284D01*
X155956971Y-110962786D01*
X155812213Y-110818028D01*
X155646614Y-110697715D01*
X155595886Y-110671868D01*
X155553917Y-110650483D01*
X155503123Y-110602511D01*
X155486328Y-110534690D01*
X155508865Y-110468555D01*
X155553917Y-110429516D01*
X155646610Y-110382287D01*
X155667770Y-110366913D01*
X155812213Y-110261971D01*
X155812215Y-110261968D01*
X155812219Y-110261966D01*
X155956966Y-110117219D01*
X155956968Y-110117215D01*
X155956971Y-110117213D01*
X156048269Y-109991550D01*
X156077287Y-109951610D01*
X156114973Y-109877648D01*
X158219500Y-109877648D01*
X158219500Y-110082351D01*
X158251522Y-110284534D01*
X158314781Y-110479223D01*
X158407715Y-110661613D01*
X158528028Y-110827213D01*
X158672786Y-110971971D01*
X158827749Y-111084556D01*
X158838390Y-111092287D01*
X158954607Y-111151503D01*
X159020776Y-111185218D01*
X159020778Y-111185218D01*
X159020781Y-111185220D01*
X159125137Y-111219127D01*
X159215465Y-111248477D01*
X159316557Y-111264488D01*
X159417648Y-111280500D01*
X159417649Y-111280500D01*
X159622351Y-111280500D01*
X159622352Y-111280500D01*
X159824534Y-111248477D01*
X160019219Y-111185220D01*
X160201610Y-111092287D01*
X160294590Y-111024732D01*
X160367213Y-110971971D01*
X160367215Y-110971968D01*
X160367219Y-110971966D01*
X160511966Y-110827219D01*
X160511968Y-110827215D01*
X160511971Y-110827213D01*
X160587894Y-110722712D01*
X160632287Y-110661610D01*
X160725220Y-110479219D01*
X160788477Y-110284534D01*
X160820500Y-110082352D01*
X160820500Y-109877648D01*
X160788477Y-109675466D01*
X160780534Y-109651021D01*
X160725218Y-109480776D01*
X160691503Y-109414607D01*
X160632287Y-109298390D01*
X160624556Y-109287749D01*
X160511971Y-109132786D01*
X160367213Y-108988028D01*
X160201613Y-108867715D01*
X160201612Y-108867714D01*
X160201610Y-108867713D01*
X160144653Y-108838691D01*
X160019223Y-108774781D01*
X159824534Y-108711522D01*
X159649995Y-108683878D01*
X159622352Y-108679500D01*
X159417648Y-108679500D01*
X159393329Y-108683351D01*
X159215465Y-108711522D01*
X159020776Y-108774781D01*
X158838386Y-108867715D01*
X158672786Y-108988028D01*
X158528028Y-109132786D01*
X158407715Y-109298386D01*
X158314781Y-109480776D01*
X158251522Y-109675465D01*
X158219500Y-109877648D01*
X156114973Y-109877648D01*
X156161554Y-109786228D01*
X156170218Y-109769223D01*
X156170218Y-109769222D01*
X156170220Y-109769219D01*
X156233477Y-109574534D01*
X156265500Y-109372352D01*
X156265500Y-109167648D01*
X156241989Y-109019206D01*
X156233477Y-108965465D01*
X156201715Y-108867713D01*
X156170220Y-108770781D01*
X156170218Y-108770778D01*
X156170218Y-108770776D01*
X156123710Y-108679500D01*
X156077287Y-108588390D01*
X156033740Y-108528452D01*
X155956971Y-108422786D01*
X155812213Y-108278028D01*
X155646614Y-108157715D01*
X155640006Y-108154348D01*
X155553917Y-108110483D01*
X155503123Y-108062511D01*
X155486328Y-107994690D01*
X155508865Y-107928555D01*
X155553917Y-107889516D01*
X155646610Y-107842287D01*
X155770863Y-107752013D01*
X155812213Y-107721971D01*
X155812215Y-107721968D01*
X155812219Y-107721966D01*
X155956966Y-107577219D01*
X155956968Y-107577215D01*
X155956971Y-107577213D01*
X156009732Y-107504590D01*
X156077287Y-107411610D01*
X156170220Y-107229219D01*
X156233477Y-107034534D01*
X156265500Y-106832352D01*
X156265500Y-106627648D01*
X156233477Y-106425466D01*
X156233476Y-106425464D01*
X156210613Y-106355098D01*
X156170220Y-106230781D01*
X156170218Y-106230777D01*
X156169257Y-106227819D01*
X156167262Y-106157977D01*
X156203342Y-106098144D01*
X156266043Y-106067316D01*
X156287188Y-106065500D01*
X170981607Y-106065500D01*
X171042029Y-106053481D01*
X171102452Y-106041463D01*
X171135792Y-106027652D01*
X171216286Y-105994312D01*
X171267509Y-105960084D01*
X171318733Y-105925858D01*
X171405858Y-105838733D01*
X171405859Y-105838731D01*
X171412925Y-105831665D01*
X171412928Y-105831661D01*
X173272878Y-103971710D01*
X173334199Y-103938227D01*
X173379955Y-103936920D01*
X173494196Y-103955013D01*
X173560403Y-103965500D01*
X173560404Y-103965500D01*
X173759596Y-103965500D01*
X173759597Y-103965500D01*
X173956339Y-103934339D01*
X173956342Y-103934338D01*
X173956343Y-103934338D01*
X174145780Y-103872786D01*
X174145780Y-103872785D01*
X174145783Y-103872785D01*
X174323266Y-103782353D01*
X174484418Y-103665269D01*
X174625269Y-103524418D01*
X174742353Y-103363266D01*
X174819515Y-103211827D01*
X174867490Y-103161031D01*
X174935311Y-103144236D01*
X175001446Y-103166773D01*
X175040485Y-103211827D01*
X175117647Y-103363266D01*
X175234731Y-103524418D01*
X175375582Y-103665269D01*
X175536734Y-103782353D01*
X175714217Y-103872785D01*
X175714219Y-103872786D01*
X175903657Y-103934338D01*
X175903658Y-103934338D01*
X175903661Y-103934339D01*
X176100403Y-103965500D01*
X176100404Y-103965500D01*
X176299596Y-103965500D01*
X176299597Y-103965500D01*
X176496339Y-103934339D01*
X176496342Y-103934338D01*
X176496343Y-103934338D01*
X176685780Y-103872786D01*
X176685780Y-103872785D01*
X176685783Y-103872785D01*
X176863266Y-103782353D01*
X177024418Y-103665269D01*
X177165269Y-103524418D01*
X177282353Y-103363266D01*
X177359515Y-103211827D01*
X177407490Y-103161031D01*
X177475311Y-103144236D01*
X177541446Y-103166773D01*
X177580485Y-103211827D01*
X177657647Y-103363266D01*
X177774731Y-103524418D01*
X177915582Y-103665269D01*
X178076734Y-103782353D01*
X178254217Y-103872785D01*
X178254219Y-103872786D01*
X178443657Y-103934338D01*
X178443658Y-103934338D01*
X178443661Y-103934339D01*
X178640403Y-103965500D01*
X178640404Y-103965500D01*
X178839596Y-103965500D01*
X178839597Y-103965500D01*
X179036339Y-103934339D01*
X179036342Y-103934338D01*
X179036343Y-103934338D01*
X179225780Y-103872786D01*
X179225780Y-103872785D01*
X179225783Y-103872785D01*
X179403266Y-103782353D01*
X179564418Y-103665269D01*
X179705269Y-103524418D01*
X179822353Y-103363266D01*
X179899515Y-103211827D01*
X179947490Y-103161031D01*
X180015311Y-103144236D01*
X180081446Y-103166773D01*
X180120485Y-103211827D01*
X180197647Y-103363266D01*
X180314731Y-103524418D01*
X180455582Y-103665269D01*
X180616734Y-103782353D01*
X180794217Y-103872785D01*
X180794219Y-103872786D01*
X180983657Y-103934338D01*
X180983658Y-103934338D01*
X180983661Y-103934339D01*
X181180403Y-103965500D01*
X181180404Y-103965500D01*
X181379596Y-103965500D01*
X181379597Y-103965500D01*
X181576339Y-103934339D01*
X181576342Y-103934338D01*
X181576343Y-103934338D01*
X181765780Y-103872786D01*
X181765780Y-103872785D01*
X181765783Y-103872785D01*
X181943266Y-103782353D01*
X182104418Y-103665269D01*
X182245269Y-103524418D01*
X182362353Y-103363266D01*
X182452785Y-103185783D01*
X182460827Y-103161031D01*
X182514338Y-102996343D01*
X182514338Y-102996342D01*
X182514339Y-102996339D01*
X182545500Y-102799597D01*
X182545500Y-102600403D01*
X182514339Y-102403661D01*
X182514338Y-102403657D01*
X182514338Y-102403656D01*
X182452786Y-102214219D01*
X182387200Y-102085500D01*
X182362353Y-102036734D01*
X182245269Y-101875582D01*
X182104418Y-101734731D01*
X181943266Y-101617647D01*
X181895834Y-101593479D01*
X181765780Y-101527213D01*
X181576342Y-101465661D01*
X181428782Y-101442290D01*
X181379597Y-101434500D01*
X181180403Y-101434500D01*
X181114822Y-101444887D01*
X180983659Y-101465661D01*
X180983656Y-101465661D01*
X180794219Y-101527213D01*
X180616733Y-101617647D01*
X180524790Y-101684447D01*
X180455582Y-101734731D01*
X180455580Y-101734733D01*
X180455579Y-101734733D01*
X180314733Y-101875579D01*
X180314733Y-101875580D01*
X180314731Y-101875582D01*
X180264447Y-101944790D01*
X180197647Y-102036733D01*
X180120485Y-102188172D01*
X180072510Y-102238968D01*
X180004689Y-102255763D01*
X179938554Y-102233225D01*
X179899515Y-102188172D01*
X179847200Y-102085500D01*
X179822353Y-102036734D01*
X179705269Y-101875582D01*
X179564418Y-101734731D01*
X179403266Y-101617647D01*
X179355834Y-101593479D01*
X179225780Y-101527213D01*
X179036342Y-101465661D01*
X178888782Y-101442290D01*
X178839597Y-101434500D01*
X178640403Y-101434500D01*
X178574822Y-101444887D01*
X178443659Y-101465661D01*
X178443656Y-101465661D01*
X178254219Y-101527213D01*
X178076733Y-101617647D01*
X177984790Y-101684447D01*
X177915582Y-101734731D01*
X177915580Y-101734733D01*
X177915579Y-101734733D01*
X177774733Y-101875579D01*
X177774733Y-101875580D01*
X177774731Y-101875582D01*
X177724447Y-101944790D01*
X177657647Y-102036733D01*
X177580485Y-102188172D01*
X177532510Y-102238968D01*
X177464689Y-102255763D01*
X177398554Y-102233225D01*
X177359515Y-102188172D01*
X177307200Y-102085500D01*
X177282353Y-102036734D01*
X177165269Y-101875582D01*
X177024418Y-101734731D01*
X176863266Y-101617647D01*
X176815834Y-101593479D01*
X176685780Y-101527213D01*
X176496342Y-101465661D01*
X176348782Y-101442290D01*
X176299597Y-101434500D01*
X176100403Y-101434500D01*
X176034822Y-101444887D01*
X175903659Y-101465661D01*
X175903656Y-101465661D01*
X175714219Y-101527213D01*
X175536733Y-101617647D01*
X175444790Y-101684447D01*
X175375582Y-101734731D01*
X175375580Y-101734733D01*
X175375579Y-101734733D01*
X175234733Y-101875579D01*
X175234733Y-101875580D01*
X175234731Y-101875582D01*
X175184447Y-101944790D01*
X175117647Y-102036733D01*
X175040485Y-102188172D01*
X174992510Y-102238968D01*
X174924689Y-102255763D01*
X174858554Y-102233225D01*
X174819515Y-102188172D01*
X174767200Y-102085500D01*
X174742353Y-102036734D01*
X174625269Y-101875582D01*
X174484418Y-101734731D01*
X174323266Y-101617647D01*
X174275834Y-101593479D01*
X174145780Y-101527213D01*
X173956342Y-101465661D01*
X173808782Y-101442290D01*
X173759597Y-101434500D01*
X173560403Y-101434500D01*
X173494822Y-101444887D01*
X173363659Y-101465661D01*
X173363656Y-101465661D01*
X173174219Y-101527213D01*
X172996733Y-101617647D01*
X172904790Y-101684447D01*
X172835582Y-101734731D01*
X172835580Y-101734733D01*
X172835579Y-101734733D01*
X172694733Y-101875579D01*
X172694733Y-101875580D01*
X172694731Y-101875582D01*
X172644447Y-101944790D01*
X172577647Y-102036733D01*
X172500485Y-102188172D01*
X172452510Y-102238968D01*
X172384689Y-102255763D01*
X172318554Y-102233225D01*
X172279515Y-102188172D01*
X172227200Y-102085500D01*
X172202353Y-102036734D01*
X172085269Y-101875582D01*
X171944418Y-101734731D01*
X171783266Y-101617647D01*
X171735834Y-101593479D01*
X171605780Y-101527213D01*
X171416342Y-101465661D01*
X171268782Y-101442290D01*
X171219597Y-101434500D01*
X171020403Y-101434500D01*
X170954822Y-101444887D01*
X170823659Y-101465661D01*
X170823656Y-101465661D01*
X170634219Y-101527213D01*
X170456733Y-101617647D01*
X170364790Y-101684447D01*
X170295582Y-101734731D01*
X170295580Y-101734733D01*
X170295579Y-101734733D01*
X170154733Y-101875579D01*
X170154733Y-101875580D01*
X170154731Y-101875582D01*
X170104447Y-101944790D01*
X170037647Y-102036733D01*
X169960485Y-102188172D01*
X169912510Y-102238968D01*
X169844689Y-102255763D01*
X169778554Y-102233225D01*
X169739515Y-102188172D01*
X169687200Y-102085500D01*
X169662353Y-102036734D01*
X169545269Y-101875582D01*
X169404418Y-101734731D01*
X169243266Y-101617647D01*
X169195834Y-101593479D01*
X169065780Y-101527213D01*
X168876342Y-101465661D01*
X168728782Y-101442290D01*
X168679597Y-101434500D01*
X168480403Y-101434500D01*
X168414822Y-101444887D01*
X168283659Y-101465661D01*
X168283656Y-101465661D01*
X168094219Y-101527213D01*
X167916733Y-101617647D01*
X167824790Y-101684447D01*
X167755582Y-101734731D01*
X167755580Y-101734733D01*
X167755579Y-101734733D01*
X167614733Y-101875579D01*
X167614733Y-101875580D01*
X167614731Y-101875582D01*
X167564447Y-101944790D01*
X167497647Y-102036733D01*
X167420485Y-102188172D01*
X167372510Y-102238968D01*
X167304689Y-102255763D01*
X167238554Y-102233225D01*
X167199515Y-102188172D01*
X167147200Y-102085500D01*
X167122353Y-102036734D01*
X167005269Y-101875582D01*
X166864418Y-101734731D01*
X166703266Y-101617647D01*
X166655834Y-101593479D01*
X166525780Y-101527213D01*
X166336342Y-101465661D01*
X166188782Y-101442290D01*
X166139597Y-101434500D01*
X165940403Y-101434500D01*
X165874822Y-101444887D01*
X165743659Y-101465661D01*
X165743656Y-101465661D01*
X165554219Y-101527213D01*
X165376733Y-101617647D01*
X165284790Y-101684447D01*
X165215582Y-101734731D01*
X165215580Y-101734733D01*
X165215579Y-101734733D01*
X165074733Y-101875579D01*
X165074733Y-101875580D01*
X165074731Y-101875582D01*
X165024447Y-101944790D01*
X164957647Y-102036733D01*
X164880485Y-102188172D01*
X164832510Y-102238968D01*
X164764689Y-102255763D01*
X164698554Y-102233225D01*
X164659515Y-102188172D01*
X164607200Y-102085500D01*
X164582353Y-102036734D01*
X164465269Y-101875582D01*
X164324418Y-101734731D01*
X164163266Y-101617647D01*
X164115834Y-101593479D01*
X163985780Y-101527213D01*
X163796342Y-101465661D01*
X163648782Y-101442290D01*
X163599597Y-101434500D01*
X163599596Y-101434500D01*
X163488262Y-101434500D01*
X163421223Y-101414815D01*
X163400581Y-101398181D01*
X163073632Y-101071232D01*
X163063669Y-101061269D01*
X163063668Y-101061267D01*
X162976543Y-100974142D01*
X162925319Y-100939915D01*
X162874096Y-100905688D01*
X162874093Y-100905686D01*
X162874090Y-100905685D01*
X162800413Y-100875168D01*
X162800411Y-100875167D01*
X162793602Y-100872347D01*
X162760262Y-100858537D01*
X162699839Y-100846518D01*
X162695116Y-100845578D01*
X162695114Y-100845578D01*
X162639420Y-100834500D01*
X162639417Y-100834500D01*
X162639416Y-100834500D01*
X156869451Y-100834500D01*
X156802412Y-100814815D01*
X156756657Y-100762011D01*
X156746713Y-100692853D01*
X156775738Y-100629297D01*
X156781770Y-100622819D01*
X159675074Y-97729515D01*
X162574393Y-94830195D01*
X162635714Y-94796712D01*
X162637734Y-94796290D01*
X162725789Y-94778776D01*
X162825943Y-94737290D01*
X162876019Y-94716549D01*
X162876023Y-94716547D01*
X162989835Y-94640500D01*
X163011225Y-94626208D01*
X163126208Y-94511225D01*
X163216548Y-94376021D01*
X163278776Y-94225789D01*
X163310500Y-94066305D01*
X163310500Y-93903695D01*
X163310500Y-93903692D01*
X163278777Y-93744216D01*
X163278776Y-93744215D01*
X163278776Y-93744211D01*
X163278774Y-93744206D01*
X163216549Y-93593980D01*
X163216547Y-93593976D01*
X163126211Y-93458779D01*
X163126205Y-93458771D01*
X163011228Y-93343794D01*
X163011220Y-93343788D01*
X162876023Y-93253452D01*
X162876019Y-93253450D01*
X162725793Y-93191225D01*
X162725783Y-93191222D01*
X162566307Y-93159500D01*
X162566305Y-93159500D01*
X162403695Y-93159500D01*
X162403693Y-93159500D01*
X162244216Y-93191222D01*
X162244206Y-93191225D01*
X162093980Y-93253450D01*
X162093976Y-93253452D01*
X161958779Y-93343788D01*
X161958771Y-93343794D01*
X161843794Y-93458771D01*
X161843788Y-93458779D01*
X161753452Y-93593976D01*
X161753450Y-93593980D01*
X161691225Y-93744206D01*
X161691222Y-93744216D01*
X161659500Y-93903692D01*
X161659500Y-93924547D01*
X161639815Y-93991586D01*
X161623181Y-94012228D01*
X156477181Y-99158228D01*
X156415858Y-99191713D01*
X156346166Y-99186729D01*
X156290233Y-99144857D01*
X156265816Y-99079393D01*
X156265500Y-99070547D01*
X156265500Y-99007648D01*
X156233477Y-98805465D01*
X156170218Y-98610776D01*
X156136503Y-98544607D01*
X156077287Y-98428390D01*
X156069556Y-98417749D01*
X155956971Y-98262786D01*
X155812213Y-98118028D01*
X155646614Y-97997715D01*
X155640006Y-97994348D01*
X155553917Y-97950483D01*
X155503123Y-97902511D01*
X155486328Y-97834690D01*
X155508865Y-97768555D01*
X155553917Y-97729516D01*
X155646610Y-97682287D01*
X155731560Y-97620568D01*
X155812213Y-97561971D01*
X155812215Y-97561968D01*
X155812219Y-97561966D01*
X155956966Y-97417219D01*
X155956968Y-97417215D01*
X155956971Y-97417213D01*
X156009732Y-97344590D01*
X156077287Y-97251610D01*
X156170220Y-97069219D01*
X156233477Y-96874534D01*
X156265500Y-96672352D01*
X156265500Y-96467648D01*
X156233477Y-96265466D01*
X156233476Y-96265462D01*
X156233476Y-96265461D01*
X156204999Y-96177818D01*
X156203004Y-96107977D01*
X156239084Y-96048144D01*
X156301785Y-96017316D01*
X156322930Y-96015500D01*
X157541607Y-96015500D01*
X157602029Y-96003481D01*
X157662452Y-95991463D01*
X157695792Y-95977652D01*
X157776286Y-95944312D01*
X157827509Y-95910084D01*
X157878733Y-95875858D01*
X157965858Y-95788733D01*
X157965859Y-95788731D01*
X157972925Y-95781665D01*
X157972927Y-95781661D01*
X162386977Y-91367612D01*
X162448298Y-91334129D01*
X162450465Y-91333678D01*
X162467422Y-91330304D01*
X162600789Y-91303776D01*
X162718552Y-91254997D01*
X162751019Y-91241549D01*
X162751023Y-91241547D01*
X162869545Y-91162353D01*
X162886225Y-91151208D01*
X163001208Y-91036225D01*
X163089278Y-90904419D01*
X163091547Y-90901023D01*
X163091549Y-90901019D01*
X163153774Y-90750793D01*
X163153776Y-90750789D01*
X163185500Y-90591305D01*
X163185500Y-90428695D01*
X163185500Y-90428692D01*
X163153777Y-90269216D01*
X163153776Y-90269215D01*
X163153776Y-90269211D01*
X163144255Y-90246225D01*
X163091549Y-90118980D01*
X163091547Y-90118976D01*
X163001211Y-89983779D01*
X163001205Y-89983771D01*
X162886228Y-89868794D01*
X162886220Y-89868788D01*
X162751023Y-89778452D01*
X162751019Y-89778450D01*
X162600793Y-89716225D01*
X162600783Y-89716222D01*
X162441307Y-89684500D01*
X162441305Y-89684500D01*
X162278695Y-89684500D01*
X162278693Y-89684500D01*
X162119216Y-89716222D01*
X162119206Y-89716225D01*
X161968980Y-89778450D01*
X161968976Y-89778452D01*
X161833779Y-89868788D01*
X161833771Y-89868794D01*
X161718794Y-89983771D01*
X161718788Y-89983779D01*
X161628452Y-90118976D01*
X161628450Y-90118980D01*
X161566225Y-90269206D01*
X161566222Y-90269216D01*
X161536321Y-90419535D01*
X161503936Y-90481446D01*
X161502385Y-90483024D01*
X157257229Y-94728181D01*
X157195906Y-94761666D01*
X157169548Y-94764500D01*
X156279000Y-94764500D01*
X156211961Y-94744815D01*
X156166206Y-94692011D01*
X156155000Y-94640500D01*
X156155000Y-88370000D01*
X130555000Y-88370000D01*
X130555000Y-95161102D01*
X130535315Y-95228141D01*
X130530267Y-95235413D01*
X130461203Y-95327669D01*
X130461202Y-95327671D01*
X130410908Y-95462517D01*
X130404501Y-95522116D01*
X130404501Y-95522123D01*
X130404500Y-95522135D01*
X130404500Y-97617870D01*
X130404501Y-97617876D01*
X130410908Y-97677483D01*
X130461202Y-97812328D01*
X130461206Y-97812335D01*
X130547452Y-97927544D01*
X130547455Y-97927547D01*
X130662664Y-98013793D01*
X130662673Y-98013798D01*
X130699914Y-98027688D01*
X130755848Y-98069559D01*
X130780266Y-98135023D01*
X130765415Y-98203296D01*
X130744265Y-98231550D01*
X130713027Y-98262787D01*
X130592715Y-98428386D01*
X130499781Y-98610776D01*
X130436522Y-98805465D01*
X130404500Y-99007648D01*
X130404500Y-99212351D01*
X130436522Y-99414534D01*
X130499781Y-99609223D01*
X130592715Y-99791613D01*
X130713028Y-99957213D01*
X130857786Y-100101971D01*
X131012749Y-100214556D01*
X131023390Y-100222287D01*
X131114840Y-100268883D01*
X131116080Y-100269515D01*
X131166876Y-100317490D01*
X131183671Y-100385311D01*
X131161134Y-100451446D01*
X131116080Y-100490485D01*
X131023386Y-100537715D01*
X130857786Y-100658028D01*
X130713028Y-100802786D01*
X130592715Y-100968386D01*
X130499781Y-101150776D01*
X130436522Y-101345465D01*
X130404500Y-101547648D01*
X130404500Y-101752351D01*
X130436522Y-101954534D01*
X130499781Y-102149223D01*
X130592715Y-102331613D01*
X130713028Y-102497213D01*
X130857786Y-102641971D01*
X131012749Y-102754556D01*
X131023390Y-102762287D01*
X131096613Y-102799596D01*
X131116080Y-102809515D01*
X131166876Y-102857490D01*
X131183671Y-102925311D01*
X131161134Y-102991446D01*
X131116080Y-103030485D01*
X131023386Y-103077715D01*
X130857786Y-103198028D01*
X130713028Y-103342786D01*
X130592715Y-103508386D01*
X130499781Y-103690776D01*
X130436522Y-103885465D01*
X130404500Y-104087648D01*
X130404500Y-104292351D01*
X130436522Y-104494534D01*
X130499781Y-104689223D01*
X130592715Y-104871613D01*
X130713028Y-105037213D01*
X130857786Y-105181971D01*
X131012749Y-105294556D01*
X131023390Y-105302287D01*
X131114840Y-105348883D01*
X131116080Y-105349515D01*
X131166876Y-105397490D01*
X131183671Y-105465311D01*
X131161134Y-105531446D01*
X131116080Y-105570485D01*
X131023386Y-105617715D01*
X130857786Y-105738028D01*
X130713028Y-105882786D01*
X130592715Y-106048386D01*
X130499781Y-106230776D01*
X130436522Y-106425465D01*
X130404500Y-106627648D01*
X130404500Y-106832351D01*
X130436522Y-107034534D01*
X130499781Y-107229223D01*
X130592715Y-107411613D01*
X130713028Y-107577213D01*
X130857786Y-107721971D01*
X131012749Y-107834556D01*
X131023390Y-107842287D01*
X131113366Y-107888132D01*
X131116080Y-107889515D01*
X131166876Y-107937490D01*
X131183671Y-108005311D01*
X131161134Y-108071446D01*
X131116080Y-108110485D01*
X131023386Y-108157715D01*
X130857786Y-108278028D01*
X130713028Y-108422786D01*
X130592715Y-108588386D01*
X130499781Y-108770776D01*
X130436522Y-108965465D01*
X130404500Y-109167648D01*
X130404500Y-109372351D01*
X130436522Y-109574534D01*
X130499781Y-109769223D01*
X130523861Y-109816481D01*
X130570406Y-109907831D01*
X130592715Y-109951613D01*
X130713028Y-110117213D01*
X130857786Y-110261971D01*
X131012749Y-110374556D01*
X131023390Y-110382287D01*
X131114840Y-110428883D01*
X131116080Y-110429515D01*
X131166876Y-110477490D01*
X131183671Y-110545311D01*
X131161134Y-110611446D01*
X131116080Y-110650485D01*
X131023386Y-110697715D01*
X130857786Y-110818028D01*
X130713028Y-110962786D01*
X130592715Y-111128386D01*
X130499781Y-111310776D01*
X130436522Y-111505465D01*
X130404500Y-111707648D01*
X130404500Y-111912351D01*
X130436522Y-112114534D01*
X130499781Y-112309223D01*
X130592715Y-112491613D01*
X130713028Y-112657213D01*
X130857786Y-112801971D01*
X131012749Y-112914556D01*
X131023390Y-112922287D01*
X131114840Y-112968883D01*
X131116080Y-112969515D01*
X131166876Y-113017490D01*
X131183671Y-113085311D01*
X131161134Y-113151446D01*
X131116080Y-113190485D01*
X131023386Y-113237715D01*
X130857786Y-113358028D01*
X130713028Y-113502786D01*
X130592715Y-113668386D01*
X130499781Y-113850776D01*
X130436522Y-114045465D01*
X130404500Y-114247648D01*
X130404500Y-114452351D01*
X130436522Y-114654534D01*
X130499781Y-114849223D01*
X130592715Y-115031613D01*
X130713028Y-115197213D01*
X130857786Y-115341971D01*
X131012749Y-115454556D01*
X131023390Y-115462287D01*
X131139607Y-115521503D01*
X131205776Y-115555218D01*
X131205778Y-115555218D01*
X131205781Y-115555220D01*
X131310137Y-115589127D01*
X131400465Y-115618477D01*
X131501557Y-115634488D01*
X131602648Y-115650500D01*
X131602649Y-115650500D01*
X132207351Y-115650500D01*
X132207352Y-115650500D01*
X132409534Y-115618477D01*
X132604219Y-115555220D01*
X132786610Y-115462287D01*
X132879590Y-115394732D01*
X132952213Y-115341971D01*
X132952215Y-115341968D01*
X132952219Y-115341966D01*
X133096966Y-115197219D01*
X133096968Y-115197215D01*
X133096971Y-115197213D01*
X133149732Y-115124590D01*
X133217287Y-115031610D01*
X133310220Y-114849219D01*
X133373477Y-114654534D01*
X133405500Y-114452352D01*
X133405500Y-114247648D01*
X133373477Y-114045466D01*
X133310220Y-113850781D01*
X133310218Y-113850778D01*
X133310218Y-113850776D01*
X133276503Y-113784607D01*
X133217287Y-113668390D01*
X133209556Y-113657749D01*
X133096971Y-113502786D01*
X132952213Y-113358028D01*
X132786614Y-113237715D01*
X132780006Y-113234348D01*
X132693917Y-113190483D01*
X132643123Y-113142511D01*
X132626328Y-113074690D01*
X132648865Y-113008555D01*
X132693917Y-112969516D01*
X132786610Y-112922287D01*
X132807770Y-112906913D01*
X132952213Y-112801971D01*
X132952215Y-112801968D01*
X132952219Y-112801966D01*
X133096966Y-112657219D01*
X133096968Y-112657215D01*
X133096971Y-112657213D01*
X133149732Y-112584590D01*
X133217287Y-112491610D01*
X133310220Y-112309219D01*
X133373477Y-112114534D01*
X133405500Y-111912352D01*
X133405500Y-111707648D01*
X133373477Y-111505466D01*
X133310220Y-111310781D01*
X133310218Y-111310778D01*
X133310218Y-111310776D01*
X133246242Y-111185218D01*
X133217287Y-111128390D01*
X133191055Y-111092284D01*
X133096971Y-110962786D01*
X132952213Y-110818028D01*
X132786614Y-110697715D01*
X132735886Y-110671868D01*
X132693917Y-110650483D01*
X132643123Y-110602511D01*
X132626328Y-110534690D01*
X132648865Y-110468555D01*
X132693917Y-110429516D01*
X132786610Y-110382287D01*
X132807770Y-110366913D01*
X132952213Y-110261971D01*
X132952215Y-110261968D01*
X132952219Y-110261966D01*
X133096966Y-110117219D01*
X133096968Y-110117215D01*
X133096971Y-110117213D01*
X133220151Y-109947669D01*
X133221823Y-109948884D01*
X133267208Y-109907831D01*
X133321115Y-109895500D01*
X142937617Y-109895500D01*
X143004656Y-109915185D01*
X143006507Y-109916397D01*
X143118982Y-109991550D01*
X143269206Y-110053774D01*
X143269211Y-110053776D01*
X143269215Y-110053776D01*
X143269216Y-110053777D01*
X143428692Y-110085500D01*
X143428695Y-110085500D01*
X143591307Y-110085500D01*
X143698598Y-110064157D01*
X143750789Y-110053776D01*
X143850943Y-110012290D01*
X143901019Y-109991549D01*
X143901023Y-109991547D01*
X144013493Y-109916397D01*
X144036225Y-109901208D01*
X144151208Y-109786225D01*
X144196680Y-109718169D01*
X144241547Y-109651023D01*
X144241549Y-109651019D01*
X144303774Y-109500793D01*
X144303776Y-109500789D01*
X144314157Y-109448598D01*
X144335500Y-109341307D01*
X144335500Y-109178692D01*
X144303777Y-109019216D01*
X144303776Y-109019215D01*
X144303776Y-109019211D01*
X144281514Y-108965465D01*
X144241549Y-108868980D01*
X144241547Y-108868976D01*
X144151211Y-108733779D01*
X144151205Y-108733771D01*
X144036228Y-108618794D01*
X144036220Y-108618788D01*
X143901023Y-108528452D01*
X143901019Y-108528450D01*
X143750793Y-108466225D01*
X143750783Y-108466222D01*
X143591307Y-108434500D01*
X143591305Y-108434500D01*
X143428695Y-108434500D01*
X143428693Y-108434500D01*
X143269216Y-108466222D01*
X143269206Y-108466225D01*
X143118980Y-108528450D01*
X143118976Y-108528452D01*
X142978709Y-108622176D01*
X142977456Y-108620301D01*
X142922421Y-108643668D01*
X142908081Y-108644500D01*
X133321115Y-108644500D01*
X133254076Y-108624815D01*
X133221393Y-108591428D01*
X133220151Y-108592331D01*
X133096971Y-108422786D01*
X132952213Y-108278028D01*
X132786614Y-108157715D01*
X132780006Y-108154348D01*
X132693917Y-108110483D01*
X132643123Y-108062511D01*
X132626328Y-107994690D01*
X132648865Y-107928555D01*
X132693917Y-107889516D01*
X132786610Y-107842287D01*
X132910863Y-107752013D01*
X132952213Y-107721971D01*
X132952215Y-107721968D01*
X132952219Y-107721966D01*
X133096966Y-107577219D01*
X133096968Y-107577215D01*
X133096971Y-107577213D01*
X133149732Y-107504590D01*
X133217287Y-107411610D01*
X133310220Y-107229219D01*
X133373477Y-107034534D01*
X133405500Y-106832352D01*
X133405500Y-106627648D01*
X133373477Y-106425466D01*
X133373476Y-106425462D01*
X133373476Y-106425461D01*
X133328451Y-106286889D01*
X133328016Y-106271675D01*
X133322698Y-106257416D01*
X133327039Y-106237460D01*
X133326456Y-106217048D01*
X133334543Y-106202962D01*
X133337550Y-106189143D01*
X133358702Y-106160889D01*
X133417774Y-106101818D01*
X133479097Y-106068334D01*
X133505454Y-106065500D01*
X153242812Y-106065500D01*
X153309851Y-106085185D01*
X153355606Y-106137989D01*
X153365550Y-106207147D01*
X153360743Y-106227819D01*
X153359781Y-106230777D01*
X153359780Y-106230781D01*
X153357610Y-106237460D01*
X153296522Y-106425465D01*
X153264500Y-106627648D01*
X153264500Y-106832351D01*
X153296522Y-107034534D01*
X153359781Y-107229223D01*
X153452715Y-107411613D01*
X153573028Y-107577213D01*
X153717786Y-107721971D01*
X153872749Y-107834556D01*
X153883390Y-107842287D01*
X153973366Y-107888132D01*
X153976080Y-107889515D01*
X154026876Y-107937490D01*
X154043671Y-108005311D01*
X154021134Y-108071446D01*
X153976080Y-108110485D01*
X153883386Y-108157715D01*
X153717786Y-108278028D01*
X153573028Y-108422786D01*
X153452715Y-108588386D01*
X153359781Y-108770776D01*
X153296522Y-108965465D01*
X153264500Y-109167648D01*
X153264500Y-109372351D01*
X153296522Y-109574534D01*
X153359781Y-109769223D01*
X153383861Y-109816481D01*
X153430406Y-109907831D01*
X153452715Y-109951613D01*
X153573028Y-110117213D01*
X153717786Y-110261971D01*
X153872749Y-110374556D01*
X153883390Y-110382287D01*
X153974840Y-110428883D01*
X153976080Y-110429515D01*
X154026876Y-110477490D01*
X154043671Y-110545311D01*
X154021134Y-110611446D01*
X153976080Y-110650485D01*
X153883386Y-110697715D01*
X153717786Y-110818028D01*
X153573028Y-110962786D01*
X153452715Y-111128386D01*
X153359781Y-111310776D01*
X153296522Y-111505465D01*
X153264500Y-111707648D01*
X153264500Y-111912351D01*
X153296522Y-112114534D01*
X153359781Y-112309223D01*
X153452715Y-112491613D01*
X153573028Y-112657213D01*
X153717786Y-112801971D01*
X153872749Y-112914556D01*
X153883390Y-112922287D01*
X153974840Y-112968883D01*
X153976080Y-112969515D01*
X154026876Y-113017490D01*
X154043671Y-113085311D01*
X154021134Y-113151446D01*
X153976080Y-113190485D01*
X153883386Y-113237715D01*
X153717786Y-113358028D01*
X153573028Y-113502786D01*
X153452715Y-113668386D01*
X153359781Y-113850776D01*
X153296522Y-114045465D01*
X153264500Y-114247648D01*
X153264500Y-114452351D01*
X153282108Y-114563525D01*
X153273153Y-114632819D01*
X153247316Y-114670604D01*
X150874741Y-117043181D01*
X150813418Y-117076666D01*
X150787060Y-117079500D01*
X132292940Y-117079500D01*
X132225901Y-117059815D01*
X132205259Y-117043181D01*
X129136819Y-113974741D01*
X129103334Y-113913418D01*
X129100500Y-113887060D01*
X129100500Y-111002643D01*
X129120185Y-110935604D01*
X129172989Y-110889849D01*
X129211895Y-110879285D01*
X129302798Y-110869999D01*
X129469335Y-110814814D01*
X129618656Y-110722712D01*
X129742712Y-110598656D01*
X129834814Y-110449335D01*
X129889999Y-110282798D01*
X129900500Y-110180010D01*
X129900500Y-108379990D01*
X129889999Y-108277202D01*
X129834814Y-108110665D01*
X129742712Y-107961344D01*
X129618656Y-107837288D01*
X129510299Y-107770453D01*
X129469337Y-107745187D01*
X129469332Y-107745185D01*
X129467863Y-107744698D01*
X129302798Y-107690001D01*
X129302796Y-107690000D01*
X129200017Y-107679500D01*
X129200010Y-107679500D01*
X127399990Y-107679500D01*
X127399982Y-107679500D01*
X127297203Y-107690000D01*
X127297202Y-107690001D01*
X127214669Y-107717349D01*
X127130667Y-107745185D01*
X127130662Y-107745187D01*
X126981342Y-107837289D01*
X126857289Y-107961342D01*
X126765187Y-108110662D01*
X126765185Y-108110667D01*
X126722706Y-108238862D01*
X126682933Y-108296307D01*
X126618417Y-108323130D01*
X126549642Y-108310815D01*
X126498442Y-108263272D01*
X126487294Y-108238862D01*
X126444814Y-108110665D01*
X126352712Y-107961344D01*
X126228656Y-107837288D01*
X126120299Y-107770453D01*
X126079337Y-107745187D01*
X126079332Y-107745185D01*
X126077863Y-107744698D01*
X125912798Y-107690001D01*
X125912796Y-107690000D01*
X125810017Y-107679500D01*
X125810010Y-107679500D01*
X124009990Y-107679500D01*
X124009982Y-107679500D01*
X123907203Y-107690000D01*
X123907202Y-107690001D01*
X123824669Y-107717349D01*
X123740667Y-107745185D01*
X123740653Y-107745192D01*
X123729595Y-107752013D01*
X123662203Y-107770453D01*
X123595540Y-107749530D01*
X123550771Y-107695887D01*
X123540500Y-107646474D01*
X123540500Y-87811902D01*
X123909500Y-87811902D01*
X123909500Y-88048097D01*
X123946446Y-88281368D01*
X124019433Y-88505996D01*
X124126657Y-88716433D01*
X124265483Y-88907510D01*
X124432490Y-89074517D01*
X124623567Y-89213343D01*
X124757374Y-89281521D01*
X124808169Y-89329494D01*
X124824964Y-89397315D01*
X124811563Y-89448300D01*
X124737213Y-89594219D01*
X124675661Y-89783656D01*
X124675661Y-89783659D01*
X124644500Y-89980403D01*
X124644500Y-90179596D01*
X124675661Y-90376340D01*
X124675661Y-90376343D01*
X124737213Y-90565780D01*
X124737215Y-90565783D01*
X124827647Y-90743266D01*
X124944731Y-90904418D01*
X125085582Y-91045269D01*
X125246734Y-91162353D01*
X125424217Y-91252785D01*
X125424218Y-91252785D01*
X125428559Y-91254997D01*
X125428092Y-91255911D01*
X125462351Y-91278797D01*
X125780591Y-91597037D01*
X125717007Y-91614075D01*
X125602993Y-91679901D01*
X125509901Y-91772993D01*
X125444075Y-91887007D01*
X125427037Y-91950591D01*
X124855581Y-91379135D01*
X124855580Y-91379135D01*
X124828077Y-91416990D01*
X124737679Y-91594405D01*
X124676147Y-91783777D01*
X124645000Y-91980436D01*
X124645000Y-92179563D01*
X124676147Y-92376222D01*
X124737679Y-92565594D01*
X124828077Y-92743008D01*
X124855580Y-92780863D01*
X124855581Y-92780864D01*
X125427037Y-92209408D01*
X125444075Y-92272993D01*
X125509901Y-92387007D01*
X125602993Y-92480099D01*
X125717007Y-92545925D01*
X125780590Y-92562962D01*
X125462350Y-92881202D01*
X125428095Y-92904098D01*
X125428557Y-92905004D01*
X125424218Y-92907214D01*
X125424217Y-92907215D01*
X125356060Y-92941942D01*
X125246733Y-92997647D01*
X125154790Y-93064447D01*
X125085582Y-93114731D01*
X125085580Y-93114733D01*
X125085579Y-93114733D01*
X124944733Y-93255579D01*
X124944733Y-93255580D01*
X124944731Y-93255582D01*
X124894447Y-93324790D01*
X124827647Y-93416733D01*
X124737213Y-93594219D01*
X124675661Y-93783656D01*
X124675661Y-93783659D01*
X124644500Y-93980403D01*
X124644500Y-94179596D01*
X124675661Y-94376340D01*
X124675661Y-94376343D01*
X124737213Y-94565780D01*
X124811563Y-94711699D01*
X124824459Y-94780368D01*
X124798183Y-94845109D01*
X124757373Y-94878479D01*
X124623566Y-94946657D01*
X124514550Y-95025862D01*
X124432490Y-95085483D01*
X124432488Y-95085485D01*
X124432487Y-95085485D01*
X124265485Y-95252487D01*
X124265485Y-95252488D01*
X124265483Y-95252490D01*
X124222503Y-95311647D01*
X124126657Y-95443566D01*
X124019433Y-95654003D01*
X123946446Y-95878631D01*
X123909500Y-96111902D01*
X123909500Y-96348097D01*
X123946446Y-96581368D01*
X124019433Y-96805996D01*
X124126657Y-97016433D01*
X124265483Y-97207510D01*
X124432490Y-97374517D01*
X124623567Y-97513343D01*
X124718995Y-97561966D01*
X124834003Y-97620566D01*
X124834005Y-97620566D01*
X124834008Y-97620568D01*
X124954412Y-97659689D01*
X125058631Y-97693553D01*
X125291903Y-97730500D01*
X125291908Y-97730500D01*
X126528097Y-97730500D01*
X126761368Y-97693553D01*
X126810829Y-97677482D01*
X126985992Y-97620568D01*
X127196433Y-97513343D01*
X127387510Y-97374517D01*
X127554517Y-97207510D01*
X127693343Y-97016433D01*
X127800568Y-96805992D01*
X127873553Y-96581368D01*
X127910500Y-96348097D01*
X127910500Y-96111902D01*
X127873553Y-95878631D01*
X127800566Y-95654003D01*
X127733366Y-95522116D01*
X127693343Y-95443567D01*
X127554517Y-95252490D01*
X127387510Y-95085483D01*
X127196433Y-94946657D01*
X127062625Y-94878478D01*
X127011830Y-94830504D01*
X126995035Y-94762683D01*
X127008437Y-94711699D01*
X127082785Y-94565783D01*
X127144339Y-94376339D01*
X127175500Y-94179597D01*
X127175500Y-93980403D01*
X127144339Y-93783661D01*
X127144338Y-93783657D01*
X127144338Y-93783656D01*
X127082786Y-93594219D01*
X126992352Y-93416733D01*
X126875269Y-93255582D01*
X126734418Y-93114731D01*
X126653842Y-93056189D01*
X126573264Y-92997645D01*
X126438024Y-92928738D01*
X126395783Y-92907215D01*
X126395781Y-92907214D01*
X126391443Y-92905004D01*
X126391905Y-92904096D01*
X126357648Y-92881202D01*
X126039409Y-92562962D01*
X126102993Y-92545925D01*
X126217007Y-92480099D01*
X126310099Y-92387007D01*
X126375925Y-92272993D01*
X126392962Y-92209408D01*
X126964417Y-92780863D01*
X126964418Y-92780863D01*
X126991924Y-92743005D01*
X127082320Y-92565594D01*
X127143852Y-92376222D01*
X127175000Y-92179563D01*
X127175000Y-91980436D01*
X127143852Y-91783777D01*
X127082320Y-91594405D01*
X126991924Y-91416994D01*
X126964417Y-91379135D01*
X126964417Y-91379134D01*
X126392962Y-91950590D01*
X126375925Y-91887007D01*
X126310099Y-91772993D01*
X126217007Y-91679901D01*
X126102993Y-91614075D01*
X126039406Y-91597036D01*
X126357645Y-91278798D01*
X126391907Y-91255912D01*
X126391441Y-91254997D01*
X126395780Y-91252785D01*
X126395783Y-91252785D01*
X126573266Y-91162353D01*
X126734418Y-91045269D01*
X126875269Y-90904418D01*
X126992353Y-90743266D01*
X127082785Y-90565783D01*
X127082786Y-90565780D01*
X127144338Y-90376343D01*
X127144338Y-90376342D01*
X127144339Y-90376339D01*
X127175500Y-90179597D01*
X127175500Y-89980403D01*
X127144339Y-89783661D01*
X127144338Y-89783657D01*
X127144338Y-89783656D01*
X127082786Y-89594219D01*
X127053969Y-89537663D01*
X127008435Y-89448297D01*
X126995540Y-89379631D01*
X127021816Y-89314891D01*
X127062625Y-89281521D01*
X127196433Y-89213343D01*
X127387510Y-89074517D01*
X127554517Y-88907510D01*
X127693343Y-88716433D01*
X127800568Y-88505992D01*
X127873553Y-88281368D01*
X127902279Y-88100000D01*
X127910500Y-88048097D01*
X127910500Y-87811902D01*
X127873553Y-87578631D01*
X127808796Y-87379332D01*
X127800568Y-87354008D01*
X127800566Y-87354005D01*
X127800566Y-87354003D01*
X127728617Y-87212796D01*
X127693343Y-87143567D01*
X127554517Y-86952490D01*
X127387510Y-86785483D01*
X127196433Y-86646657D01*
X126985996Y-86539433D01*
X126761368Y-86466446D01*
X126528097Y-86429500D01*
X126528092Y-86429500D01*
X125291908Y-86429500D01*
X125291903Y-86429500D01*
X125058631Y-86466446D01*
X124834003Y-86539433D01*
X124623566Y-86646657D01*
X124515049Y-86725500D01*
X124432490Y-86785483D01*
X124432488Y-86785485D01*
X124432487Y-86785485D01*
X124265485Y-86952487D01*
X124265485Y-86952488D01*
X124265483Y-86952490D01*
X124241900Y-86984949D01*
X124126657Y-87143566D01*
X124019433Y-87354003D01*
X123946446Y-87578631D01*
X123909500Y-87811902D01*
X123540500Y-87811902D01*
X123540500Y-85166961D01*
X123541280Y-85153078D01*
X123552211Y-85056062D01*
X123558390Y-85028990D01*
X123588324Y-84943444D01*
X123600371Y-84918428D01*
X123640339Y-84854818D01*
X123648588Y-84841689D01*
X123665897Y-84819984D01*
X123729984Y-84755897D01*
X123751690Y-84738588D01*
X123828428Y-84690371D01*
X123853444Y-84678324D01*
X123938990Y-84648390D01*
X123966059Y-84642211D01*
X124045746Y-84633232D01*
X124063078Y-84631280D01*
X124076961Y-84630500D01*
X124135892Y-84630500D01*
X130078770Y-84630500D01*
X130145809Y-84650185D01*
G37*
%TD.AperFunction*%
%TD*%
M02*
