%TF.GenerationSoftware,KiCad,Pcbnew,9.0.2*%
%TF.CreationDate,2025-06-18T17:22:37-04:00*%
%TF.ProjectId,CVISS_IMU_Tracker_Board,43564953-535f-4494-9d55-5f547261636b,rev?*%
%TF.SameCoordinates,Original*%
%TF.FileFunction,Copper,L1,Top*%
%TF.FilePolarity,Positive*%
%FSLAX46Y46*%
G04 Gerber Fmt 4.6, Leading zero omitted, Abs format (unit mm)*
G04 Created by KiCad (PCBNEW 9.0.2) date 2025-06-18 17:22:37*
%MOMM*%
%LPD*%
G01*
G04 APERTURE LIST*
G04 Aperture macros list*
%AMRoundRect*
0 Rectangle with rounded corners*
0 $1 Rounding radius*
0 $2 $3 $4 $5 $6 $7 $8 $9 X,Y pos of 4 corners*
0 Add a 4 corners polygon primitive as box body*
4,1,4,$2,$3,$4,$5,$6,$7,$8,$9,$2,$3,0*
0 Add four circle primitives for the rounded corners*
1,1,$1+$1,$2,$3*
1,1,$1+$1,$4,$5*
1,1,$1+$1,$6,$7*
1,1,$1+$1,$8,$9*
0 Add four rect primitives between the rounded corners*
20,1,$1+$1,$2,$3,$4,$5,0*
20,1,$1+$1,$4,$5,$6,$7,0*
20,1,$1+$1,$6,$7,$8,$9,0*
20,1,$1+$1,$8,$9,$2,$3,0*%
G04 Aperture macros list end*
%TA.AperFunction,ComponentPad*%
%ADD10C,1.530000*%
%TD*%
%TA.AperFunction,SMDPad,CuDef*%
%ADD11RoundRect,0.300000X-0.700000X-0.700000X0.700000X-0.700000X0.700000X0.700000X-0.700000X0.700000X0*%
%TD*%
%TA.AperFunction,ComponentPad*%
%ADD12O,3.000000X2.000000*%
%TD*%
%TA.AperFunction,ComponentPad*%
%ADD13C,2.200000*%
%TD*%
%TA.AperFunction,ComponentPad*%
%ADD14RoundRect,0.249999X-0.850001X-0.850001X0.850001X-0.850001X0.850001X0.850001X-0.850001X0.850001X0*%
%TD*%
%TA.AperFunction,ComponentPad*%
%ADD15C,1.600000*%
%TD*%
%TA.AperFunction,ComponentPad*%
%ADD16RoundRect,0.249999X-0.850001X0.850001X-0.850001X-0.850001X0.850001X-0.850001X0.850001X0.850001X0*%
%TD*%
%TA.AperFunction,ComponentPad*%
%ADD17R,2.000000X2.000000*%
%TD*%
%TA.AperFunction,ComponentPad*%
%ADD18O,2.000000X1.600000*%
%TD*%
%TA.AperFunction,SMDPad,CuDef*%
%ADD19O,1.500000X2.500000*%
%TD*%
%TA.AperFunction,ComponentPad*%
%ADD20R,1.800000X1.800000*%
%TD*%
%TA.AperFunction,ComponentPad*%
%ADD21C,1.800000*%
%TD*%
%TA.AperFunction,ViaPad*%
%ADD22C,1.000000*%
%TD*%
%TA.AperFunction,ViaPad*%
%ADD23C,0.650000*%
%TD*%
%TA.AperFunction,Conductor*%
%ADD24C,1.000000*%
%TD*%
%TA.AperFunction,Conductor*%
%ADD25C,0.250000*%
%TD*%
%TA.AperFunction,Conductor*%
%ADD26C,0.600000*%
%TD*%
G04 APERTURE END LIST*
D10*
%TO.P,U2,10,PS0*%
%TO.N,unconnected-(U2-PS0-Pad10)*%
X181280000Y-102700000D03*
%TO.P,U2,9,PS1*%
%TO.N,unconnected-(U2-PS1-Pad9)*%
X178740000Y-102700000D03*
%TO.P,U2,8,RST*%
%TO.N,unconnected-(U2-RST-Pad8)*%
X176200000Y-102700000D03*
%TO.P,U2,7,INT*%
%TO.N,/INT*%
X173660000Y-102700000D03*
%TO.P,U2,6,CS*%
%TO.N,unconnected-(U2-CS-Pad6)*%
X171120000Y-102700000D03*
%TO.P,U2,5,ADO*%
%TO.N,/SW_GND*%
X168580000Y-102700000D03*
%TO.P,U2,4,SDA*%
%TO.N,/SDA*%
X166040000Y-102700000D03*
%TO.P,U2,3,SCL*%
%TO.N,/SCL*%
X163500000Y-102700000D03*
%TO.P,U2,2,GND*%
%TO.N,/SW_GND*%
X160960000Y-102700000D03*
%TO.P,U2,1,VCC*%
%TO.N,+3.3V*%
X158420000Y-102700000D03*
%TD*%
D11*
%TO.P,U3,6,IN-*%
%TO.N,GND*%
X185585000Y-107005000D03*
%TO.P,U3,5,IN+*%
%TO.N,/IN+*%
X185585000Y-120705000D03*
%TO.P,U3,4,OUT-*%
%TO.N,GND*%
X162885000Y-107005000D03*
%TO.P,U3,3,B-*%
X162885000Y-110205000D03*
%TO.P,U3,2,B+*%
%TO.N,/B+*%
X162885000Y-117505000D03*
%TO.P,U3,1,OUT+*%
%TO.N,/OUT+*%
X162885000Y-120705000D03*
%TD*%
D12*
%TO.P,SW1,5*%
%TO.N,N/C*%
X125910000Y-87930000D03*
D10*
%TO.P,SW1,4*%
X125910000Y-90080000D03*
D12*
%TO.P,SW1,3*%
X125910000Y-96230000D03*
D10*
%TO.P,SW1,2,B*%
%TO.N,/SW_GND*%
X125910000Y-94080000D03*
%TO.P,SW1,1,A*%
%TO.N,GND*%
X125910000Y-92080000D03*
%TD*%
D13*
%TO.P,D8,2,A*%
%TO.N,/PWR_LED*%
X141730000Y-86200000D03*
D14*
%TO.P,D8,1,K*%
%TO.N,/GP_LED*%
X131570000Y-86200000D03*
%TD*%
D15*
%TO.P,R2,2*%
%TO.N,Net-(D1-A)*%
X159150000Y-86100000D03*
%TO.P,R2,1*%
%TO.N,Net-(U1-MOSI{slash}D7)*%
X166770000Y-86100000D03*
%TD*%
D16*
%TO.P,D7,1,K*%
%TO.N,+5V*%
X128300000Y-109280000D03*
D13*
%TO.P,D7,2,A*%
%TO.N,/OUT+*%
X128300000Y-119440000D03*
%TD*%
D17*
%TO.P,U1,1,~{RST}*%
%TO.N,unconnected-(U1-~{RST}-Pad1)*%
X131905000Y-96570000D03*
D18*
%TO.P,U1,2,A0*%
%TO.N,Net-(U1-A0)*%
X131905000Y-99110000D03*
%TO.P,U1,3,D0*%
%TO.N,unconnected-(U1-D0-Pad3)*%
X131905000Y-101650000D03*
%TO.P,U1,4,SCK/D5*%
%TO.N,unconnected-(U1-SCK{slash}D5-Pad4)*%
X131905000Y-104190000D03*
%TO.P,U1,5,MISO/D6*%
%TO.N,/INT*%
X131905000Y-106730000D03*
%TO.P,U1,6,MOSI/D7*%
%TO.N,Net-(U1-MOSI{slash}D7)*%
X131905000Y-109270000D03*
%TO.P,U1,7,CS/D8*%
%TO.N,unconnected-(U1-CS{slash}D8-Pad7)*%
X131905000Y-111810000D03*
%TO.P,U1,8,3V3*%
%TO.N,+3.3V*%
X131905000Y-114350000D03*
%TO.P,U1,9,5V*%
%TO.N,+5V*%
X154765000Y-114350000D03*
%TO.P,U1,10,GND*%
%TO.N,/SW_GND*%
X154765000Y-111810000D03*
%TO.P,U1,11,D4*%
%TO.N,unconnected-(U1-D4-Pad11)*%
X154765000Y-109270000D03*
%TO.P,U1,12,D3*%
%TO.N,unconnected-(U1-D3-Pad12)*%
X154765000Y-106730000D03*
%TO.P,U1,13,SDA/D2*%
%TO.N,/SDA*%
X154765000Y-104190000D03*
%TO.P,U1,14,SCL/D1*%
%TO.N,/SCL*%
X154765000Y-101650000D03*
%TO.P,U1,15,RX*%
%TO.N,unconnected-(U1-RX-Pad15)*%
X154765000Y-99110000D03*
%TO.P,U1,16,TX*%
%TO.N,unconnected-(U1-TX-Pad16)*%
X154765000Y-96570000D03*
%TD*%
D15*
%TO.P,R4,1*%
%TO.N,/IN+*%
X159520000Y-117600000D03*
%TO.P,R4,2*%
%TO.N,/PWR_LED*%
X159520000Y-109980000D03*
%TD*%
D14*
%TO.P,D1,1,K*%
%TO.N,/GP_LED*%
X144990000Y-86210000D03*
D13*
%TO.P,D1,2,A*%
%TO.N,Net-(D1-A)*%
X155150000Y-86210000D03*
%TD*%
D16*
%TO.P,D6,1,K*%
%TO.N,+5V*%
X124910000Y-109280000D03*
D13*
%TO.P,D6,2,A*%
%TO.N,/IN+*%
X124910000Y-119440000D03*
%TD*%
D15*
%TO.P,R1,1*%
%TO.N,Net-(U1-A0)*%
X170420000Y-86100000D03*
%TO.P,R1,2*%
%TO.N,/B+*%
X178040000Y-86100000D03*
%TD*%
D19*
%TO.P,U4,1,+*%
%TO.N,/B+*%
X186490000Y-91040000D03*
%TO.P,U4,2,-*%
%TO.N,GND*%
X183990000Y-91040000D03*
%TD*%
D20*
%TO.P,D9,1,K*%
%TO.N,GND*%
X126590000Y-104505000D03*
D21*
%TO.P,D9,2,A*%
%TO.N,/GP_LED*%
X126590000Y-101965000D03*
%TD*%
D22*
%TO.N,GND*%
X185585000Y-107005000D03*
D23*
%TO.N,Net-(U1-A0)*%
X162485000Y-93985000D03*
%TO.N,Net-(U1-MOSI{slash}D7)*%
X162360000Y-90510000D03*
X143510000Y-109260000D03*
X143510000Y-95495000D03*
%TO.N,/B+*%
X186490000Y-91040000D03*
D22*
%TO.N,GND*%
X162885000Y-107005000D03*
X162885000Y-110205000D03*
%TO.N,/IN+*%
X185585000Y-120705000D03*
%TD*%
D24*
%TO.N,GND*%
X183990000Y-104041530D02*
X177826530Y-110205000D01*
X183990000Y-91040000D02*
X183990000Y-104041530D01*
X177826530Y-110205000D02*
X162885000Y-110205000D01*
%TO.N,/B+*%
X186490000Y-103240000D02*
X172225000Y-117505000D01*
X186490000Y-91040000D02*
X186490000Y-103240000D01*
X172225000Y-117505000D02*
X162885000Y-117505000D01*
D25*
%TO.N,/PWR_LED*%
X143146000Y-84784000D02*
X141730000Y-86200000D01*
X156188000Y-84784000D02*
X143146000Y-84784000D01*
X159529999Y-88125999D02*
X156188000Y-84784000D01*
X159529999Y-90490001D02*
X159529999Y-88125999D01*
X159529999Y-109970001D02*
X159529999Y-90490001D01*
X159520000Y-109980000D02*
X159529999Y-109970001D01*
D26*
%TO.N,+3.3V*%
X158220000Y-102900000D02*
X158420000Y-102700000D01*
X156140000Y-117880000D02*
X158220000Y-115800000D01*
X131905000Y-117880000D02*
X156140000Y-117880000D01*
X131905000Y-114350000D02*
X131905000Y-117880000D01*
X158220000Y-115800000D02*
X158220000Y-102900000D01*
D25*
%TO.N,Net-(U1-A0)*%
X170370000Y-86100000D02*
X162485000Y-93985000D01*
X170420000Y-86100000D02*
X170370000Y-86100000D01*
%TO.N,Net-(U1-MOSI{slash}D7)*%
X166770000Y-86100000D02*
X162360000Y-90510000D01*
X143510000Y-95495000D02*
X143510000Y-109260000D01*
D26*
%TO.N,+5V*%
X124910000Y-109280000D02*
X128300000Y-109280000D01*
%TO.N,/OUT+*%
X162885000Y-120705000D02*
X129565000Y-120705000D01*
X129565000Y-120705000D02*
X128300000Y-119440000D01*
%TD*%
%TA.AperFunction,Conductor*%
%TO.N,/SW_GND*%
G36*
X130145809Y-84650185D02*
G01*
X130191564Y-84702989D01*
X130201508Y-84772147D01*
X130172483Y-84835703D01*
X130166451Y-84842181D01*
X130127289Y-84881342D01*
X130035187Y-85030662D01*
X130035186Y-85030665D01*
X129980001Y-85197202D01*
X129980001Y-85197203D01*
X129980000Y-85197203D01*
X129969500Y-85299982D01*
X129969500Y-87100017D01*
X129980000Y-87202796D01*
X130035185Y-87369332D01*
X130035187Y-87369337D01*
X130048231Y-87390485D01*
X130127288Y-87518656D01*
X130251344Y-87642712D01*
X130400665Y-87734814D01*
X130567202Y-87789999D01*
X130669990Y-87800500D01*
X130669995Y-87800500D01*
X132470005Y-87800500D01*
X132470010Y-87800500D01*
X132572798Y-87789999D01*
X132739335Y-87734814D01*
X132888656Y-87642712D01*
X133012712Y-87518656D01*
X133104814Y-87369335D01*
X133159999Y-87202798D01*
X133170500Y-87100010D01*
X133170500Y-85299990D01*
X133159999Y-85197202D01*
X133104814Y-85030665D01*
X133012712Y-84881344D01*
X132973549Y-84842181D01*
X132940064Y-84780858D01*
X132945048Y-84711166D01*
X132986920Y-84655233D01*
X133052384Y-84630816D01*
X133061230Y-84630500D01*
X140785665Y-84630500D01*
X140852704Y-84650185D01*
X140898459Y-84702989D01*
X140908403Y-84772147D01*
X140879378Y-84835703D01*
X140858550Y-84854818D01*
X140687350Y-84979201D01*
X140687345Y-84979205D01*
X140509205Y-85157345D01*
X140509201Y-85157350D01*
X140361132Y-85361151D01*
X140246760Y-85585616D01*
X140168910Y-85825214D01*
X140129500Y-86074038D01*
X140129500Y-86325961D01*
X140168910Y-86574785D01*
X140246760Y-86814383D01*
X140361132Y-87038848D01*
X140509201Y-87242649D01*
X140509205Y-87242654D01*
X140687345Y-87420794D01*
X140687350Y-87420798D01*
X140835805Y-87528656D01*
X140891155Y-87568870D01*
X141031032Y-87640141D01*
X141115616Y-87683239D01*
X141115618Y-87683239D01*
X141115621Y-87683241D01*
X141355215Y-87761090D01*
X141604038Y-87800500D01*
X141604039Y-87800500D01*
X141855961Y-87800500D01*
X141855962Y-87800500D01*
X142104785Y-87761090D01*
X142344379Y-87683241D01*
X142568845Y-87568870D01*
X142772656Y-87420793D01*
X142950793Y-87242656D01*
X143098870Y-87038845D01*
X143155015Y-86928653D01*
X143202990Y-86877858D01*
X143270811Y-86861063D01*
X143336945Y-86883600D01*
X143380397Y-86938315D01*
X143389500Y-86984949D01*
X143389500Y-87110017D01*
X143400000Y-87212796D01*
X143455185Y-87379332D01*
X143455187Y-87379337D01*
X143480758Y-87420794D01*
X143547288Y-87528656D01*
X143671344Y-87652712D01*
X143820665Y-87744814D01*
X143987202Y-87799999D01*
X144089990Y-87810500D01*
X144089995Y-87810500D01*
X145890005Y-87810500D01*
X145890010Y-87810500D01*
X145992798Y-87799999D01*
X146159335Y-87744814D01*
X146308656Y-87652712D01*
X146432712Y-87528656D01*
X146524814Y-87379335D01*
X146579999Y-87212798D01*
X146590500Y-87110010D01*
X146590500Y-85533500D01*
X146610185Y-85466461D01*
X146662989Y-85420706D01*
X146714500Y-85409500D01*
X153559242Y-85409500D01*
X153626281Y-85429185D01*
X153672036Y-85481989D01*
X153681980Y-85551147D01*
X153669728Y-85589792D01*
X153666762Y-85595613D01*
X153666760Y-85595618D01*
X153666759Y-85595621D01*
X153651494Y-85642601D01*
X153592160Y-85825214D01*
X153588910Y-85835215D01*
X153549500Y-86084038D01*
X153549500Y-86335962D01*
X153569847Y-86464426D01*
X153588910Y-86584785D01*
X153666760Y-86824383D01*
X153724812Y-86938315D01*
X153776036Y-87038848D01*
X153781132Y-87048848D01*
X153929201Y-87252649D01*
X153929205Y-87252654D01*
X154107345Y-87430794D01*
X154107350Y-87430798D01*
X154285117Y-87559952D01*
X154311155Y-87578870D01*
X154436448Y-87642710D01*
X154535616Y-87693239D01*
X154535618Y-87693239D01*
X154535621Y-87693241D01*
X154775215Y-87771090D01*
X155024038Y-87810500D01*
X155024039Y-87810500D01*
X155275961Y-87810500D01*
X155275962Y-87810500D01*
X155524785Y-87771090D01*
X155764379Y-87693241D01*
X155988845Y-87578870D01*
X156192656Y-87430793D01*
X156370793Y-87252656D01*
X156518870Y-87048845D01*
X156633241Y-86824379D01*
X156711090Y-86584785D01*
X156726768Y-86485794D01*
X156756697Y-86422661D01*
X156816008Y-86385729D01*
X156885871Y-86386727D01*
X156936922Y-86417512D01*
X158868180Y-88348770D01*
X158901665Y-88410093D01*
X158904499Y-88436451D01*
X158904499Y-101356126D01*
X158884814Y-101423165D01*
X158832010Y-101468920D01*
X158762852Y-101478864D01*
X158742182Y-101474057D01*
X158716341Y-101465661D01*
X158716342Y-101465661D01*
X158568782Y-101442290D01*
X158519597Y-101434500D01*
X158320403Y-101434500D01*
X158254822Y-101444887D01*
X158123659Y-101465661D01*
X158123656Y-101465661D01*
X157934219Y-101527213D01*
X157756733Y-101617647D01*
X157718286Y-101645581D01*
X157595582Y-101734731D01*
X157595580Y-101734733D01*
X157595579Y-101734733D01*
X157454733Y-101875579D01*
X157454733Y-101875580D01*
X157454731Y-101875582D01*
X157404447Y-101944790D01*
X157337647Y-102036733D01*
X157247213Y-102214219D01*
X157185661Y-102403656D01*
X157185661Y-102403659D01*
X157154500Y-102600403D01*
X157154500Y-102799596D01*
X157185661Y-102996340D01*
X157185661Y-102996343D01*
X157247213Y-103185780D01*
X157260485Y-103211827D01*
X157337647Y-103363266D01*
X157395818Y-103443331D01*
X157419298Y-103509136D01*
X157419500Y-103516216D01*
X157419500Y-115417060D01*
X157399815Y-115484099D01*
X157383181Y-115504741D01*
X155844741Y-117043181D01*
X155783418Y-117076666D01*
X155757060Y-117079500D01*
X132829500Y-117079500D01*
X132762461Y-117059815D01*
X132716706Y-117007011D01*
X132705500Y-116955500D01*
X132705500Y-115579601D01*
X132725185Y-115512562D01*
X132773206Y-115469116D01*
X132786610Y-115462287D01*
X132952219Y-115341966D01*
X133096966Y-115197219D01*
X133096968Y-115197215D01*
X133096971Y-115197213D01*
X133149732Y-115124590D01*
X133217287Y-115031610D01*
X133310220Y-114849219D01*
X133373477Y-114654534D01*
X133405500Y-114452352D01*
X133405500Y-114247648D01*
X133373477Y-114045466D01*
X133310220Y-113850781D01*
X133310218Y-113850778D01*
X133310218Y-113850776D01*
X133276503Y-113784607D01*
X133217287Y-113668390D01*
X133209556Y-113657749D01*
X133096971Y-113502786D01*
X132952213Y-113358028D01*
X132786614Y-113237715D01*
X132780006Y-113234348D01*
X132693917Y-113190483D01*
X132643123Y-113142511D01*
X132626328Y-113074690D01*
X132648865Y-113008555D01*
X132693917Y-112969516D01*
X132786610Y-112922287D01*
X132807770Y-112906913D01*
X132952213Y-112801971D01*
X132952215Y-112801968D01*
X132952219Y-112801966D01*
X133096966Y-112657219D01*
X133096968Y-112657215D01*
X133096971Y-112657213D01*
X133149732Y-112584590D01*
X133217287Y-112491610D01*
X133310220Y-112309219D01*
X133373477Y-112114534D01*
X133405500Y-111912352D01*
X133405500Y-111707648D01*
X133393326Y-111630788D01*
X133373477Y-111505465D01*
X133341569Y-111407262D01*
X133310220Y-111310781D01*
X133310218Y-111310778D01*
X133310218Y-111310776D01*
X133270620Y-111233062D01*
X133217287Y-111128390D01*
X133191055Y-111092284D01*
X133096971Y-110962786D01*
X132952213Y-110818028D01*
X132786614Y-110697715D01*
X132735886Y-110671868D01*
X132693917Y-110650483D01*
X132643123Y-110602511D01*
X132626328Y-110534690D01*
X132648865Y-110468555D01*
X132693917Y-110429516D01*
X132786610Y-110382287D01*
X132807770Y-110366913D01*
X132952213Y-110261971D01*
X132952215Y-110261968D01*
X132952219Y-110261966D01*
X133096966Y-110117219D01*
X133096968Y-110117215D01*
X133096971Y-110117213D01*
X133149732Y-110044590D01*
X133217287Y-109951610D01*
X133310220Y-109769219D01*
X133373477Y-109574534D01*
X133405500Y-109372352D01*
X133405500Y-109167648D01*
X133381989Y-109019206D01*
X133373477Y-108965465D01*
X133312958Y-108779209D01*
X133310220Y-108770781D01*
X133310218Y-108770778D01*
X133310218Y-108770776D01*
X133261347Y-108674862D01*
X133217287Y-108588390D01*
X133209556Y-108577749D01*
X133096971Y-108422786D01*
X132952213Y-108278028D01*
X132786614Y-108157715D01*
X132780006Y-108154348D01*
X132693917Y-108110483D01*
X132643123Y-108062511D01*
X132626328Y-107994690D01*
X132648865Y-107928555D01*
X132693917Y-107889516D01*
X132786610Y-107842287D01*
X132910863Y-107752013D01*
X132952213Y-107721971D01*
X132952215Y-107721968D01*
X132952219Y-107721966D01*
X133096966Y-107577219D01*
X133096968Y-107577215D01*
X133096971Y-107577213D01*
X133149732Y-107504590D01*
X133217287Y-107411610D01*
X133310220Y-107229219D01*
X133373477Y-107034534D01*
X133405500Y-106832352D01*
X133405500Y-106627648D01*
X133373477Y-106425466D01*
X133310220Y-106230781D01*
X133310218Y-106230778D01*
X133310218Y-106230776D01*
X133238087Y-106089213D01*
X133217287Y-106048390D01*
X133198240Y-106022174D01*
X133096971Y-105882786D01*
X132952213Y-105738028D01*
X132786614Y-105617715D01*
X132780006Y-105614348D01*
X132693917Y-105570483D01*
X132643123Y-105522511D01*
X132626328Y-105454690D01*
X132648865Y-105388555D01*
X132693917Y-105349516D01*
X132786610Y-105302287D01*
X132807770Y-105286913D01*
X132952213Y-105181971D01*
X132952215Y-105181968D01*
X132952219Y-105181966D01*
X133096966Y-105037219D01*
X133096968Y-105037215D01*
X133096971Y-105037213D01*
X133149732Y-104964590D01*
X133217287Y-104871610D01*
X133310220Y-104689219D01*
X133373477Y-104494534D01*
X133405500Y-104292352D01*
X133405500Y-104087648D01*
X133373477Y-103885466D01*
X133370980Y-103877782D01*
X133330897Y-103754418D01*
X133310220Y-103690781D01*
X133310218Y-103690778D01*
X133310218Y-103690776D01*
X133273889Y-103619477D01*
X133217287Y-103508390D01*
X133170019Y-103443330D01*
X133096971Y-103342786D01*
X132952213Y-103198028D01*
X132786614Y-103077715D01*
X132780006Y-103074348D01*
X132693917Y-103030483D01*
X132643123Y-102982511D01*
X132626328Y-102914690D01*
X132648865Y-102848555D01*
X132693917Y-102809516D01*
X132786610Y-102762287D01*
X132807770Y-102746913D01*
X132952213Y-102641971D01*
X132952215Y-102641968D01*
X132952219Y-102641966D01*
X133096966Y-102497219D01*
X133096968Y-102497215D01*
X133096971Y-102497213D01*
X133172690Y-102392993D01*
X133217287Y-102331610D01*
X133310220Y-102149219D01*
X133373477Y-101954534D01*
X133405500Y-101752352D01*
X133405500Y-101547648D01*
X133385784Y-101423165D01*
X133373477Y-101345465D01*
X133310218Y-101150776D01*
X133260215Y-101052641D01*
X133217287Y-100968390D01*
X133165244Y-100896758D01*
X133096971Y-100802786D01*
X132952213Y-100658028D01*
X132786614Y-100537715D01*
X132780006Y-100534348D01*
X132693917Y-100490483D01*
X132643123Y-100442511D01*
X132626328Y-100374690D01*
X132648865Y-100308555D01*
X132693917Y-100269516D01*
X132786610Y-100222287D01*
X132807770Y-100206913D01*
X132952213Y-100101971D01*
X132952215Y-100101968D01*
X132952219Y-100101966D01*
X133096966Y-99957219D01*
X133096968Y-99957215D01*
X133096971Y-99957213D01*
X133149732Y-99884590D01*
X133217287Y-99791610D01*
X133310220Y-99609219D01*
X133373477Y-99414534D01*
X133405500Y-99212352D01*
X133405500Y-99007648D01*
X133373477Y-98805466D01*
X133310220Y-98610781D01*
X133310218Y-98610778D01*
X133310218Y-98610776D01*
X133276503Y-98544607D01*
X133217287Y-98428390D01*
X133209556Y-98417749D01*
X133096971Y-98262786D01*
X133065736Y-98231551D01*
X133032251Y-98170228D01*
X133037235Y-98100536D01*
X133079107Y-98044603D01*
X133110080Y-98027689D01*
X133147331Y-98013796D01*
X133262546Y-97927546D01*
X133348796Y-97812331D01*
X133399091Y-97677483D01*
X133405500Y-97617873D01*
X133405499Y-95522128D01*
X133399091Y-95462517D01*
X133397300Y-95457715D01*
X133352401Y-95337333D01*
X133347417Y-95267641D01*
X133380902Y-95206318D01*
X133442226Y-95172834D01*
X133468583Y-95170000D01*
X142581880Y-95170000D01*
X142648919Y-95189685D01*
X142694674Y-95242489D01*
X142704618Y-95311647D01*
X142703497Y-95318192D01*
X142684500Y-95413692D01*
X142684500Y-95413695D01*
X142684500Y-95576305D01*
X142684500Y-95576307D01*
X142684499Y-95576307D01*
X142716222Y-95735783D01*
X142716225Y-95735793D01*
X142778450Y-95886019D01*
X142778452Y-95886023D01*
X142863602Y-96013459D01*
X142884480Y-96080136D01*
X142884500Y-96082349D01*
X142884500Y-108672650D01*
X142864815Y-108739689D01*
X142863603Y-108741540D01*
X142778450Y-108868982D01*
X142716225Y-109019206D01*
X142716222Y-109019216D01*
X142684500Y-109178692D01*
X142684500Y-109178695D01*
X142684500Y-109341305D01*
X142684500Y-109341307D01*
X142684499Y-109341307D01*
X142716222Y-109500783D01*
X142716225Y-109500793D01*
X142778450Y-109651019D01*
X142778452Y-109651023D01*
X142868788Y-109786220D01*
X142868794Y-109786228D01*
X142983771Y-109901205D01*
X142983779Y-109901211D01*
X143118976Y-109991547D01*
X143118980Y-109991549D01*
X143269206Y-110053774D01*
X143269211Y-110053776D01*
X143269215Y-110053776D01*
X143269216Y-110053777D01*
X143428692Y-110085500D01*
X143428695Y-110085500D01*
X143591307Y-110085500D01*
X143698598Y-110064157D01*
X143750789Y-110053776D01*
X143901021Y-109991548D01*
X143901023Y-109991547D01*
X143968169Y-109946680D01*
X144036225Y-109901208D01*
X144151208Y-109786225D01*
X144196680Y-109718169D01*
X144241547Y-109651023D01*
X144241549Y-109651019D01*
X144303774Y-109500793D01*
X144303776Y-109500789D01*
X144314157Y-109448598D01*
X144335500Y-109341307D01*
X144335500Y-109178692D01*
X144303777Y-109019216D01*
X144303776Y-109019215D01*
X144303776Y-109019211D01*
X144241548Y-108868979D01*
X144175931Y-108770776D01*
X144156397Y-108741540D01*
X144135520Y-108674862D01*
X144135500Y-108672650D01*
X144135500Y-96082349D01*
X144155185Y-96015310D01*
X144156398Y-96013459D01*
X144241547Y-95886023D01*
X144241549Y-95886019D01*
X144303774Y-95735793D01*
X144303776Y-95735789D01*
X144335156Y-95578034D01*
X144335500Y-95576307D01*
X144335500Y-95413692D01*
X144316503Y-95318192D01*
X144322730Y-95248600D01*
X144365592Y-95193423D01*
X144431482Y-95170178D01*
X144438120Y-95170000D01*
X153931561Y-95170000D01*
X153998600Y-95189685D01*
X154044355Y-95242489D01*
X154054299Y-95311647D01*
X154025274Y-95375203D01*
X153987856Y-95404485D01*
X153883385Y-95457715D01*
X153717786Y-95578028D01*
X153573028Y-95722786D01*
X153452715Y-95888386D01*
X153359781Y-96070776D01*
X153296522Y-96265465D01*
X153264500Y-96467648D01*
X153264500Y-96672351D01*
X153296522Y-96874534D01*
X153359781Y-97069223D01*
X153423691Y-97194653D01*
X153430243Y-97207511D01*
X153452715Y-97251613D01*
X153573028Y-97417213D01*
X153717786Y-97561971D01*
X153872749Y-97674556D01*
X153883390Y-97682287D01*
X153974840Y-97728883D01*
X153976080Y-97729515D01*
X154026876Y-97777490D01*
X154043671Y-97845311D01*
X154021134Y-97911446D01*
X153976080Y-97950485D01*
X153883386Y-97997715D01*
X153717786Y-98118028D01*
X153573028Y-98262786D01*
X153452715Y-98428386D01*
X153359781Y-98610776D01*
X153296522Y-98805465D01*
X153264500Y-99007648D01*
X153264500Y-99212351D01*
X153296522Y-99414534D01*
X153359781Y-99609223D01*
X153452715Y-99791613D01*
X153573028Y-99957213D01*
X153717786Y-100101971D01*
X153872749Y-100214556D01*
X153883390Y-100222287D01*
X153974840Y-100268883D01*
X153976080Y-100269515D01*
X154026876Y-100317490D01*
X154043671Y-100385311D01*
X154021134Y-100451446D01*
X153976080Y-100490485D01*
X153883386Y-100537715D01*
X153717786Y-100658028D01*
X153573028Y-100802786D01*
X153452715Y-100968386D01*
X153359781Y-101150776D01*
X153296522Y-101345465D01*
X153264500Y-101547648D01*
X153264500Y-101752351D01*
X153296522Y-101954534D01*
X153359781Y-102149223D01*
X153414067Y-102255763D01*
X153436556Y-102299901D01*
X153452715Y-102331613D01*
X153573028Y-102497213D01*
X153717786Y-102641971D01*
X153872749Y-102754556D01*
X153883390Y-102762287D01*
X153936006Y-102789096D01*
X153976080Y-102809515D01*
X154026876Y-102857490D01*
X154043671Y-102925311D01*
X154021134Y-102991446D01*
X153976080Y-103030485D01*
X153883386Y-103077715D01*
X153717786Y-103198028D01*
X153573028Y-103342786D01*
X153452715Y-103508386D01*
X153359781Y-103690776D01*
X153296522Y-103885465D01*
X153264500Y-104087648D01*
X153264500Y-104292351D01*
X153296522Y-104494534D01*
X153359781Y-104689223D01*
X153452715Y-104871613D01*
X153573028Y-105037213D01*
X153717786Y-105181971D01*
X153870358Y-105292819D01*
X153883390Y-105302287D01*
X153974840Y-105348883D01*
X153976080Y-105349515D01*
X154026876Y-105397490D01*
X154043671Y-105465311D01*
X154021134Y-105531446D01*
X153976080Y-105570485D01*
X153883386Y-105617715D01*
X153717786Y-105738028D01*
X153573028Y-105882786D01*
X153452715Y-106048386D01*
X153359781Y-106230776D01*
X153296522Y-106425465D01*
X153264500Y-106627648D01*
X153264500Y-106832351D01*
X153296522Y-107034534D01*
X153359781Y-107229223D01*
X153452715Y-107411613D01*
X153573028Y-107577213D01*
X153717786Y-107721971D01*
X153872749Y-107834556D01*
X153883390Y-107842287D01*
X153953094Y-107877803D01*
X153976080Y-107889515D01*
X154026876Y-107937490D01*
X154043671Y-108005311D01*
X154021134Y-108071446D01*
X153976080Y-108110485D01*
X153883386Y-108157715D01*
X153717786Y-108278028D01*
X153573028Y-108422786D01*
X153452715Y-108588386D01*
X153359781Y-108770776D01*
X153296522Y-108965465D01*
X153264500Y-109167648D01*
X153264500Y-109372351D01*
X153296522Y-109574534D01*
X153359781Y-109769223D01*
X153452715Y-109951613D01*
X153573028Y-110117213D01*
X153717786Y-110261971D01*
X153872749Y-110374556D01*
X153883390Y-110382287D01*
X153955424Y-110418990D01*
X153976629Y-110429795D01*
X154027425Y-110477770D01*
X154044220Y-110545591D01*
X154021682Y-110611726D01*
X153976629Y-110650765D01*
X153883650Y-110698140D01*
X153718105Y-110818417D01*
X153718104Y-110818417D01*
X153573417Y-110963104D01*
X153573417Y-110963105D01*
X153453140Y-111128650D01*
X153360244Y-111310970D01*
X153297009Y-111505586D01*
X153288391Y-111560000D01*
X154389722Y-111560000D01*
X154345667Y-111636306D01*
X154315000Y-111750756D01*
X154315000Y-111869244D01*
X154345667Y-111983694D01*
X154389722Y-112060000D01*
X153288391Y-112060000D01*
X153297009Y-112114413D01*
X153360244Y-112309029D01*
X153453140Y-112491349D01*
X153573417Y-112656894D01*
X153573417Y-112656895D01*
X153718104Y-112801582D01*
X153883652Y-112921861D01*
X153976628Y-112969234D01*
X154027425Y-113017208D01*
X154044220Y-113085029D01*
X154021683Y-113151164D01*
X153976630Y-113190203D01*
X153883388Y-113237713D01*
X153717786Y-113358028D01*
X153573028Y-113502786D01*
X153452715Y-113668386D01*
X153359781Y-113850776D01*
X153296522Y-114045465D01*
X153264500Y-114247648D01*
X153264500Y-114452351D01*
X153296522Y-114654534D01*
X153359781Y-114849223D01*
X153452715Y-115031613D01*
X153573028Y-115197213D01*
X153717786Y-115341971D01*
X153872749Y-115454556D01*
X153883390Y-115462287D01*
X153964499Y-115503614D01*
X154065776Y-115555218D01*
X154065778Y-115555218D01*
X154065781Y-115555220D01*
X154140818Y-115579601D01*
X154260465Y-115618477D01*
X154361557Y-115634488D01*
X154462648Y-115650500D01*
X154462649Y-115650500D01*
X155067351Y-115650500D01*
X155067352Y-115650500D01*
X155269534Y-115618477D01*
X155464219Y-115555220D01*
X155646610Y-115462287D01*
X155739590Y-115394732D01*
X155812213Y-115341971D01*
X155812215Y-115341968D01*
X155812219Y-115341966D01*
X155956966Y-115197219D01*
X155956968Y-115197215D01*
X155956971Y-115197213D01*
X156009732Y-115124590D01*
X156077287Y-115031610D01*
X156170220Y-114849219D01*
X156233477Y-114654534D01*
X156265500Y-114452352D01*
X156265500Y-114247648D01*
X156233477Y-114045466D01*
X156170220Y-113850781D01*
X156170218Y-113850778D01*
X156170218Y-113850776D01*
X156136503Y-113784607D01*
X156077287Y-113668390D01*
X156069556Y-113657749D01*
X155956971Y-113502786D01*
X155812213Y-113358028D01*
X155646611Y-113237713D01*
X155553369Y-113190203D01*
X155502574Y-113142229D01*
X155485779Y-113074407D01*
X155508317Y-113008273D01*
X155553371Y-112969234D01*
X155646347Y-112921861D01*
X155811894Y-112801582D01*
X155811895Y-112801582D01*
X155956582Y-112656895D01*
X155956582Y-112656894D01*
X156076859Y-112491349D01*
X156169755Y-112309029D01*
X156232990Y-112114413D01*
X156241609Y-112060000D01*
X155140278Y-112060000D01*
X155184333Y-111983694D01*
X155215000Y-111869244D01*
X155215000Y-111750756D01*
X155184333Y-111636306D01*
X155140278Y-111560000D01*
X156241609Y-111560000D01*
X156232990Y-111505586D01*
X156169755Y-111310970D01*
X156076859Y-111128650D01*
X155956582Y-110963105D01*
X155956582Y-110963104D01*
X155811895Y-110818417D01*
X155646349Y-110698140D01*
X155553370Y-110650765D01*
X155502574Y-110602790D01*
X155485779Y-110534969D01*
X155508316Y-110468835D01*
X155553370Y-110429795D01*
X155553920Y-110429515D01*
X155646610Y-110382287D01*
X155667770Y-110366913D01*
X155812213Y-110261971D01*
X155812215Y-110261968D01*
X155812219Y-110261966D01*
X155956966Y-110117219D01*
X155956968Y-110117215D01*
X155956971Y-110117213D01*
X156009732Y-110044590D01*
X156077287Y-109951610D01*
X156170220Y-109769219D01*
X156233477Y-109574534D01*
X156265500Y-109372352D01*
X156265500Y-109167648D01*
X156241989Y-109019206D01*
X156233477Y-108965465D01*
X156172958Y-108779209D01*
X156170220Y-108770781D01*
X156170218Y-108770778D01*
X156170218Y-108770776D01*
X156121347Y-108674862D01*
X156077287Y-108588390D01*
X156069556Y-108577749D01*
X155956971Y-108422786D01*
X155812213Y-108278028D01*
X155646614Y-108157715D01*
X155640006Y-108154348D01*
X155553917Y-108110483D01*
X155503123Y-108062511D01*
X155486328Y-107994690D01*
X155508865Y-107928555D01*
X155553917Y-107889516D01*
X155646610Y-107842287D01*
X155770863Y-107752013D01*
X155812213Y-107721971D01*
X155812215Y-107721968D01*
X155812219Y-107721966D01*
X155956966Y-107577219D01*
X155956968Y-107577215D01*
X155956971Y-107577213D01*
X156009732Y-107504590D01*
X156077287Y-107411610D01*
X156170220Y-107229219D01*
X156233477Y-107034534D01*
X156265500Y-106832352D01*
X156265500Y-106627648D01*
X156233477Y-106425466D01*
X156170220Y-106230781D01*
X156170218Y-106230778D01*
X156170218Y-106230776D01*
X156098087Y-106089213D01*
X156077287Y-106048390D01*
X156058240Y-106022174D01*
X155956971Y-105882786D01*
X155812213Y-105738028D01*
X155646614Y-105617715D01*
X155640006Y-105614348D01*
X155553917Y-105570483D01*
X155503123Y-105522511D01*
X155486328Y-105454690D01*
X155508865Y-105388555D01*
X155553917Y-105349516D01*
X155646610Y-105302287D01*
X155667770Y-105286913D01*
X155812213Y-105181971D01*
X155812215Y-105181968D01*
X155812219Y-105181966D01*
X155956966Y-105037219D01*
X155956968Y-105037215D01*
X155956971Y-105037213D01*
X156009732Y-104964590D01*
X156077287Y-104871610D01*
X156170220Y-104689219D01*
X156233477Y-104494534D01*
X156265500Y-104292352D01*
X156265500Y-104087648D01*
X156233477Y-103885466D01*
X156230980Y-103877782D01*
X156190897Y-103754418D01*
X156170220Y-103690781D01*
X156170218Y-103690778D01*
X156170218Y-103690776D01*
X156133889Y-103619477D01*
X156077287Y-103508390D01*
X156030019Y-103443330D01*
X155956971Y-103342786D01*
X155812213Y-103198028D01*
X155646614Y-103077715D01*
X155640006Y-103074348D01*
X155553917Y-103030483D01*
X155503123Y-102982511D01*
X155486328Y-102914690D01*
X155508865Y-102848555D01*
X155553917Y-102809516D01*
X155646610Y-102762287D01*
X155667770Y-102746913D01*
X155812213Y-102641971D01*
X155812215Y-102641968D01*
X155812219Y-102641966D01*
X155956966Y-102497219D01*
X155956968Y-102497215D01*
X155956971Y-102497213D01*
X156032690Y-102392993D01*
X156077287Y-102331610D01*
X156170220Y-102149219D01*
X156233477Y-101954534D01*
X156265500Y-101752352D01*
X156265500Y-101547648D01*
X156245784Y-101423165D01*
X156233477Y-101345465D01*
X156170218Y-101150776D01*
X156120215Y-101052641D01*
X156077287Y-100968390D01*
X156025244Y-100896758D01*
X155956971Y-100802786D01*
X155812213Y-100658028D01*
X155646614Y-100537715D01*
X155640006Y-100534348D01*
X155553917Y-100490483D01*
X155503123Y-100442511D01*
X155486328Y-100374690D01*
X155508865Y-100308555D01*
X155553917Y-100269516D01*
X155646610Y-100222287D01*
X155667770Y-100206913D01*
X155812213Y-100101971D01*
X155812215Y-100101968D01*
X155812219Y-100101966D01*
X155956966Y-99957219D01*
X155956968Y-99957215D01*
X155956971Y-99957213D01*
X156009732Y-99884590D01*
X156077287Y-99791610D01*
X156170220Y-99609219D01*
X156233477Y-99414534D01*
X156265500Y-99212352D01*
X156265500Y-99007648D01*
X156233477Y-98805466D01*
X156170220Y-98610781D01*
X156170218Y-98610778D01*
X156170218Y-98610776D01*
X156136503Y-98544607D01*
X156077287Y-98428390D01*
X156069556Y-98417749D01*
X155956971Y-98262786D01*
X155812213Y-98118028D01*
X155646614Y-97997715D01*
X155640006Y-97994348D01*
X155553917Y-97950483D01*
X155503123Y-97902511D01*
X155486328Y-97834690D01*
X155508865Y-97768555D01*
X155553917Y-97729516D01*
X155646610Y-97682287D01*
X155731560Y-97620568D01*
X155812213Y-97561971D01*
X155812215Y-97561968D01*
X155812219Y-97561966D01*
X155956966Y-97417219D01*
X155956968Y-97417215D01*
X155956971Y-97417213D01*
X156009732Y-97344590D01*
X156077287Y-97251610D01*
X156170220Y-97069219D01*
X156233477Y-96874534D01*
X156265500Y-96672352D01*
X156265500Y-96467648D01*
X156233477Y-96265466D01*
X156170220Y-96070781D01*
X156170218Y-96070778D01*
X156170218Y-96070776D01*
X156136503Y-96004607D01*
X156077287Y-95888390D01*
X156069556Y-95877749D01*
X155956971Y-95722786D01*
X155812213Y-95578028D01*
X155646614Y-95457715D01*
X155542144Y-95404485D01*
X155491348Y-95356510D01*
X155474553Y-95288689D01*
X155497090Y-95222555D01*
X155551805Y-95179103D01*
X155598439Y-95170000D01*
X156155000Y-95170000D01*
X156155000Y-88370000D01*
X130555000Y-88370000D01*
X130555000Y-95161102D01*
X130535315Y-95228141D01*
X130530267Y-95235413D01*
X130461203Y-95327669D01*
X130461202Y-95327671D01*
X130410908Y-95462517D01*
X130404501Y-95522116D01*
X130404501Y-95522123D01*
X130404500Y-95522135D01*
X130404500Y-97617870D01*
X130404501Y-97617876D01*
X130410908Y-97677483D01*
X130461202Y-97812328D01*
X130461206Y-97812335D01*
X130547452Y-97927544D01*
X130547455Y-97927547D01*
X130662664Y-98013793D01*
X130662673Y-98013798D01*
X130699914Y-98027688D01*
X130755848Y-98069559D01*
X130780266Y-98135023D01*
X130765415Y-98203296D01*
X130744265Y-98231550D01*
X130713027Y-98262787D01*
X130592715Y-98428386D01*
X130499781Y-98610776D01*
X130436522Y-98805465D01*
X130404500Y-99007648D01*
X130404500Y-99212351D01*
X130436522Y-99414534D01*
X130499781Y-99609223D01*
X130592715Y-99791613D01*
X130713028Y-99957213D01*
X130857786Y-100101971D01*
X131012749Y-100214556D01*
X131023390Y-100222287D01*
X131114840Y-100268883D01*
X131116080Y-100269515D01*
X131166876Y-100317490D01*
X131183671Y-100385311D01*
X131161134Y-100451446D01*
X131116080Y-100490485D01*
X131023386Y-100537715D01*
X130857786Y-100658028D01*
X130713028Y-100802786D01*
X130592715Y-100968386D01*
X130499781Y-101150776D01*
X130436522Y-101345465D01*
X130404500Y-101547648D01*
X130404500Y-101752351D01*
X130436522Y-101954534D01*
X130499781Y-102149223D01*
X130554067Y-102255763D01*
X130576556Y-102299901D01*
X130592715Y-102331613D01*
X130713028Y-102497213D01*
X130857786Y-102641971D01*
X131012749Y-102754556D01*
X131023390Y-102762287D01*
X131076006Y-102789096D01*
X131116080Y-102809515D01*
X131166876Y-102857490D01*
X131183671Y-102925311D01*
X131161134Y-102991446D01*
X131116080Y-103030485D01*
X131023386Y-103077715D01*
X130857786Y-103198028D01*
X130713028Y-103342786D01*
X130592715Y-103508386D01*
X130499781Y-103690776D01*
X130436522Y-103885465D01*
X130404500Y-104087648D01*
X130404500Y-104292351D01*
X130436522Y-104494534D01*
X130499781Y-104689223D01*
X130592715Y-104871613D01*
X130713028Y-105037213D01*
X130857786Y-105181971D01*
X131010358Y-105292819D01*
X131023390Y-105302287D01*
X131114840Y-105348883D01*
X131116080Y-105349515D01*
X131166876Y-105397490D01*
X131183671Y-105465311D01*
X131161134Y-105531446D01*
X131116080Y-105570485D01*
X131023386Y-105617715D01*
X130857786Y-105738028D01*
X130713028Y-105882786D01*
X130592715Y-106048386D01*
X130499781Y-106230776D01*
X130436522Y-106425465D01*
X130404500Y-106627648D01*
X130404500Y-106832351D01*
X130436522Y-107034534D01*
X130499781Y-107229223D01*
X130592715Y-107411613D01*
X130713028Y-107577213D01*
X130857786Y-107721971D01*
X131012749Y-107834556D01*
X131023390Y-107842287D01*
X131093094Y-107877803D01*
X131116080Y-107889515D01*
X131166876Y-107937490D01*
X131183671Y-108005311D01*
X131161134Y-108071446D01*
X131116080Y-108110485D01*
X131023386Y-108157715D01*
X130857786Y-108278028D01*
X130713028Y-108422786D01*
X130592715Y-108588386D01*
X130499781Y-108770776D01*
X130436522Y-108965465D01*
X130404500Y-109167648D01*
X130404500Y-109372351D01*
X130436522Y-109574534D01*
X130499781Y-109769223D01*
X130592715Y-109951613D01*
X130713028Y-110117213D01*
X130857786Y-110261971D01*
X131012749Y-110374556D01*
X131023390Y-110382287D01*
X131114840Y-110428883D01*
X131116080Y-110429515D01*
X131166876Y-110477490D01*
X131183671Y-110545311D01*
X131161134Y-110611446D01*
X131116080Y-110650485D01*
X131023386Y-110697715D01*
X130857786Y-110818028D01*
X130713028Y-110962786D01*
X130592715Y-111128386D01*
X130499781Y-111310776D01*
X130436522Y-111505465D01*
X130404500Y-111707648D01*
X130404500Y-111912351D01*
X130436522Y-112114534D01*
X130499781Y-112309223D01*
X130592715Y-112491613D01*
X130713028Y-112657213D01*
X130857786Y-112801971D01*
X131012749Y-112914556D01*
X131023390Y-112922287D01*
X131114840Y-112968883D01*
X131116080Y-112969515D01*
X131166876Y-113017490D01*
X131183671Y-113085311D01*
X131161134Y-113151446D01*
X131116080Y-113190485D01*
X131023386Y-113237715D01*
X130857786Y-113358028D01*
X130713028Y-113502786D01*
X130592715Y-113668386D01*
X130499781Y-113850776D01*
X130436522Y-114045465D01*
X130404500Y-114247648D01*
X130404500Y-114452351D01*
X130436522Y-114654534D01*
X130499781Y-114849223D01*
X130592715Y-115031613D01*
X130713028Y-115197213D01*
X130713034Y-115197219D01*
X130857781Y-115341966D01*
X131023390Y-115462287D01*
X131036793Y-115469116D01*
X131087589Y-115517088D01*
X131104500Y-115579601D01*
X131104500Y-117958846D01*
X131135261Y-118113489D01*
X131135264Y-118113501D01*
X131195602Y-118259172D01*
X131195609Y-118259185D01*
X131283210Y-118390288D01*
X131283213Y-118390292D01*
X131394707Y-118501786D01*
X131394711Y-118501789D01*
X131525814Y-118589390D01*
X131525827Y-118589397D01*
X131671498Y-118649735D01*
X131671503Y-118649737D01*
X131826153Y-118680499D01*
X131826156Y-118680500D01*
X131826158Y-118680500D01*
X156218844Y-118680500D01*
X156218845Y-118680499D01*
X156373497Y-118649737D01*
X156519179Y-118589394D01*
X156650289Y-118501789D01*
X158076376Y-117075702D01*
X158137699Y-117042217D01*
X158207391Y-117047201D01*
X158263324Y-117089073D01*
X158287741Y-117154537D01*
X158281988Y-117201701D01*
X158251523Y-117295461D01*
X158251523Y-117295464D01*
X158219500Y-117497648D01*
X158219500Y-117702351D01*
X158251522Y-117904534D01*
X158314781Y-118099223D01*
X158336976Y-118142782D01*
X158396280Y-118259172D01*
X158407715Y-118281613D01*
X158528028Y-118447213D01*
X158672786Y-118591971D01*
X158827749Y-118704556D01*
X158838390Y-118712287D01*
X158954607Y-118771503D01*
X159020776Y-118805218D01*
X159020778Y-118805218D01*
X159020781Y-118805220D01*
X159083569Y-118825621D01*
X159215465Y-118868477D01*
X159316557Y-118884488D01*
X159417648Y-118900500D01*
X159417649Y-118900500D01*
X159622351Y-118900500D01*
X159622352Y-118900500D01*
X159824534Y-118868477D01*
X160019219Y-118805220D01*
X160201610Y-118712287D01*
X160294590Y-118644732D01*
X160367213Y-118591971D01*
X160367215Y-118591968D01*
X160367219Y-118591966D01*
X160511966Y-118447219D01*
X160511968Y-118447215D01*
X160511971Y-118447213D01*
X160603669Y-118320999D01*
X160632287Y-118281610D01*
X160725220Y-118099219D01*
X160788477Y-117904534D01*
X160820500Y-117702352D01*
X160820500Y-117497648D01*
X160788477Y-117295466D01*
X160788476Y-117295464D01*
X160725218Y-117100776D01*
X160691503Y-117034607D01*
X160632287Y-116918390D01*
X160624556Y-116907749D01*
X160511971Y-116752786D01*
X160367213Y-116608028D01*
X160201613Y-116487715D01*
X160201612Y-116487714D01*
X160201610Y-116487713D01*
X160138345Y-116455478D01*
X160019223Y-116394781D01*
X159824534Y-116331522D01*
X159649995Y-116303878D01*
X159622352Y-116299500D01*
X159417648Y-116299500D01*
X159350254Y-116310174D01*
X159215464Y-116331523D01*
X159215461Y-116331523D01*
X159060127Y-116381995D01*
X158990286Y-116383990D01*
X158930453Y-116347910D01*
X158899625Y-116285209D01*
X158907590Y-116215794D01*
X158918709Y-116195170D01*
X158929391Y-116179183D01*
X158929394Y-116179179D01*
X158989737Y-116033497D01*
X159020500Y-115878842D01*
X159020500Y-111355800D01*
X159040185Y-111288761D01*
X159092989Y-111243006D01*
X159162147Y-111233062D01*
X159182820Y-111237870D01*
X159215458Y-111248475D01*
X159215461Y-111248475D01*
X159215466Y-111248477D01*
X159417648Y-111280500D01*
X159417649Y-111280500D01*
X159622351Y-111280500D01*
X159622352Y-111280500D01*
X159824534Y-111248477D01*
X160019219Y-111185220D01*
X160201610Y-111092287D01*
X160294590Y-111024732D01*
X160367213Y-110971971D01*
X160367215Y-110971968D01*
X160367219Y-110971966D01*
X160511966Y-110827219D01*
X160511968Y-110827215D01*
X160511971Y-110827213D01*
X160587894Y-110722712D01*
X160632287Y-110661610D01*
X160725220Y-110479219D01*
X160788477Y-110284534D01*
X160820500Y-110082352D01*
X160820500Y-109877648D01*
X160788477Y-109675466D01*
X160780534Y-109651021D01*
X160725218Y-109480776D01*
X160691503Y-109414607D01*
X160632287Y-109298390D01*
X160624556Y-109287749D01*
X160511971Y-109132786D01*
X160367217Y-108988032D01*
X160367212Y-108988028D01*
X160206614Y-108871347D01*
X160163948Y-108816017D01*
X160155499Y-108771029D01*
X160155499Y-103912179D01*
X160175184Y-103845140D01*
X160227988Y-103799385D01*
X160297146Y-103789441D01*
X160335794Y-103801694D01*
X160474405Y-103872320D01*
X160663777Y-103933852D01*
X160860437Y-103965000D01*
X161059563Y-103965000D01*
X161256222Y-103933852D01*
X161445594Y-103872320D01*
X161623005Y-103781924D01*
X161660863Y-103754418D01*
X161660863Y-103754417D01*
X161089408Y-103182962D01*
X161152993Y-103165925D01*
X161267007Y-103100099D01*
X161360099Y-103007007D01*
X161425925Y-102892993D01*
X161442962Y-102829408D01*
X162014417Y-103400863D01*
X162014418Y-103400863D01*
X162041924Y-103363005D01*
X162119234Y-103211277D01*
X162167208Y-103160481D01*
X162235029Y-103143686D01*
X162301164Y-103166223D01*
X162340204Y-103211277D01*
X162358638Y-103247455D01*
X162417647Y-103363266D01*
X162534731Y-103524418D01*
X162675582Y-103665269D01*
X162836734Y-103782353D01*
X162959961Y-103845140D01*
X163014219Y-103872786D01*
X163203657Y-103934338D01*
X163203658Y-103934338D01*
X163203661Y-103934339D01*
X163400403Y-103965500D01*
X163400404Y-103965500D01*
X163599596Y-103965500D01*
X163599597Y-103965500D01*
X163796339Y-103934339D01*
X163796342Y-103934338D01*
X163796343Y-103934338D01*
X163985780Y-103872786D01*
X163985780Y-103872785D01*
X163985783Y-103872785D01*
X164163266Y-103782353D01*
X164324418Y-103665269D01*
X164465269Y-103524418D01*
X164582353Y-103363266D01*
X164659515Y-103211827D01*
X164707490Y-103161031D01*
X164775311Y-103144236D01*
X164841446Y-103166773D01*
X164880485Y-103211827D01*
X164957647Y-103363266D01*
X165074731Y-103524418D01*
X165215582Y-103665269D01*
X165376734Y-103782353D01*
X165499961Y-103845140D01*
X165554219Y-103872786D01*
X165743657Y-103934338D01*
X165743658Y-103934338D01*
X165743661Y-103934339D01*
X165940403Y-103965500D01*
X165940404Y-103965500D01*
X166139596Y-103965500D01*
X166139597Y-103965500D01*
X166336339Y-103934339D01*
X166336342Y-103934338D01*
X166336343Y-103934338D01*
X166525780Y-103872786D01*
X166525780Y-103872785D01*
X166525783Y-103872785D01*
X166703266Y-103782353D01*
X166864418Y-103665269D01*
X167005269Y-103524418D01*
X167122353Y-103363266D01*
X167199795Y-103211276D01*
X167247769Y-103160481D01*
X167315590Y-103143686D01*
X167381725Y-103166223D01*
X167420765Y-103211277D01*
X167498077Y-103363008D01*
X167525580Y-103400863D01*
X167525581Y-103400864D01*
X168097037Y-102829408D01*
X168114075Y-102892993D01*
X168179901Y-103007007D01*
X168272993Y-103100099D01*
X168387007Y-103165925D01*
X168450590Y-103182962D01*
X167879134Y-103754417D01*
X167916994Y-103781924D01*
X168094405Y-103872320D01*
X168283777Y-103933852D01*
X168480437Y-103965000D01*
X168679563Y-103965000D01*
X168876222Y-103933852D01*
X169065594Y-103872320D01*
X169243005Y-103781924D01*
X169280863Y-103754418D01*
X169280863Y-103754417D01*
X168709409Y-103182962D01*
X168772993Y-103165925D01*
X168887007Y-103100099D01*
X168980099Y-103007007D01*
X169045925Y-102892993D01*
X169062962Y-102829408D01*
X169634417Y-103400863D01*
X169634418Y-103400863D01*
X169661924Y-103363005D01*
X169739234Y-103211277D01*
X169787208Y-103160481D01*
X169855029Y-103143686D01*
X169921164Y-103166223D01*
X169960204Y-103211277D01*
X169978638Y-103247455D01*
X170037647Y-103363266D01*
X170154731Y-103524418D01*
X170295582Y-103665269D01*
X170456734Y-103782353D01*
X170579961Y-103845140D01*
X170634219Y-103872786D01*
X170823657Y-103934338D01*
X170823658Y-103934338D01*
X170823661Y-103934339D01*
X171020403Y-103965500D01*
X171020404Y-103965500D01*
X171219596Y-103965500D01*
X171219597Y-103965500D01*
X171416339Y-103934339D01*
X171416342Y-103934338D01*
X171416343Y-103934338D01*
X171605780Y-103872786D01*
X171605780Y-103872785D01*
X171605783Y-103872785D01*
X171783266Y-103782353D01*
X171944418Y-103665269D01*
X172085269Y-103524418D01*
X172202353Y-103363266D01*
X172279515Y-103211827D01*
X172327490Y-103161031D01*
X172395311Y-103144236D01*
X172461446Y-103166773D01*
X172500485Y-103211827D01*
X172577647Y-103363266D01*
X172694731Y-103524418D01*
X172835582Y-103665269D01*
X172996734Y-103782353D01*
X173119961Y-103845140D01*
X173174219Y-103872786D01*
X173363657Y-103934338D01*
X173363658Y-103934338D01*
X173363661Y-103934339D01*
X173560403Y-103965500D01*
X173560404Y-103965500D01*
X173759596Y-103965500D01*
X173759597Y-103965500D01*
X173956339Y-103934339D01*
X173956342Y-103934338D01*
X173956343Y-103934338D01*
X174145780Y-103872786D01*
X174145780Y-103872785D01*
X174145783Y-103872785D01*
X174323266Y-103782353D01*
X174484418Y-103665269D01*
X174625269Y-103524418D01*
X174742353Y-103363266D01*
X174819515Y-103211827D01*
X174867490Y-103161031D01*
X174935311Y-103144236D01*
X175001446Y-103166773D01*
X175040485Y-103211827D01*
X175117647Y-103363266D01*
X175234731Y-103524418D01*
X175375582Y-103665269D01*
X175536734Y-103782353D01*
X175659961Y-103845140D01*
X175714219Y-103872786D01*
X175903657Y-103934338D01*
X175903658Y-103934338D01*
X175903661Y-103934339D01*
X176100403Y-103965500D01*
X176100404Y-103965500D01*
X176299596Y-103965500D01*
X176299597Y-103965500D01*
X176496339Y-103934339D01*
X176496342Y-103934338D01*
X176496343Y-103934338D01*
X176685780Y-103872786D01*
X176685780Y-103872785D01*
X176685783Y-103872785D01*
X176863266Y-103782353D01*
X177024418Y-103665269D01*
X177165269Y-103524418D01*
X177282353Y-103363266D01*
X177359515Y-103211827D01*
X177407490Y-103161031D01*
X177475311Y-103144236D01*
X177541446Y-103166773D01*
X177580485Y-103211827D01*
X177657647Y-103363266D01*
X177774731Y-103524418D01*
X177915582Y-103665269D01*
X178076734Y-103782353D01*
X178199961Y-103845140D01*
X178254219Y-103872786D01*
X178443657Y-103934338D01*
X178443658Y-103934338D01*
X178443661Y-103934339D01*
X178640403Y-103965500D01*
X178640404Y-103965500D01*
X178839596Y-103965500D01*
X178839597Y-103965500D01*
X179036339Y-103934339D01*
X179036342Y-103934338D01*
X179036343Y-103934338D01*
X179225780Y-103872786D01*
X179225780Y-103872785D01*
X179225783Y-103872785D01*
X179403266Y-103782353D01*
X179564418Y-103665269D01*
X179705269Y-103524418D01*
X179822353Y-103363266D01*
X179899515Y-103211827D01*
X179947490Y-103161031D01*
X180015311Y-103144236D01*
X180081446Y-103166773D01*
X180120485Y-103211827D01*
X180197647Y-103363266D01*
X180314731Y-103524418D01*
X180455582Y-103665269D01*
X180616734Y-103782353D01*
X180739961Y-103845140D01*
X180794219Y-103872786D01*
X180983657Y-103934338D01*
X180983658Y-103934338D01*
X180983661Y-103934339D01*
X181180403Y-103965500D01*
X181180404Y-103965500D01*
X181379596Y-103965500D01*
X181379597Y-103965500D01*
X181576339Y-103934339D01*
X181576342Y-103934338D01*
X181576343Y-103934338D01*
X181765780Y-103872786D01*
X181765780Y-103872785D01*
X181765783Y-103872785D01*
X181943266Y-103782353D01*
X182104418Y-103665269D01*
X182245269Y-103524418D01*
X182362353Y-103363266D01*
X182452785Y-103185783D01*
X182465587Y-103146383D01*
X182514338Y-102996343D01*
X182514338Y-102996342D01*
X182514339Y-102996339D01*
X182545500Y-102799597D01*
X182545500Y-102600403D01*
X182514339Y-102403661D01*
X182514338Y-102403657D01*
X182514338Y-102403656D01*
X182452786Y-102214219D01*
X182419667Y-102149219D01*
X182362353Y-102036734D01*
X182245269Y-101875582D01*
X182104418Y-101734731D01*
X181943266Y-101617647D01*
X181905305Y-101598305D01*
X181765780Y-101527213D01*
X181576342Y-101465661D01*
X181428782Y-101442290D01*
X181379597Y-101434500D01*
X181180403Y-101434500D01*
X181114822Y-101444887D01*
X180983659Y-101465661D01*
X180983656Y-101465661D01*
X180794219Y-101527213D01*
X180616733Y-101617647D01*
X180578286Y-101645581D01*
X180455582Y-101734731D01*
X180455580Y-101734733D01*
X180455579Y-101734733D01*
X180314733Y-101875579D01*
X180314733Y-101875580D01*
X180314731Y-101875582D01*
X180264447Y-101944790D01*
X180197647Y-102036733D01*
X180120485Y-102188172D01*
X180072510Y-102238968D01*
X180004689Y-102255763D01*
X179938554Y-102233225D01*
X179899515Y-102188172D01*
X179857877Y-102106453D01*
X179822353Y-102036734D01*
X179705269Y-101875582D01*
X179564418Y-101734731D01*
X179403266Y-101617647D01*
X179365305Y-101598305D01*
X179225780Y-101527213D01*
X179036342Y-101465661D01*
X178888782Y-101442290D01*
X178839597Y-101434500D01*
X178640403Y-101434500D01*
X178574822Y-101444887D01*
X178443659Y-101465661D01*
X178443656Y-101465661D01*
X178254219Y-101527213D01*
X178076733Y-101617647D01*
X178038286Y-101645581D01*
X177915582Y-101734731D01*
X177915580Y-101734733D01*
X177915579Y-101734733D01*
X177774733Y-101875579D01*
X177774733Y-101875580D01*
X177774731Y-101875582D01*
X177724447Y-101944790D01*
X177657647Y-102036733D01*
X177580485Y-102188172D01*
X177532510Y-102238968D01*
X177464689Y-102255763D01*
X177398554Y-102233225D01*
X177359515Y-102188172D01*
X177317877Y-102106453D01*
X177282353Y-102036734D01*
X177165269Y-101875582D01*
X177024418Y-101734731D01*
X176863266Y-101617647D01*
X176825305Y-101598305D01*
X176685780Y-101527213D01*
X176496342Y-101465661D01*
X176348782Y-101442290D01*
X176299597Y-101434500D01*
X176100403Y-101434500D01*
X176034822Y-101444887D01*
X175903659Y-101465661D01*
X175903656Y-101465661D01*
X175714219Y-101527213D01*
X175536733Y-101617647D01*
X175498286Y-101645581D01*
X175375582Y-101734731D01*
X175375580Y-101734733D01*
X175375579Y-101734733D01*
X175234733Y-101875579D01*
X175234733Y-101875580D01*
X175234731Y-101875582D01*
X175184447Y-101944790D01*
X175117647Y-102036733D01*
X175040485Y-102188172D01*
X174992510Y-102238968D01*
X174924689Y-102255763D01*
X174858554Y-102233225D01*
X174819515Y-102188172D01*
X174777877Y-102106453D01*
X174742353Y-102036734D01*
X174625269Y-101875582D01*
X174484418Y-101734731D01*
X174323266Y-101617647D01*
X174285305Y-101598305D01*
X174145780Y-101527213D01*
X173956342Y-101465661D01*
X173808782Y-101442290D01*
X173759597Y-101434500D01*
X173560403Y-101434500D01*
X173494822Y-101444887D01*
X173363659Y-101465661D01*
X173363656Y-101465661D01*
X173174219Y-101527213D01*
X172996733Y-101617647D01*
X172958286Y-101645581D01*
X172835582Y-101734731D01*
X172835580Y-101734733D01*
X172835579Y-101734733D01*
X172694733Y-101875579D01*
X172694733Y-101875580D01*
X172694731Y-101875582D01*
X172644447Y-101944790D01*
X172577647Y-102036733D01*
X172500485Y-102188172D01*
X172452510Y-102238968D01*
X172384689Y-102255763D01*
X172318554Y-102233225D01*
X172279515Y-102188172D01*
X172237877Y-102106453D01*
X172202353Y-102036734D01*
X172085269Y-101875582D01*
X171944418Y-101734731D01*
X171783266Y-101617647D01*
X171745305Y-101598305D01*
X171605780Y-101527213D01*
X171416342Y-101465661D01*
X171268782Y-101442290D01*
X171219597Y-101434500D01*
X171020403Y-101434500D01*
X170954822Y-101444887D01*
X170823659Y-101465661D01*
X170823656Y-101465661D01*
X170634219Y-101527213D01*
X170456733Y-101617647D01*
X170418286Y-101645581D01*
X170295582Y-101734731D01*
X170295580Y-101734733D01*
X170295579Y-101734733D01*
X170154733Y-101875579D01*
X170154733Y-101875580D01*
X170154731Y-101875582D01*
X170119555Y-101923997D01*
X170037645Y-102036735D01*
X169960203Y-102188723D01*
X169912229Y-102239518D01*
X169844408Y-102256313D01*
X169778273Y-102233775D01*
X169739234Y-102188722D01*
X169661924Y-102036994D01*
X169634417Y-101999135D01*
X169634417Y-101999134D01*
X169062962Y-102570590D01*
X169045925Y-102507007D01*
X168980099Y-102392993D01*
X168887007Y-102299901D01*
X168772993Y-102234075D01*
X168709409Y-102217037D01*
X169280864Y-101645581D01*
X169280863Y-101645580D01*
X169243008Y-101618077D01*
X169065594Y-101527679D01*
X168876222Y-101466147D01*
X168679563Y-101435000D01*
X168480437Y-101435000D01*
X168283777Y-101466147D01*
X168094405Y-101527679D01*
X167916990Y-101618077D01*
X167879135Y-101645580D01*
X167879135Y-101645581D01*
X168450591Y-102217037D01*
X168387007Y-102234075D01*
X168272993Y-102299901D01*
X168179901Y-102392993D01*
X168114075Y-102507007D01*
X168097037Y-102570591D01*
X167525581Y-101999135D01*
X167525580Y-101999135D01*
X167498075Y-102036993D01*
X167420764Y-102188723D01*
X167372790Y-102239518D01*
X167304969Y-102256313D01*
X167238834Y-102233775D01*
X167199795Y-102188722D01*
X167168299Y-102126909D01*
X167122353Y-102036734D01*
X167005269Y-101875582D01*
X166864418Y-101734731D01*
X166703266Y-101617647D01*
X166665305Y-101598305D01*
X166525780Y-101527213D01*
X166336342Y-101465661D01*
X166188782Y-101442290D01*
X166139597Y-101434500D01*
X165940403Y-101434500D01*
X165874822Y-101444887D01*
X165743659Y-101465661D01*
X165743656Y-101465661D01*
X165554219Y-101527213D01*
X165376733Y-101617647D01*
X165338286Y-101645581D01*
X165215582Y-101734731D01*
X165215580Y-101734733D01*
X165215579Y-101734733D01*
X165074733Y-101875579D01*
X165074733Y-101875580D01*
X165074731Y-101875582D01*
X165024447Y-101944790D01*
X164957647Y-102036733D01*
X164880485Y-102188172D01*
X164832510Y-102238968D01*
X164764689Y-102255763D01*
X164698554Y-102233225D01*
X164659515Y-102188172D01*
X164617877Y-102106453D01*
X164582353Y-102036734D01*
X164465269Y-101875582D01*
X164324418Y-101734731D01*
X164163266Y-101617647D01*
X164125305Y-101598305D01*
X163985780Y-101527213D01*
X163796342Y-101465661D01*
X163648782Y-101442290D01*
X163599597Y-101434500D01*
X163400403Y-101434500D01*
X163334822Y-101444887D01*
X163203659Y-101465661D01*
X163203656Y-101465661D01*
X163014219Y-101527213D01*
X162836733Y-101617647D01*
X162798286Y-101645581D01*
X162675582Y-101734731D01*
X162675580Y-101734733D01*
X162675579Y-101734733D01*
X162534733Y-101875579D01*
X162534733Y-101875580D01*
X162534731Y-101875582D01*
X162499555Y-101923997D01*
X162417645Y-102036735D01*
X162340203Y-102188723D01*
X162292229Y-102239518D01*
X162224408Y-102256313D01*
X162158273Y-102233775D01*
X162119234Y-102188722D01*
X162041924Y-102036994D01*
X162014417Y-101999135D01*
X162014417Y-101999134D01*
X161442962Y-102570590D01*
X161425925Y-102507007D01*
X161360099Y-102392993D01*
X161267007Y-102299901D01*
X161152993Y-102234075D01*
X161089407Y-102217036D01*
X161660864Y-101645580D01*
X161623008Y-101618077D01*
X161445594Y-101527679D01*
X161256222Y-101466147D01*
X161059563Y-101435000D01*
X160860437Y-101435000D01*
X160663777Y-101466147D01*
X160474405Y-101527679D01*
X160335794Y-101598305D01*
X160267124Y-101611201D01*
X160202384Y-101584925D01*
X160162127Y-101527818D01*
X160155499Y-101487820D01*
X160155499Y-88064392D01*
X160155498Y-88064388D01*
X160131463Y-87943554D01*
X160131462Y-87943547D01*
X160084310Y-87829713D01*
X160084309Y-87829712D01*
X160084306Y-87829706D01*
X160015857Y-87727266D01*
X160015854Y-87727262D01*
X159925636Y-87637044D01*
X159925605Y-87637015D01*
X159733195Y-87444605D01*
X159699710Y-87383282D01*
X159704694Y-87313590D01*
X159746566Y-87257657D01*
X159764577Y-87246441D01*
X159831610Y-87212287D01*
X159972374Y-87110017D01*
X159997213Y-87091971D01*
X159997215Y-87091968D01*
X159997219Y-87091966D01*
X160141966Y-86947219D01*
X160141968Y-86947215D01*
X160141971Y-86947213D01*
X160204561Y-86861063D01*
X160262287Y-86781610D01*
X160355220Y-86599219D01*
X160418477Y-86404534D01*
X160450500Y-86202352D01*
X160450500Y-85997648D01*
X160418477Y-85795466D01*
X160355220Y-85600781D01*
X160355218Y-85600778D01*
X160355218Y-85600776D01*
X160319395Y-85530471D01*
X160262287Y-85418390D01*
X160220701Y-85361151D01*
X160141971Y-85252786D01*
X159997213Y-85108028D01*
X159831613Y-84987715D01*
X159831612Y-84987714D01*
X159831610Y-84987713D01*
X159774653Y-84958691D01*
X159649223Y-84894781D01*
X159607861Y-84881342D01*
X159580434Y-84872430D01*
X159522760Y-84832993D01*
X159495562Y-84768634D01*
X159507477Y-84699788D01*
X159554721Y-84648312D01*
X159618754Y-84630500D01*
X166301246Y-84630500D01*
X166368285Y-84650185D01*
X166414040Y-84702989D01*
X166423984Y-84772147D01*
X166394959Y-84835703D01*
X166339565Y-84872430D01*
X166318296Y-84879341D01*
X166270776Y-84894781D01*
X166088386Y-84987715D01*
X165922786Y-85108028D01*
X165778028Y-85252786D01*
X165657715Y-85418386D01*
X165564781Y-85600776D01*
X165501522Y-85795465D01*
X165469500Y-85997648D01*
X165469500Y-86202351D01*
X165502285Y-86409346D01*
X165500252Y-86409667D01*
X165497165Y-86470834D01*
X165467781Y-86517627D01*
X162333024Y-89652385D01*
X162271701Y-89685870D01*
X162269535Y-89686321D01*
X162119216Y-89716222D01*
X162119206Y-89716225D01*
X161968980Y-89778450D01*
X161968976Y-89778452D01*
X161833779Y-89868788D01*
X161833771Y-89868794D01*
X161718794Y-89983771D01*
X161718788Y-89983779D01*
X161628452Y-90118976D01*
X161628450Y-90118980D01*
X161566225Y-90269206D01*
X161566222Y-90269216D01*
X161534500Y-90428692D01*
X161534500Y-90428695D01*
X161534500Y-90591305D01*
X161534500Y-90591307D01*
X161534499Y-90591307D01*
X161566222Y-90750783D01*
X161566225Y-90750793D01*
X161628450Y-90901019D01*
X161628452Y-90901023D01*
X161718788Y-91036220D01*
X161718794Y-91036228D01*
X161833771Y-91151205D01*
X161833779Y-91151211D01*
X161968976Y-91241547D01*
X161968980Y-91241549D01*
X162119206Y-91303774D01*
X162119211Y-91303776D01*
X162119215Y-91303776D01*
X162119216Y-91303777D01*
X162278692Y-91335500D01*
X162278695Y-91335500D01*
X162441307Y-91335500D01*
X162548598Y-91314157D01*
X162600789Y-91303776D01*
X162751021Y-91241548D01*
X162751023Y-91241547D01*
X162861571Y-91167681D01*
X162886225Y-91151208D01*
X163001208Y-91036225D01*
X163089278Y-90904419D01*
X163091547Y-90901023D01*
X163091549Y-90901019D01*
X163153774Y-90750793D01*
X163153776Y-90750789D01*
X163183678Y-90600465D01*
X163216063Y-90538554D01*
X163217559Y-90537030D01*
X166352373Y-87402215D01*
X166413694Y-87368732D01*
X166460410Y-87369249D01*
X166460654Y-87367715D01*
X166534032Y-87379337D01*
X166667648Y-87400500D01*
X166667649Y-87400500D01*
X166872351Y-87400500D01*
X166872352Y-87400500D01*
X167074534Y-87368477D01*
X167269219Y-87305220D01*
X167451610Y-87212287D01*
X167592374Y-87110017D01*
X167617213Y-87091971D01*
X167617215Y-87091968D01*
X167617219Y-87091966D01*
X167761966Y-86947219D01*
X167761968Y-86947215D01*
X167761971Y-86947213D01*
X167824561Y-86861063D01*
X167882287Y-86781610D01*
X167975220Y-86599219D01*
X168038477Y-86404534D01*
X168070500Y-86202352D01*
X168070500Y-85997648D01*
X168038477Y-85795466D01*
X167975220Y-85600781D01*
X167975218Y-85600778D01*
X167975218Y-85600776D01*
X167939395Y-85530471D01*
X167882287Y-85418390D01*
X167840701Y-85361151D01*
X167761971Y-85252786D01*
X167617213Y-85108028D01*
X167451613Y-84987715D01*
X167451612Y-84987714D01*
X167451610Y-84987713D01*
X167394653Y-84958691D01*
X167269223Y-84894781D01*
X167227861Y-84881342D01*
X167200434Y-84872430D01*
X167142760Y-84832993D01*
X167115562Y-84768634D01*
X167127477Y-84699788D01*
X167174721Y-84648312D01*
X167238754Y-84630500D01*
X169951246Y-84630500D01*
X170018285Y-84650185D01*
X170064040Y-84702989D01*
X170073984Y-84772147D01*
X170044959Y-84835703D01*
X169989565Y-84872430D01*
X169968296Y-84879341D01*
X169920776Y-84894781D01*
X169738386Y-84987715D01*
X169572786Y-85108028D01*
X169428028Y-85252786D01*
X169307715Y-85418386D01*
X169214781Y-85600776D01*
X169151522Y-85795465D01*
X169119500Y-85997648D01*
X169119500Y-86202351D01*
X169145652Y-86367469D01*
X169136697Y-86436763D01*
X169110860Y-86474548D01*
X162458024Y-93127385D01*
X162396701Y-93160870D01*
X162394535Y-93161321D01*
X162244216Y-93191222D01*
X162244206Y-93191225D01*
X162093980Y-93253450D01*
X162093976Y-93253452D01*
X161958779Y-93343788D01*
X161958771Y-93343794D01*
X161843794Y-93458771D01*
X161843788Y-93458779D01*
X161753452Y-93593976D01*
X161753450Y-93593980D01*
X161691225Y-93744206D01*
X161691222Y-93744216D01*
X161659500Y-93903692D01*
X161659500Y-93903695D01*
X161659500Y-94066305D01*
X161659500Y-94066307D01*
X161659499Y-94066307D01*
X161691222Y-94225783D01*
X161691225Y-94225793D01*
X161753450Y-94376019D01*
X161753452Y-94376023D01*
X161843788Y-94511220D01*
X161843794Y-94511228D01*
X161958771Y-94626205D01*
X161958779Y-94626211D01*
X162093976Y-94716547D01*
X162093980Y-94716549D01*
X162214446Y-94766447D01*
X162244211Y-94778776D01*
X162244215Y-94778776D01*
X162244216Y-94778777D01*
X162403692Y-94810500D01*
X162403695Y-94810500D01*
X162566307Y-94810500D01*
X162673598Y-94789157D01*
X162725789Y-94778776D01*
X162876021Y-94716548D01*
X162876023Y-94716547D01*
X162943169Y-94671680D01*
X163011225Y-94626208D01*
X163126208Y-94511225D01*
X163171680Y-94443169D01*
X163216547Y-94376023D01*
X163216549Y-94376019D01*
X163237290Y-94325943D01*
X163278776Y-94225789D01*
X163308678Y-94075465D01*
X163341063Y-94013554D01*
X163342558Y-94012031D01*
X169964105Y-87390483D01*
X170025426Y-87357000D01*
X170090099Y-87360234D01*
X170115466Y-87368477D01*
X170317648Y-87400500D01*
X170317649Y-87400500D01*
X170522351Y-87400500D01*
X170522352Y-87400500D01*
X170724534Y-87368477D01*
X170919219Y-87305220D01*
X171101610Y-87212287D01*
X171242374Y-87110017D01*
X171267213Y-87091971D01*
X171267215Y-87091968D01*
X171267219Y-87091966D01*
X171411966Y-86947219D01*
X171411968Y-86947215D01*
X171411971Y-86947213D01*
X171474561Y-86861063D01*
X171532287Y-86781610D01*
X171625220Y-86599219D01*
X171688477Y-86404534D01*
X171720500Y-86202352D01*
X171720500Y-85997648D01*
X171688477Y-85795466D01*
X171625220Y-85600781D01*
X171625218Y-85600778D01*
X171625218Y-85600776D01*
X171589395Y-85530471D01*
X171532287Y-85418390D01*
X171490701Y-85361151D01*
X171411971Y-85252786D01*
X171267213Y-85108028D01*
X171101613Y-84987715D01*
X171101612Y-84987714D01*
X171101610Y-84987713D01*
X171044653Y-84958691D01*
X170919223Y-84894781D01*
X170877861Y-84881342D01*
X170850434Y-84872430D01*
X170792760Y-84832993D01*
X170765562Y-84768634D01*
X170777477Y-84699788D01*
X170824721Y-84648312D01*
X170888754Y-84630500D01*
X177571246Y-84630500D01*
X177638285Y-84650185D01*
X177684040Y-84702989D01*
X177693984Y-84772147D01*
X177664959Y-84835703D01*
X177609565Y-84872430D01*
X177588296Y-84879341D01*
X177540776Y-84894781D01*
X177358386Y-84987715D01*
X177192786Y-85108028D01*
X177048028Y-85252786D01*
X176927715Y-85418386D01*
X176834781Y-85600776D01*
X176771522Y-85795465D01*
X176739500Y-85997648D01*
X176739500Y-86202351D01*
X176771522Y-86404534D01*
X176834781Y-86599223D01*
X176927715Y-86781613D01*
X177048028Y-86947213D01*
X177192786Y-87091971D01*
X177345327Y-87202796D01*
X177358390Y-87212287D01*
X177437605Y-87252649D01*
X177540776Y-87305218D01*
X177540778Y-87305218D01*
X177540781Y-87305220D01*
X177582601Y-87318808D01*
X177735465Y-87368477D01*
X177804032Y-87379337D01*
X177937648Y-87400500D01*
X177937649Y-87400500D01*
X178142351Y-87400500D01*
X178142352Y-87400500D01*
X178344534Y-87368477D01*
X178539219Y-87305220D01*
X178721610Y-87212287D01*
X178862374Y-87110017D01*
X178887213Y-87091971D01*
X178887215Y-87091968D01*
X178887219Y-87091966D01*
X179031966Y-86947219D01*
X179031968Y-86947215D01*
X179031971Y-86947213D01*
X179094561Y-86861063D01*
X179152287Y-86781610D01*
X179245220Y-86599219D01*
X179308477Y-86404534D01*
X179340500Y-86202352D01*
X179340500Y-85997648D01*
X179308477Y-85795466D01*
X179245220Y-85600781D01*
X179245218Y-85600778D01*
X179245218Y-85600776D01*
X179209395Y-85530471D01*
X179152287Y-85418390D01*
X179110701Y-85361151D01*
X179031971Y-85252786D01*
X178887213Y-85108028D01*
X178721613Y-84987715D01*
X178721612Y-84987714D01*
X178721610Y-84987713D01*
X178664653Y-84958691D01*
X178539223Y-84894781D01*
X178497861Y-84881342D01*
X178470434Y-84872430D01*
X178412760Y-84832993D01*
X178385562Y-84768634D01*
X178397477Y-84699788D01*
X178444721Y-84648312D01*
X178508754Y-84630500D01*
X181694108Y-84630500D01*
X181753039Y-84630500D01*
X181766922Y-84631279D01*
X181863940Y-84642211D01*
X181891009Y-84648390D01*
X181976555Y-84678324D01*
X182001571Y-84690371D01*
X182078309Y-84738588D01*
X182100019Y-84755901D01*
X182164098Y-84819980D01*
X182181411Y-84841690D01*
X182229628Y-84918428D01*
X182241675Y-84943444D01*
X182271609Y-85028990D01*
X182277788Y-85056060D01*
X182288720Y-85153076D01*
X182289500Y-85166961D01*
X182289500Y-88209462D01*
X182320655Y-88426157D01*
X182320658Y-88426167D01*
X182382336Y-88636221D01*
X182418967Y-88716433D01*
X182473280Y-88835363D01*
X182473283Y-88835368D01*
X182591641Y-89019536D01*
X182735008Y-89184991D01*
X182900463Y-89328358D01*
X183037978Y-89416734D01*
X183084636Y-89446719D01*
X183084647Y-89446724D01*
X183088121Y-89448621D01*
X183137531Y-89498022D01*
X183152389Y-89566294D01*
X183127978Y-89631760D01*
X183116386Y-89645140D01*
X183036171Y-89725355D01*
X182920476Y-89884594D01*
X182831117Y-90059970D01*
X182770290Y-90247173D01*
X182739500Y-90441577D01*
X182739500Y-91638422D01*
X182770290Y-91832826D01*
X182831117Y-92020029D01*
X182912421Y-92179596D01*
X182920476Y-92195405D01*
X182965818Y-92257812D01*
X182989298Y-92323618D01*
X182989500Y-92330697D01*
X182989500Y-103575748D01*
X182969815Y-103642787D01*
X182953181Y-103663429D01*
X177448429Y-109168181D01*
X177387106Y-109201666D01*
X177360748Y-109204500D01*
X164410124Y-109204500D01*
X164343085Y-109184815D01*
X164305130Y-109146472D01*
X164214816Y-109002738D01*
X164087262Y-108875184D01*
X164037980Y-108844218D01*
X163934523Y-108779211D01*
X163771142Y-108722042D01*
X163714366Y-108681320D01*
X163688619Y-108616367D01*
X163702075Y-108547806D01*
X163750462Y-108497403D01*
X163771142Y-108487958D01*
X163934522Y-108430789D01*
X164087262Y-108334816D01*
X164214816Y-108207262D01*
X164310789Y-108054522D01*
X164370368Y-107884255D01*
X164385500Y-107749954D01*
X164385500Y-106260046D01*
X164372528Y-106144912D01*
X164370369Y-106125750D01*
X164370368Y-106125745D01*
X164334127Y-106022174D01*
X164310789Y-105955478D01*
X164279384Y-105905498D01*
X164214815Y-105802737D01*
X164087262Y-105675184D01*
X163934523Y-105579211D01*
X163764254Y-105519631D01*
X163764249Y-105519630D01*
X163629960Y-105504500D01*
X163629954Y-105504500D01*
X162140046Y-105504500D01*
X162140039Y-105504500D01*
X162005750Y-105519630D01*
X162005745Y-105519631D01*
X161835476Y-105579211D01*
X161682737Y-105675184D01*
X161555184Y-105802737D01*
X161459211Y-105955476D01*
X161399631Y-106125745D01*
X161399630Y-106125750D01*
X161384500Y-106260039D01*
X161384500Y-107749960D01*
X161399630Y-107884249D01*
X161399631Y-107884254D01*
X161459211Y-108054523D01*
X161555184Y-108207262D01*
X161682738Y-108334816D01*
X161835478Y-108430789D01*
X161835480Y-108430790D01*
X161998857Y-108487959D01*
X162055633Y-108528680D01*
X162081380Y-108593633D01*
X162067924Y-108662195D01*
X162019536Y-108712597D01*
X161998857Y-108722041D01*
X161835480Y-108779209D01*
X161682737Y-108875184D01*
X161555184Y-109002737D01*
X161459211Y-109155476D01*
X161399631Y-109325745D01*
X161399630Y-109325750D01*
X161384500Y-109460039D01*
X161384500Y-110949960D01*
X161399630Y-111084249D01*
X161399631Y-111084254D01*
X161459211Y-111254523D01*
X161517411Y-111347147D01*
X161555184Y-111407262D01*
X161682738Y-111534816D01*
X161835478Y-111630789D01*
X161851245Y-111636306D01*
X162005745Y-111690368D01*
X162005750Y-111690369D01*
X162096246Y-111700565D01*
X162140040Y-111705499D01*
X162140043Y-111705500D01*
X162140046Y-111705500D01*
X163629957Y-111705500D01*
X163629958Y-111705499D01*
X163697104Y-111697934D01*
X163764249Y-111690369D01*
X163764252Y-111690368D01*
X163764255Y-111690368D01*
X163934522Y-111630789D01*
X164087262Y-111534816D01*
X164214816Y-111407262D01*
X164305130Y-111263527D01*
X164357465Y-111217237D01*
X164410124Y-111205500D01*
X176810218Y-111205500D01*
X176877257Y-111225185D01*
X176923012Y-111277989D01*
X176932956Y-111347147D01*
X176903931Y-111410703D01*
X176897899Y-111417181D01*
X171846899Y-116468181D01*
X171785576Y-116501666D01*
X171759218Y-116504500D01*
X164410124Y-116504500D01*
X164343085Y-116484815D01*
X164305130Y-116446472D01*
X164214816Y-116302738D01*
X164087262Y-116175184D01*
X163934523Y-116079211D01*
X163764254Y-116019631D01*
X163764249Y-116019630D01*
X163629960Y-116004500D01*
X163629954Y-116004500D01*
X162140046Y-116004500D01*
X162140039Y-116004500D01*
X162005750Y-116019630D01*
X162005745Y-116019631D01*
X161835476Y-116079211D01*
X161682737Y-116175184D01*
X161555184Y-116302737D01*
X161459211Y-116455476D01*
X161399631Y-116625745D01*
X161399630Y-116625750D01*
X161384500Y-116760039D01*
X161384500Y-118249960D01*
X161399630Y-118384249D01*
X161399631Y-118384254D01*
X161459211Y-118554523D01*
X161519039Y-118649738D01*
X161555184Y-118707262D01*
X161682738Y-118834816D01*
X161835478Y-118930789D01*
X161835480Y-118930790D01*
X161998857Y-118987959D01*
X162055633Y-119028680D01*
X162081380Y-119093633D01*
X162067924Y-119162195D01*
X162019536Y-119212597D01*
X161998857Y-119222041D01*
X161835480Y-119279209D01*
X161682737Y-119375184D01*
X161555184Y-119502737D01*
X161459210Y-119655478D01*
X161435873Y-119722174D01*
X161401132Y-119821455D01*
X161360412Y-119878230D01*
X161295460Y-119903978D01*
X161284092Y-119904500D01*
X129992066Y-119904500D01*
X129925027Y-119884815D01*
X129879272Y-119832011D01*
X129869328Y-119762853D01*
X129869593Y-119761102D01*
X129900500Y-119565961D01*
X129900500Y-119314038D01*
X129894984Y-119279211D01*
X129861090Y-119065215D01*
X129783241Y-118825621D01*
X129783239Y-118825618D01*
X129783239Y-118825616D01*
X129741747Y-118744184D01*
X129668870Y-118601155D01*
X129596677Y-118501789D01*
X129520798Y-118397350D01*
X129520794Y-118397345D01*
X129342654Y-118219205D01*
X129342649Y-118219201D01*
X129138848Y-118071132D01*
X129138847Y-118071131D01*
X129138845Y-118071130D01*
X129068747Y-118035413D01*
X128914383Y-117956760D01*
X128674785Y-117878910D01*
X128425962Y-117839500D01*
X128174038Y-117839500D01*
X128049626Y-117859205D01*
X127925214Y-117878910D01*
X127685616Y-117956760D01*
X127461151Y-118071132D01*
X127257350Y-118219201D01*
X127257345Y-118219205D01*
X127079205Y-118397345D01*
X127079201Y-118397350D01*
X126931132Y-118601151D01*
X126816760Y-118825616D01*
X126738909Y-119065214D01*
X126727473Y-119137424D01*
X126697544Y-119200559D01*
X126638232Y-119237490D01*
X126568370Y-119236492D01*
X126510137Y-119197882D01*
X126482527Y-119137424D01*
X126471090Y-119065214D01*
X126434970Y-118954049D01*
X126393241Y-118825621D01*
X126393239Y-118825618D01*
X126393239Y-118825616D01*
X126351747Y-118744184D01*
X126278870Y-118601155D01*
X126206677Y-118501789D01*
X126130798Y-118397350D01*
X126130794Y-118397345D01*
X125952654Y-118219205D01*
X125952649Y-118219201D01*
X125748848Y-118071132D01*
X125748847Y-118071131D01*
X125748845Y-118071130D01*
X125678747Y-118035413D01*
X125524383Y-117956760D01*
X125284785Y-117878910D01*
X125035962Y-117839500D01*
X124784038Y-117839500D01*
X124659626Y-117859205D01*
X124535214Y-117878910D01*
X124295616Y-117956760D01*
X124071151Y-118071132D01*
X123867350Y-118219201D01*
X123867345Y-118219205D01*
X123752181Y-118334370D01*
X123690858Y-118367855D01*
X123621166Y-118362871D01*
X123565233Y-118320999D01*
X123540816Y-118255535D01*
X123540500Y-118246689D01*
X123540500Y-110913525D01*
X123560185Y-110846486D01*
X123612989Y-110800731D01*
X123682147Y-110790787D01*
X123729595Y-110807986D01*
X123740665Y-110814814D01*
X123907202Y-110869999D01*
X124009990Y-110880500D01*
X124009995Y-110880500D01*
X125810005Y-110880500D01*
X125810010Y-110880500D01*
X125912798Y-110869999D01*
X126079335Y-110814814D01*
X126228656Y-110722712D01*
X126352712Y-110598656D01*
X126444814Y-110449335D01*
X126487295Y-110321135D01*
X126527066Y-110263692D01*
X126591582Y-110236869D01*
X126660358Y-110249184D01*
X126711558Y-110296727D01*
X126722703Y-110321131D01*
X126765186Y-110449335D01*
X126857288Y-110598656D01*
X126981344Y-110722712D01*
X127130665Y-110814814D01*
X127297202Y-110869999D01*
X127399990Y-110880500D01*
X127399995Y-110880500D01*
X129200005Y-110880500D01*
X129200010Y-110880500D01*
X129302798Y-110869999D01*
X129469335Y-110814814D01*
X129618656Y-110722712D01*
X129742712Y-110598656D01*
X129834814Y-110449335D01*
X129889999Y-110282798D01*
X129900500Y-110180010D01*
X129900500Y-108379990D01*
X129889999Y-108277202D01*
X129834814Y-108110665D01*
X129742712Y-107961344D01*
X129618656Y-107837288D01*
X129510299Y-107770453D01*
X129469337Y-107745187D01*
X129469332Y-107745185D01*
X129467863Y-107744698D01*
X129302798Y-107690001D01*
X129302796Y-107690000D01*
X129200017Y-107679500D01*
X129200010Y-107679500D01*
X127399990Y-107679500D01*
X127399982Y-107679500D01*
X127297203Y-107690000D01*
X127297202Y-107690001D01*
X127214669Y-107717349D01*
X127130667Y-107745185D01*
X127130662Y-107745187D01*
X126981342Y-107837289D01*
X126857289Y-107961342D01*
X126765187Y-108110662D01*
X126765185Y-108110667D01*
X126722706Y-108238862D01*
X126682933Y-108296307D01*
X126618417Y-108323130D01*
X126549642Y-108310815D01*
X126498442Y-108263272D01*
X126487294Y-108238862D01*
X126476823Y-108207262D01*
X126444814Y-108110665D01*
X126352712Y-107961344D01*
X126228656Y-107837288D01*
X126120299Y-107770453D01*
X126079337Y-107745187D01*
X126079332Y-107745185D01*
X126077863Y-107744698D01*
X125912798Y-107690001D01*
X125912796Y-107690000D01*
X125810017Y-107679500D01*
X125810010Y-107679500D01*
X124009990Y-107679500D01*
X124009982Y-107679500D01*
X123907203Y-107690000D01*
X123907202Y-107690001D01*
X123824669Y-107717349D01*
X123740667Y-107745185D01*
X123740653Y-107745192D01*
X123729595Y-107752013D01*
X123662203Y-107770453D01*
X123595540Y-107749530D01*
X123550771Y-107695887D01*
X123540500Y-107646474D01*
X123540500Y-101854778D01*
X125189500Y-101854778D01*
X125189500Y-102075221D01*
X125223985Y-102292952D01*
X125292103Y-102502603D01*
X125292104Y-102502606D01*
X125392187Y-102699025D01*
X125521752Y-102877358D01*
X125521756Y-102877363D01*
X125571928Y-102927535D01*
X125605413Y-102988858D01*
X125600429Y-103058550D01*
X125558557Y-103114483D01*
X125527581Y-103131398D01*
X125447669Y-103161203D01*
X125447664Y-103161206D01*
X125332455Y-103247452D01*
X125332452Y-103247455D01*
X125246206Y-103362664D01*
X125246202Y-103362671D01*
X125195908Y-103497517D01*
X125189501Y-103557116D01*
X125189501Y-103557123D01*
X125189500Y-103557135D01*
X125189500Y-105452870D01*
X125189501Y-105452876D01*
X125195908Y-105512483D01*
X125246202Y-105647328D01*
X125246206Y-105647335D01*
X125332452Y-105762544D01*
X125332455Y-105762547D01*
X125447664Y-105848793D01*
X125447671Y-105848797D01*
X125582517Y-105899091D01*
X125582516Y-105899091D01*
X125589444Y-105899835D01*
X125642127Y-105905500D01*
X127537872Y-105905499D01*
X127597483Y-105899091D01*
X127732331Y-105848796D01*
X127847546Y-105762546D01*
X127933796Y-105647331D01*
X127984091Y-105512483D01*
X127990500Y-105452873D01*
X127990499Y-103557128D01*
X127984091Y-103497517D01*
X127948041Y-103400863D01*
X127933797Y-103362671D01*
X127933793Y-103362664D01*
X127847547Y-103247455D01*
X127847544Y-103247452D01*
X127732335Y-103161206D01*
X127732328Y-103161202D01*
X127652419Y-103131398D01*
X127596485Y-103089527D01*
X127572068Y-103024062D01*
X127586920Y-102955789D01*
X127608069Y-102927537D01*
X127658242Y-102877365D01*
X127787815Y-102699022D01*
X127887895Y-102502606D01*
X127956015Y-102292951D01*
X127990500Y-102075222D01*
X127990500Y-101854778D01*
X127956015Y-101637049D01*
X127920328Y-101527213D01*
X127887896Y-101427396D01*
X127887895Y-101427393D01*
X127846150Y-101345465D01*
X127787815Y-101230978D01*
X127729545Y-101150776D01*
X127658247Y-101052641D01*
X127658243Y-101052636D01*
X127502363Y-100896756D01*
X127502358Y-100896752D01*
X127324025Y-100767187D01*
X127324024Y-100767186D01*
X127324022Y-100767185D01*
X127261096Y-100735122D01*
X127127606Y-100667104D01*
X127127603Y-100667103D01*
X126917952Y-100598985D01*
X126809086Y-100581742D01*
X126700222Y-100564500D01*
X126479778Y-100564500D01*
X126407201Y-100575995D01*
X126262047Y-100598985D01*
X126052396Y-100667103D01*
X126052393Y-100667104D01*
X125855974Y-100767187D01*
X125677641Y-100896752D01*
X125677636Y-100896756D01*
X125521756Y-101052636D01*
X125521752Y-101052641D01*
X125392187Y-101230974D01*
X125292104Y-101427393D01*
X125292103Y-101427396D01*
X125223985Y-101637047D01*
X125189500Y-101854778D01*
X123540500Y-101854778D01*
X123540500Y-87811902D01*
X123909500Y-87811902D01*
X123909500Y-88048097D01*
X123946446Y-88281368D01*
X124019433Y-88505996D01*
X124126657Y-88716433D01*
X124265483Y-88907510D01*
X124432490Y-89074517D01*
X124623567Y-89213343D01*
X124757374Y-89281521D01*
X124808169Y-89329494D01*
X124824964Y-89397315D01*
X124811563Y-89448300D01*
X124737213Y-89594219D01*
X124675661Y-89783656D01*
X124675661Y-89783659D01*
X124644500Y-89980403D01*
X124644500Y-90179596D01*
X124675661Y-90376340D01*
X124675661Y-90376343D01*
X124737213Y-90565780D01*
X124737215Y-90565783D01*
X124827647Y-90743266D01*
X124944731Y-90904418D01*
X124944733Y-90904420D01*
X125032632Y-90992319D01*
X125066117Y-91053642D01*
X125061133Y-91123334D01*
X125032632Y-91167681D01*
X124944733Y-91255579D01*
X124944733Y-91255580D01*
X124944731Y-91255582D01*
X124909716Y-91303776D01*
X124827647Y-91416733D01*
X124737213Y-91594219D01*
X124675661Y-91783656D01*
X124675661Y-91783659D01*
X124675661Y-91783661D01*
X124644500Y-91980403D01*
X124644500Y-92179597D01*
X124647004Y-92195405D01*
X124675661Y-92376340D01*
X124675661Y-92376343D01*
X124737213Y-92565780D01*
X124737215Y-92565783D01*
X124827647Y-92743266D01*
X124944731Y-92904418D01*
X125085582Y-93045269D01*
X125246734Y-93162353D01*
X125424217Y-93252785D01*
X125424218Y-93252785D01*
X125428559Y-93254997D01*
X125428092Y-93255911D01*
X125462351Y-93278797D01*
X125780591Y-93597037D01*
X125717007Y-93614075D01*
X125602993Y-93679901D01*
X125509901Y-93772993D01*
X125444075Y-93887007D01*
X125427037Y-93950591D01*
X124855581Y-93379135D01*
X124855580Y-93379135D01*
X124828077Y-93416990D01*
X124737679Y-93594405D01*
X124676147Y-93783777D01*
X124645000Y-93980436D01*
X124645000Y-94179563D01*
X124676147Y-94376222D01*
X124737679Y-94565594D01*
X124812008Y-94711473D01*
X124824904Y-94780142D01*
X124798628Y-94844883D01*
X124757818Y-94878252D01*
X124711055Y-94902079D01*
X124623566Y-94946657D01*
X124514550Y-95025862D01*
X124432490Y-95085483D01*
X124432488Y-95085485D01*
X124432487Y-95085485D01*
X124265485Y-95252487D01*
X124265485Y-95252488D01*
X124265483Y-95252490D01*
X124222503Y-95311647D01*
X124126657Y-95443566D01*
X124019433Y-95654003D01*
X123946446Y-95878631D01*
X123909500Y-96111902D01*
X123909500Y-96348097D01*
X123946446Y-96581368D01*
X124019433Y-96805996D01*
X124126657Y-97016433D01*
X124265483Y-97207510D01*
X124432490Y-97374517D01*
X124623567Y-97513343D01*
X124718995Y-97561966D01*
X124834003Y-97620566D01*
X124834005Y-97620566D01*
X124834008Y-97620568D01*
X124954412Y-97659689D01*
X125058631Y-97693553D01*
X125291903Y-97730500D01*
X125291908Y-97730500D01*
X126528097Y-97730500D01*
X126761368Y-97693553D01*
X126810829Y-97677482D01*
X126985992Y-97620568D01*
X127196433Y-97513343D01*
X127387510Y-97374517D01*
X127554517Y-97207510D01*
X127693343Y-97016433D01*
X127800568Y-96805992D01*
X127873553Y-96581368D01*
X127910500Y-96348097D01*
X127910500Y-96111902D01*
X127873553Y-95878631D01*
X127800566Y-95654003D01*
X127733366Y-95522116D01*
X127693343Y-95443567D01*
X127554517Y-95252490D01*
X127387510Y-95085483D01*
X127196433Y-94946657D01*
X127062181Y-94878252D01*
X127011385Y-94830277D01*
X126994590Y-94762456D01*
X127007992Y-94711471D01*
X127082320Y-94565596D01*
X127143852Y-94376222D01*
X127175000Y-94179563D01*
X127175000Y-93980436D01*
X127143852Y-93783777D01*
X127082320Y-93594405D01*
X126991924Y-93416994D01*
X126964417Y-93379135D01*
X126964417Y-93379134D01*
X126392962Y-93950589D01*
X126375925Y-93887007D01*
X126310099Y-93772993D01*
X126217007Y-93679901D01*
X126102993Y-93614075D01*
X126039406Y-93597036D01*
X126357645Y-93278798D01*
X126391907Y-93255912D01*
X126391441Y-93254997D01*
X126395780Y-93252785D01*
X126395783Y-93252785D01*
X126573266Y-93162353D01*
X126734418Y-93045269D01*
X126875269Y-92904418D01*
X126992353Y-92743266D01*
X127082785Y-92565783D01*
X127144339Y-92376339D01*
X127175500Y-92179597D01*
X127175500Y-91980403D01*
X127144339Y-91783661D01*
X127144338Y-91783657D01*
X127144338Y-91783656D01*
X127082786Y-91594219D01*
X126992352Y-91416733D01*
X126875269Y-91255582D01*
X126787368Y-91167681D01*
X126753883Y-91106358D01*
X126758867Y-91036666D01*
X126787368Y-90992319D01*
X126875269Y-90904418D01*
X126992353Y-90743266D01*
X127082785Y-90565783D01*
X127144339Y-90376339D01*
X127175500Y-90179597D01*
X127175500Y-89980403D01*
X127144339Y-89783661D01*
X127144338Y-89783657D01*
X127144338Y-89783656D01*
X127082786Y-89594219D01*
X127078686Y-89586172D01*
X127008435Y-89448297D01*
X126995540Y-89379631D01*
X127021816Y-89314891D01*
X127062625Y-89281521D01*
X127196433Y-89213343D01*
X127387510Y-89074517D01*
X127554517Y-88907510D01*
X127693343Y-88716433D01*
X127800568Y-88505992D01*
X127873553Y-88281368D01*
X127902279Y-88100000D01*
X127910500Y-88048097D01*
X127910500Y-87811902D01*
X127873553Y-87578631D01*
X127812420Y-87390485D01*
X127800568Y-87354008D01*
X127800566Y-87354005D01*
X127800566Y-87354003D01*
X127728617Y-87212796D01*
X127693343Y-87143567D01*
X127554517Y-86952490D01*
X127387510Y-86785483D01*
X127196433Y-86646657D01*
X126985996Y-86539433D01*
X126761368Y-86466446D01*
X126528097Y-86429500D01*
X126528092Y-86429500D01*
X125291908Y-86429500D01*
X125291903Y-86429500D01*
X125058631Y-86466446D01*
X124834003Y-86539433D01*
X124623566Y-86646657D01*
X124514550Y-86725862D01*
X124432490Y-86785483D01*
X124432488Y-86785485D01*
X124432487Y-86785485D01*
X124265485Y-86952487D01*
X124265485Y-86952488D01*
X124265483Y-86952490D01*
X124241900Y-86984949D01*
X124126657Y-87143566D01*
X124019433Y-87354003D01*
X123946446Y-87578631D01*
X123909500Y-87811902D01*
X123540500Y-87811902D01*
X123540500Y-85166961D01*
X123541280Y-85153078D01*
X123552211Y-85056062D01*
X123558390Y-85028990D01*
X123588324Y-84943444D01*
X123600371Y-84918428D01*
X123640339Y-84854818D01*
X123648588Y-84841689D01*
X123665897Y-84819984D01*
X123729984Y-84755897D01*
X123751690Y-84738588D01*
X123828428Y-84690371D01*
X123853444Y-84678324D01*
X123938990Y-84648390D01*
X123966059Y-84642211D01*
X124045746Y-84633232D01*
X124063078Y-84631280D01*
X124076961Y-84630500D01*
X124135892Y-84630500D01*
X130078770Y-84630500D01*
X130145809Y-84650185D01*
G37*
%TD.AperFunction*%
%TD*%
M02*
